<?xml version="1.0" encoding="utf-8"?>
<!-- Generator: Adobe Illustrator 18.1.1, SVG Export Plug-In . SVG Version: 6.00 Build 0)  -->
<svg version="1.1" id="Layer_1" xmlns="http://www.w3.org/2000/svg" xmlns:xlink="http://www.w3.org/1999/xlink" x="0px" y="0px"
	 viewBox="0 0 2000 1000" enable-background="new 0 0 2000 1000" xml:space="preserve">
<path fill="#FFFFFF" stroke="#DA9BBC" stroke-width="46" stroke-miterlimit="10" d="M929.8,934.2L626.7,756.8
	c-29.7-17.3-47.9-49.8-47.9-84.4l3.3-350.5c0.5-34.5,19.2-66.2,48.9-83.4L937.4,64.8c30.2-16.8,66.7-16.8,96.4,0.5l303.1,177.5
	c29.7,17.3,47.9,49.8,47.9,84.4l-2.8,351c-0.5,34.5-19.2,66.2-48.9,83.4l-306.4,174.1C996.1,952,959.6,952,929.8,934.2z"/>
<g display="none" opacity="0.29" enable-background="new    ">
	<g display="inline">
		<defs>
			<path id="SVGID_1_" d="M929.8,934.2L626.7,756.8c-29.7-17.3-47.9-49.8-47.9-84.4l3.3-350.5c0.5-34.5,19.2-66.2,48.9-83.4
				L937.4,64.8c30.2-16.8,66.7-16.8,96.4,0.5l303.1,177.5c29.7,17.3,47.9,49.8,47.9,84.4l-2.8,351c-0.5,34.5-19.2,66.2-48.9,83.4
				l-306.4,174.1C996.1,952,959.6,952,929.8,934.2z"/>
		</defs>
		<clipPath id="SVGID_2_">
			<use xlink:href="#SVGID_1_"  overflow="visible"/>
		</clipPath>
		<g clip-path="url(#SVGID_2_)">
			<g opacity="0.21">
				<polygon fill="#3E6896" points="1311.6,400.6 1705.8,185.5 1567.1,474.9 				"/>
				<polygon fill="#2F4E71" points="1994.8,277.6 1705.8,185.5 1995.3,99.3 				"/>
			</g>
			<g opacity="0.65">
				<polygon fill="#0E5E8D" points="903,1000.9 902.3,735.1 1266.5,772.1 1020.1,1000.5 				"/>
				<polygon fill="#68B4E1" points="1519.6,977.7 1267.1,771.9 1021,1000.5 1503.8,999.2 				"/>
				<polygon fill="#42A1DA" points="-5,279.2 283.9,187.1 -5.5,100.9 				"/>
				<polygon fill="#C2E1F3" points="262.2,484.8 -4,394.1 -5,279.2 283.9,187.1 				"/>
				<polygon fill="#42A1DA" points="422.6,476.5 283.9,187.1 262.2,484.8 				"/>
				<polygon fill="#C2E1F3" points="823.2,465.6 422.6,476.5 801.7,366.3 				"/>
				<polygon fill="#68B4E1" points="953.3,502.6 823.2,465.6 801.7,366.3 				"/>
				<polygon fill="#42A1DA" points="850,572.6 823.2,465.6 953.3,502.6 				"/>
				<polygon fill="#0E5E8D" points="1043.8,601.2 850,572.6 981.9,450.3 				"/>
				<polygon fill="#C2E1F3" points="903.5,735.1 1043.8,601.2 1267.1,771.9 				"/>
				<polygon fill="#68B4E1" points="683.1,633.5 823.2,465.6 850,572.6 				"/>
				<polygon fill="#8EC7E9" points="422.6,476.5 683.1,633.5 823.2,465.6 				"/>
				<polygon fill="#C2E1F3" points="454.2,648.8 422.6,476.5 683.1,633.5 				"/>
				<polygon fill="#68B4E1" points="262.2,484.8 422.6,476.5 454.2,648.8 				"/>
				<polygon fill="#8EC7E9" points="98.5,551.1 -4.5,477.8 -4.8,393.1 262.2,484.8 				"/>
				<polygon fill="#68B4E1" points="140.4,591.3 98.5,551.1 262.2,484.8 				"/>
				<polygon fill="#C2E1F3" points="454.2,648.8 140.4,591.3 262.2,484.8 				"/>
				<polygon fill="#42A1DA" points="454.3,751.1 142.1,591.3 454.1,648.8 				"/>
				<polygon fill="#68B4E1" points="-3.3,660.9 141.8,591.3 454,751.1 223.9,1003 				"/>
				<polygon fill="#0E5E8D" points="-3,1003.6 -3.9,661.9 223.9,1003 				"/>
				<polygon fill="#C2E1F3" points="454,751.1 223.9,1003 495.7,1002.1 				"/>
				<polygon fill="#8EC7E9" points="769,1001.4 494.4,1002.1 454,751.1 				"/>
				<polygon fill="#42A1DA" points="902.3,735.1 453.3,751.1 769,1001.4 903,1000.9 				"/>
				<polygon fill="#68B4E1" points="683.1,633.5 454,751.1 903.5,735.1 				"/>
				<polygon fill="#42A1DA" points="850,572.6 683.1,633.5 903.5,735.1 1043.8,601.2 				"/>
				<polygon fill="#8EC7E9" points="454.1,648.8 454.3,751.1 683.5,633.5 				"/>
				<polygon fill="#0E5E8D" points="141.8,591.3 98.5,551.1 -3.4,619 -3.9,661.9 				"/>
				<polygon fill="#42A1DA" points="-4.5,477.8 -3.4,619 98.5,551.1 				"/>
			</g>
			<g opacity="0.65">
				<polygon fill="#3E6896" points="1086.7,999.3 1087.4,733.5 723.2,770.3 969.6,998.9 				"/>
				<polygon fill="#B2C3D5" points="442.6,995.9 722.7,770.3 968.7,998.9 486,997.6 				"/>
				<polygon fill="#B2C3D5" points="1727.7,483.2 1993.7,392.5 1994.8,277.6 1705.8,185.5 				"/>
				<polygon fill="#2F4E71" points="1567.1,474.9 1705.8,185.5 1727.7,483.2 				"/>
				<polygon fill="#B2C3D5" points="1126.4,617.4 1311.6,400.6 1213.6,319 				"/>
				<polygon fill="#6586AB" points="1126.4,617.4 1567.1,474.9 1311.6,400.6 				"/>
				<polygon fill="#6586AB" points="1036.5,501 1126.4,617.4 1213.6,319 				"/>
				<polygon fill="#3E6896" points="946.1,599.6 1126.4,617.4 1036.5,501 				"/>
				<polygon fill="#6586AB" points="1086.2,733.5 946.1,599.6 722.7,770.3 				"/>
				<polygon fill="#8BA4C0" points="1567.1,474.9 1306.7,631.9 1126.4,617.4 				"/>
				<polygon fill="#B2C3D5" points="1535.6,647.2 1567.1,474.9 1306.7,631.9 				"/>
				<polygon fill="#6586AB" points="1727.7,483.2 1567.1,474.9 1535.6,647.2 				"/>
				<polygon fill="#8BA4C0" points="1891.2,549.4 1994.2,476.2 1994.5,391.5 1727.7,483.2 				"/>
				<polygon fill="#6586AB" points="1849.3,589.7 1891.2,549.4 1727.7,483.2 				"/>
				<polygon fill="#B2C3D5" points="1535.6,647.2 1849.3,589.7 1727.7,483.2 				"/>
				<polygon fill="#2F4E71" points="1535.4,749.4 1847.6,589.7 1535.6,647.2 				"/>
				<polygon fill="#6586AB" points="1993,659.3 1848.1,589.7 1535.9,749.4 1766,1001.4 				"/>
				<polygon fill="#3E6896" points="1992.7,1002 1993.7,660.3 1766,1001.4 				"/>
				<polygon fill="#B2C3D5" points="1535.9,749.4 1766,1001.4 1494,1000.5 				"/>
				<polygon fill="#8BA4C0" points="1220.8,999.8 1495.3,1000.5 1535.9,749.4 				"/>
				<polygon fill="#2F4E71" points="1087.4,733.5 1536.4,749.4 1220.8,999.8 1086.7,999.3 				"/>
				<polygon fill="#6586AB" points="1306.7,631.9 1535.9,749.4 1086.2,733.5 				"/>
				<polygon fill="#2F4E71" points="1126.4,617.4 1306.7,631.9 1086.2,733.5 946.1,599.6 				"/>
				<polygon fill="#8BA4C0" points="1535.6,647.2 1535.4,749.4 1306.3,631.9 				"/>
				<polygon fill="#3E6896" points="1848.1,589.7 1891.2,549.4 1993.1,617.4 1993.7,660.3 				"/>
				<polygon fill="#2F4E71" points="1994.2,476.2 1993.1,617.4 1891.2,549.4 				"/>
			</g>
			<g opacity="0.65">
				<polygon fill="#841D53" points="900,5.1 899.1,271.1 1263.3,234.1 1016.9,5.6 				"/>
				<polygon fill="#C0528C" points="1516.4,28.4 1263.9,234.1 1017.8,5.6 1500.6,7 				"/>
				<polygon fill="#B0276F" points="-8.2,726.9 280.7,819 -8.7,905.2 				"/>
				<polygon fill="#DFA9C5" points="259,521.4 -7.2,612.1 -8.2,726.9 280.7,819 				"/>
				<polygon fill="#B0276F" points="419.4,529.6 280.7,819 259,521.4 				"/>
				<polygon fill="#DFA9C5" points="820,540.6 419.4,529.6 798.5,639.8 				"/>
				<polygon fill="#C0528C" points="950.1,503.5 820,540.6 798.5,639.8 				"/>
				<polygon fill="#B0276F" points="846.8,433.5 820,540.6 950.1,503.5 				"/>
				<polygon fill="#841D53" points="1040.6,404.9 846.8,433.5 1030.2,547.9 				"/>
				<polygon fill="#C0528C" points="900.3,271.1 1040.6,404.9 1263.9,234.1 				"/>
				<polygon fill="#C0528C" points="679.9,372.6 820,540.6 846.8,433.5 				"/>
				<polygon fill="#D07DA9" points="419.4,529.6 679.9,372.6 820,540.6 				"/>
				<polygon fill="#DFA9C5" points="451,357.3 419.4,529.6 679.9,372.6 				"/>
				<polygon fill="#C0528C" points="259,521.4 419.4,529.6 451,357.3 				"/>
				<polygon fill="#D07DA9" points="95.3,455.1 -7.7,528.3 -7.8,613.1 259,521.4 				"/>
				<polygon fill="#C0528C" points="137.2,414.8 95.3,455.1 259,521.4 				"/>
				<polygon fill="#DFA9C5" points="451,357.3 137.2,414.8 259,521.4 				"/>
				<polygon fill="#B0276F" points="451.1,255.1 139.1,414.8 450.9,357.3 				"/>
				<polygon fill="#C0528C" points="-6.5,345.3 138.6,414.8 450.7,255.1 220.7,3.1 				"/>
				<polygon fill="#841D53" points="-6.2,2.4 -7.1,344.3 220.7,3.1 				"/>
				<polygon fill="#DFA9C5" points="450.7,255.1 220.7,3.1 492.5,4 				"/>
				<polygon fill="#D07DA9" points="765.8,4.8 491.2,3.9 450.7,255.1 				"/>
				<polygon fill="#B0276F" points="899.1,271.1 450.1,255.1 765.8,4.8 900,5.1 				"/>
				<polygon fill="#C0528C" points="679.9,372.6 450.7,255.1 900.3,271.1 				"/>
				<polygon fill="#B0276F" points="846.8,433.5 679.9,372.6 900.3,271.1 1040.6,404.9 				"/>
				<polygon fill="#D07DA9" points="450.9,357.3 451.1,255.1 680.3,372.6 				"/>
				<polygon fill="#841D53" points="138.6,414.8 95.3,455.1 -6.6,387.2 -7.1,344.3 				"/>
				<polygon fill="#B0276F" points="-7.7,528.3 -6.6,387.2 95.3,455.1 				"/>
			</g>
			<g opacity="0.79">
				<polygon fill="#90A4B0" points="1085.1,9.7 1085.8,275.6 721.8,238.7 968.1,10.2 				"/>
				<polygon fill="#BDCCD4" points="468.5,33 721.1,238.7 967.3,10.2 484.4,11.5 				"/>
				<polygon fill="#BDCCD4" points="1993.2,731.5 1704.4,823.6 1993.7,909.7 				"/>
				<polygon fill="#D7E0E5" points="1726.1,525.9 1992.3,616.6 1993.2,731.5 1704.4,823.6 				"/>
				<polygon fill="#BDCCD4" points="1565.6,534.2 1704.4,823.6 1726.1,525.9 				"/>
				<polygon fill="#D7E0E5" points="1165.1,545.2 1565.6,534.2 1186.5,644.4 				"/>
				<polygon fill="#EAEFF1" points="1034.9,508.1 1165.1,545.2 1186.5,644.4 				"/>
				<polygon fill="#BDCCD4" points="1138.2,438.1 1165.1,545.2 1034.9,508.1 				"/>
				<polygon fill="#90A4B0" points="944.5,409.5 1138.2,438.1 1034.9,508.1 				"/>
				<polygon fill="#D7E0E5" points="1084.7,275.6 944.5,409.5 721.1,238.7 				"/>
				<polygon fill="#EAEFF1" points="1305.2,377.2 1165.1,545.2 1138.2,438.1 				"/>
				<polygon fill="#D7E0E5" points="1565.6,534.2 1305.2,377.2 1165.1,545.2 				"/>
				<polygon fill="#D7E0E5" points="1534,361.9 1565.6,534.2 1305.2,377.2 				"/>
				<polygon fill="#EAEFF1" points="1726.1,525.9 1565.6,534.2 1534,361.9 				"/>
				<polygon fill="#D7E0E5" points="1889.7,459.6 1992.6,532.8 1992.9,617.6 1726.1,525.9 				"/>
				<polygon fill="#BDCCD4" points="1847.8,419.3 1889.7,459.6 1726.1,525.9 				"/>
				<polygon fill="#D7E0E5" points="1534,361.9 1847.8,419.3 1726.1,525.9 				"/>
				<polygon fill="#BDCCD4" points="1533.8,259.6 1846,419.3 1534.2,361.9 				"/>
				<polygon fill="#EAEFF1" points="1991.5,349.8 1846.5,419.3 1534.3,259.6 1764.4,7.7 				"/>
				<polygon fill="#90A4B0" points="1991.1,7 1992.1,348.8 1764.4,7.7 				"/>
				<polygon fill="#D7E0E5" points="1534.3,259.6 1764.4,7.7 1492.5,8.6 				"/>
				<polygon fill="#D7E0E5" points="1219.2,9.3 1493.7,8.4 1534.3,259.6 				"/>
				<polygon fill="#BDCCD4" points="1085.8,275.6 1534.9,259.6 1219.2,9.3 1085.1,9.7 				"/>
				<polygon fill="#EAEFF1" points="1305.2,377.2 1534.3,259.6 1084.7,275.6 				"/>
				<polygon fill="#BDCCD4" points="1138.2,438.1 1305.2,377.2 1084.7,275.6 944.5,409.5 				"/>
				<polygon fill="#D7E0E5" points="1534.2,361.9 1533.8,259.6 1304.7,377.2 				"/>
				<polygon fill="#90A4B0" points="1846.5,419.3 1889.7,459.6 1991.6,391.7 1992.1,348.8 				"/>
				<polygon fill="#BDCCD4" points="1992.6,532.8 1991.6,391.7 1889.7,459.6 				"/>
			</g>
		</g>
	</g>
</g>
<path fill="#993366" enable-background="new    " d="M1143.7,724.9h-23.4c55.1-36.4,91.7-99,91.8-170.1
	c0.1-95.6-65.2-175.6-153.8-198.2l38.7-73c4.4-8.9,1-19.6-7.4-23.7l-91.8-44.7c-4.1-2-8.8-2.2-13.2-0.5c-4.3,1.7-8.1,5.2-10.1,9.4
	L865.2,430.2c-8.8,17.9-2.2,39.2,14.8,47.4l-14.8,30.6l61.3,29.7l14.9-30.4l0,0c17,8.3,37.7,0.4,46.3-17.6l37.2-70
	c67.2,8.5,119.3,65.3,119.2,134.8c-0.1,75.1-61.4,136.2-136.4,135.9c-34.3,0-78.4-13.2-102-34.3v-17c0-9.4,7.6-17,17.1-17l85.2,0.1
	v-33.9l-131.4-0.1l-70-0.1l-71.1-0.1v34.1l80,0.1h5.2c9.4,0,17,7.6,17,17.1v17l-0.1,68.2c-37.5-0.1-68.2-3.8-68.2,33.9l442.7,1
	C1211.9,721.4,1181.4,724.9,1143.7,724.9z"/>
<path display="none" opacity="0.8" fill="none" stroke="#993366" stroke-width="10" stroke-miterlimit="10" enable-background="new    " d="
	M1143.7,724.9h-23.4c55.1-36.4,91.7-99,91.8-170.1c0.1-95.6-65.2-175.6-153.8-198.2l38.7-73c4.4-8.9,1-19.6-7.4-23.7l-91.8-44.7
	c-4.1-2-8.8-2.2-13.2-0.5c-4.3,1.7-8.1,5.2-10.1,9.4L865.2,430.2c-8.8,17.9-2.2,39.2,14.8,47.4l-14.8,30.6l61.3,29.7l14.9-30.4l0,0
	c17,8.3,37.7,0.4,46.3-17.6l37.2-70c67.2,8.5,119.3,65.3,119.2,134.8c-0.1,75.1-61.4,136.2-136.4,135.9c-34.3,0-78.4-13.2-102-34.3
	v-17c0-9.4,7.6-17,17.1-17l85.2,0.1v-33.9l-131.4-0.1l-70-0.1l-71.1-0.1v34.1l80,0.1h5.2c9.4,0,17,7.6,17,17.1v17l-0.1,68.2
	c-37.5-0.1-68.2-3.8-68.2,33.9l442.7,1C1211.9,721.4,1181.4,724.9,1143.7,724.9z"/>
</svg>
