<?xml version="1.0" encoding="utf-8"?>
<!-- Generator: Adobe Illustrator 18.1.1, SVG Export Plug-In . SVG Version: 6.00 Build 0)  -->
<svg version="1.1" id="Layer_1" xmlns="http://www.w3.org/2000/svg" xmlns:xlink="http://www.w3.org/1999/xlink" x="0px" y="0px"
	 viewBox="2819.4 0 2000 1000" enable-background="new 2819.4 0 2000 1000" xml:space="preserve">
<polygon opacity="0.94" fill="#3E6896" points="4158.3,505 4164.4,498.9 4158.3,493.3 3546.3,493.3 3552.9,498.9 3546.8,505 "/>
<path opacity="0.94" fill="#3E6896" d="M3541.5,492.8h-659.6c-1.9,0-3.5-1.6-3.5-3.5V349.2c11.3-2.9,19.4-13.8,17.8-26.3
	c-1.3-10.9-10.2-19.6-21.1-20.8c-14.5-1.6-26.7,9.7-26.7,23.8c0,11.3,7.8,20.7,18.2,23.3V501c0,1.9,1.6,3.5,3.5,3.5l671.8,0.2
	l6.1-5.7L3541.5,492.8z"/>
<circle opacity="0.65" fill="#3B5268" cx="2872.5" cy="325.9" r="14.1"/>
<path opacity="0.94" fill="#3E6896" d="M4790.4,647V497.6c0-2.4-2-4.4-4.4-4.4h-624.2l6.5,5.7l-6.5,6.1h612.4c2.4,0,4.4,2,4.4,4.4
	V647h-7.7l13.7,20.4l13.8-20.4H4790.4z"/>
</svg>
