<?xml version="1.0" encoding="utf-8"?>
<!-- Generator: Adobe Illustrator 18.1.1, SVG Export Plug-In . SVG Version: 6.00 Build 0)  -->
<svg version="1.1" id="Layer_1" xmlns="http://www.w3.org/2000/svg" xmlns:xlink="http://www.w3.org/1999/xlink" x="0px" y="0px"
	 viewBox="0 0 2000 1000" enable-background="new 0 0 2000 1000" xml:space="preserve">
<polygon opacity="0.58" fill="#42A1DA" enable-background="new    " points="1327.9,526.7 1334,520.6 1327.9,514.9 715.9,514.9 
	722.5,520.6 716.4,526.7 "/>
<path opacity="0.58" fill="#42A1DA" enable-background="new    " d="M711.1,514.5H51.6c-1.9,0-3.5-1.6-3.5-3.5V370.8
	c11.3-2.9,19.4-13.8,17.8-26.3c-1.3-10.9-10.2-19.6-21.1-20.8c-14.5-1.6-26.7,9.7-26.7,23.8c0,11.3,7.8,20.7,18.2,23.3v151.7
	c0,1.9,1.6,3.5,3.5,3.5l671.8,0.2l6.1-5.7L711.1,514.5z"/>
<circle fill="#42A1DA" enable-background="new    " cx="42.1" cy="347.6" r="14.1"/>
<path opacity="0.58" fill="#42A1DA" enable-background="new    " d="M1960,668.3v-149c0-2.4-2-4.4-4.4-4.4h-624.2l6.5,5.7l-6.5,6.1
	h612.4c2.4,0,4.4,2,4.4,4.4v137.3h-8.2l13.7,20.4l13.8-20.4H1960z"/>
</svg>
