<?xml version="1.0" encoding="utf-8"?>
<!-- Generator: Adobe Illustrator 18.1.1, SVG Export Plug-In . SVG Version: 6.00 Build 0)  -->
<svg version="1.1" xmlns="http://www.w3.org/2000/svg" xmlns:xlink="http://www.w3.org/1999/xlink" x="0px" y="0px"
	 viewBox="0 0 1280 615.6" enable-background="new 0 0 1280 615.6" xml:space="preserve">
<g id="graygray-light">
</g>
<g id="lightblue-light">
</g>
<g id="grayblue-light">
	<g opacity="9.000000e-02">
		<polygon fill="#3E6896" points="696.7,612.2 697.1,448 464.4,470.7 621.9,611.9 		"/>
		<polygon fill="#B2C3D5" points="285,610 464,470.7 621.3,611.9 312.7,611.1 		"/>
		<polygon fill="#B2C3D5" points="1106.3,293.4 1276.4,237.3 1277.1,166.4 1092.4,109.6 		"/>
		<polygon fill="#2F4E71" points="1003.7,288.3 1092.4,109.6 1106.3,293.4 		"/>
		<polygon fill="#B2C3D5" points="722,376.3 840.4,242.4 777.8,192 		"/>
		<polygon fill="#6586AB" points="722,376.3 1003.7,288.3 840.4,242.4 		"/>
		<polygon fill="#6586AB" points="664.6,304.4 722,376.3 777.8,192 		"/>
		<polygon fill="#3E6896" points="606.7,365.3 722,376.3 664.6,304.4 		"/>
		<polygon fill="#6586AB" points="696.4,448 606.7,365.3 464,470.7 		"/>
		<polygon fill="#8BA4C0" points="1003.7,288.3 837.3,385.2 722,376.3 		"/>
		<polygon fill="#B2C3D5" points="983.6,394.7 1003.7,288.3 837.3,385.2 		"/>
		<polygon fill="#6586AB" points="1106.3,293.4 1003.7,288.3 983.6,394.7 		"/>
		<polygon fill="#8BA4C0" points="1210.9,334.3 1276.7,289.1 1276.9,236.7 1106.3,293.4 		"/>
		<polygon fill="#6586AB" points="1184.1,359.2 1210.9,334.3 1106.3,293.4 		"/>
		<polygon fill="#B2C3D5" points="983.6,394.7 1184.1,359.2 1106.3,293.4 		"/>
		<polygon fill="#2F4E71" points="983.5,457.8 1183,359.2 983.6,394.7 		"/>
		<polygon fill="#6586AB" points="1276,402.1 1183.3,359.2 983.7,457.8 1130.8,613.4 		"/>
		<polygon fill="#3E6896" points="1275.8,613.8 1276.4,402.7 1130.8,613.4 		"/>
		<polygon fill="#B2C3D5" points="983.7,457.8 1130.8,613.4 957,612.9 		"/>
		<polygon fill="#8BA4C0" points="782.4,612.4 957.9,612.9 983.7,457.8 		"/>
		<polygon fill="#2F4E71" points="697.1,448 984.1,457.8 782.4,612.4 696.7,612.2 		"/>
		<polygon fill="#6586AB" points="837.3,385.2 983.7,457.8 696.4,448 		"/>
		<polygon fill="#2F4E71" points="722,376.3 837.3,385.2 696.4,448 606.7,365.3 		"/>
		<polygon fill="#8BA4C0" points="983.6,394.7 983.5,457.8 837,385.2 		"/>
		<polygon fill="#3E6896" points="1183.3,359.2 1210.9,334.3 1276,376.3 1276.4,402.7 		"/>
		<polygon fill="#2F4E71" points="1276.7,289.1 1276,376.3 1210.9,334.3 		"/>
	</g>
	<g opacity="0.53">
		<polygon fill="#3E6896" points="700.7,0.2 701.1,164.4 468.4,141.7 625.9,0.5 		"/>
		<polygon fill="#B2C3D5" points="289,2.4 468,141.7 625.3,0.5 316.7,1.4 		"/>
		<polygon fill="#B2C3D5" points="1110.3,319 1280.4,375.1 1281.1,446 1096.4,502.8 		"/>
		<polygon fill="#2F4E71" points="1007.7,324.1 1096.4,502.8 1110.3,319 		"/>
		<polygon fill="#B2C3D5" points="726,236.1 844.4,370 781.8,420.4 		"/>
		<polygon fill="#6586AB" points="726,236.1 1007.7,324.1 844.4,370 		"/>
		<polygon fill="#6586AB" points="668.6,308 726,236.1 781.8,420.4 		"/>
		<polygon fill="#3E6896" points="610.7,247.1 726,236.1 668.6,308 		"/>
		<polygon fill="#6586AB" points="700.4,164.4 610.7,247.1 468,141.7 		"/>
		<polygon fill="#8BA4C0" points="1007.7,324.1 841.3,227.2 726,236.1 		"/>
		<polygon fill="#B2C3D5" points="987.6,217.7 1007.7,324.1 841.3,227.2 		"/>
		<polygon fill="#6586AB" points="1110.3,319 1007.7,324.1 987.6,217.7 		"/>
		<polygon fill="#8BA4C0" points="1214.9,278.1 1280.7,323.3 1280.9,375.7 1110.3,319 		"/>
		<polygon fill="#6586AB" points="1188.1,253.2 1214.9,278.1 1110.3,319 		"/>
		<polygon fill="#B2C3D5" points="987.6,217.7 1188.1,253.2 1110.3,319 		"/>
		<polygon fill="#2F4E71" points="987.5,154.6 1187,253.2 987.6,217.7 		"/>
		<polygon fill="#6586AB" points="1280,210.3 1187.3,253.2 987.7,154.6 1134.8,-1 		"/>
		<polygon fill="#3E6896" points="1279.8,-1.4 1280.4,209.7 1134.8,-1 		"/>
		<polygon fill="#B2C3D5" points="987.7,154.6 1134.8,-1 961,-0.5 		"/>
		<polygon fill="#8BA4C0" points="786.4,0 961.9,-0.5 987.7,154.6 		"/>
		<polygon fill="#2F4E71" points="701.1,164.4 988.1,154.6 786.4,0 700.7,0.2 		"/>
		<polygon fill="#6586AB" points="841.3,227.2 987.7,154.6 700.4,164.4 		"/>
		<polygon fill="#2F4E71" points="726,236.1 841.3,227.2 700.4,164.4 610.7,247.1 		"/>
		<polygon fill="#8BA4C0" points="987.6,217.7 987.5,154.6 841,227.2 		"/>
		<polygon fill="#3E6896" points="1187.3,253.2 1214.9,278.1 1280,236.1 1280.4,209.7 		"/>
		<polygon fill="#2F4E71" points="1280.7,323.3 1280,236.1 1214.9,278.1 		"/>
	</g>
	<g opacity="9.000000e-02">
		<polygon fill="#3E6896" points="585.4,617.2 585,453 817.7,475.7 660.2,616.9 		"/>
		<polygon fill="#B2C3D5" points="997.1,615 818.1,475.7 660.8,616.9 969.4,616.1 		"/>
		<polygon fill="#B2C3D5" points="175.8,298.4 5.6,242.3 5,171.4 189.7,114.6 		"/>
		<polygon fill="#2F4E71" points="278.3,293.3 189.7,114.6 175.8,298.4 		"/>
		<polygon fill="#B2C3D5" points="560.1,381.3 441.7,247.4 504.3,197 		"/>
		<polygon fill="#6586AB" points="560.1,381.3 278.3,293.3 441.7,247.4 		"/>
		<polygon fill="#6586AB" points="617.5,309.4 560.1,381.3 504.3,197 		"/>
		<polygon fill="#3E6896" points="675.3,370.3 560.1,381.3 617.5,309.4 		"/>
		<polygon fill="#6586AB" points="585.7,453 675.3,370.3 818.1,475.7 		"/>
		<polygon fill="#8BA4C0" points="278.3,293.3 444.8,390.2 560.1,381.3 		"/>
		<polygon fill="#B2C3D5" points="298.5,399.7 278.3,293.3 444.8,390.2 		"/>
		<polygon fill="#6586AB" points="175.8,298.4 278.3,293.3 298.5,399.7 		"/>
		<polygon fill="#8BA4C0" points="71.2,339.3 5.4,294.1 5.2,241.7 175.8,298.4 		"/>
		<polygon fill="#6586AB" points="98,364.2 71.2,339.3 175.8,298.4 		"/>
		<polygon fill="#B2C3D5" points="298.5,399.7 98,364.2 175.8,298.4 		"/>
		<polygon fill="#2F4E71" points="298.6,462.8 99.1,364.2 298.4,399.7 		"/>
		<polygon fill="#6586AB" points="6.1,407.1 98.8,364.2 298.3,462.8 151.3,618.4 		"/>
		<polygon fill="#3E6896" points="6.3,618.8 5.7,407.7 151.3,618.4 		"/>
		<polygon fill="#B2C3D5" points="298.3,462.8 151.3,618.4 325.1,617.9 		"/>
		<polygon fill="#8BA4C0" points="499.7,617.4 324.2,617.9 298.3,462.8 		"/>
		<polygon fill="#2F4E71" points="585,453 298,462.8 499.7,617.4 585.4,617.2 		"/>
		<polygon fill="#6586AB" points="444.8,390.2 298.3,462.8 585.7,453 		"/>
		<polygon fill="#2F4E71" points="560.1,381.3 444.8,390.2 585.7,453 675.3,370.3 		"/>
		<polygon fill="#8BA4C0" points="298.4,399.7 298.6,462.8 445.1,390.2 		"/>
		<polygon fill="#3E6896" points="98.8,364.2 71.2,339.3 6,381.3 5.7,407.7 		"/>
		<polygon fill="#2F4E71" points="5.4,294.1 6,381.3 71.2,339.3 		"/>
	</g>
	<g opacity="9.000000e-02">
		<polygon fill="#3E6896" points="581.4,-0.8 581,163.4 813.7,140.7 656.2,-0.5 		"/>
		<polygon fill="#B2C3D5" points="993.1,1.4 814.1,140.7 656.8,-0.5 965.4,0.4 		"/>
		<polygon fill="#B2C3D5" points="171.8,318 1.6,374.1 1,445 185.7,501.8 		"/>
		<polygon fill="#2F4E71" points="274.3,323.1 185.7,501.8 171.8,318 		"/>
		<polygon fill="#B2C3D5" points="556.1,235.1 437.7,369 500.3,419.4 		"/>
		<polygon fill="#6586AB" points="556.1,235.1 274.3,323.1 437.7,369 		"/>
		<polygon fill="#6586AB" points="613.5,307 556.1,235.1 500.3,419.4 		"/>
		<polygon fill="#3E6896" points="671.3,246.1 556.1,235.1 613.5,307 		"/>
		<polygon fill="#6586AB" points="581.7,163.4 671.3,246.1 814.1,140.7 		"/>
		<polygon fill="#8BA4C0" points="274.3,323.1 440.8,226.2 556.1,235.1 		"/>
		<polygon fill="#B2C3D5" points="294.5,216.7 274.3,323.1 440.8,226.2 		"/>
		<polygon fill="#6586AB" points="171.8,318 274.3,323.1 294.5,216.7 		"/>
		<polygon fill="#8BA4C0" points="67.2,277.1 1.4,322.3 1.2,374.7 171.8,318 		"/>
		<polygon fill="#6586AB" points="94,252.2 67.2,277.1 171.8,318 		"/>
		<polygon fill="#B2C3D5" points="294.5,216.7 94,252.2 171.8,318 		"/>
		<polygon fill="#2F4E71" points="294.6,153.6 95.1,252.2 294.4,216.7 		"/>
		<polygon fill="#6586AB" points="2.1,209.3 94.8,252.2 294.3,153.6 147.3,-2 		"/>
		<polygon fill="#3E6896" points="2.3,-2.4 1.7,208.7 147.3,-2 		"/>
		<polygon fill="#B2C3D5" points="294.3,153.6 147.3,-2 321.1,-1.5 		"/>
		<polygon fill="#8BA4C0" points="495.7,-1 320.2,-1.5 294.3,153.6 		"/>
		<polygon fill="#2F4E71" points="581,163.4 294,153.6 495.7,-1 581.4,-0.8 		"/>
		<polygon fill="#6586AB" points="440.8,226.2 294.3,153.6 581.7,163.4 		"/>
		<polygon fill="#2F4E71" points="556.1,235.1 440.8,226.2 581.7,163.4 671.3,246.1 		"/>
		<polygon fill="#8BA4C0" points="294.4,216.7 294.6,153.6 441.1,226.2 		"/>
		<polygon fill="#3E6896" points="94.8,252.2 67.2,277.1 2,235.1 1.7,208.7 		"/>
		<polygon fill="#2F4E71" points="1.4,322.3 2,235.1 67.2,277.1 		"/>
	</g>
</g>
<g id="hotred-light">
</g>
<g id="multi" opacity="0.5">
</g>
<g id="graygray">
</g>
<g id="lightblue">
</g>
<g id="hotred">
</g>
<g id="grayblue">
</g>
<g id="color">
</g>
</svg>
