<?xml version="1.0" encoding="utf-8"?>
<!-- Generator: Adobe Illustrator 18.1.1, SVG Export Plug-In . SVG Version: 6.00 Build 0)  -->
<svg version="1.1" xmlns="http://www.w3.org/2000/svg" xmlns:xlink="http://www.w3.org/1999/xlink" x="0px" y="0px"
	 viewBox="0 0 1280 615.6" enable-background="new 0 0 1280 615.6" xml:space="preserve">
<g id="graygray-light">
</g>
<g id="lightblue-light">
</g>
<g id="grayblue-light">
</g>
<g id="hotred-light">
	<g>
		<g opacity="0.41">
			<polygon fill="#841D53" points="701.7,615.2 702.1,451 469.4,473.7 626.9,614.9 			"/>
			<polygon fill="#C0528C" points="307.6,600.8 469,473.7 626.3,614.9 317.7,614.1 			"/>
			<polygon fill="#B0276F" points="1282.1,169.4 1097.4,112.6 1282.4,59.3 			"/>
			<polygon fill="#DFA9C5" points="1111.3,296.4 1281.4,240.3 1282.1,169.4 1097.4,112.6 			"/>
			<polygon fill="#B0276F" points="1008.7,291.3 1097.4,112.6 1111.3,296.4 			"/>
			<polygon fill="#DFA9C5" points="752.7,284.5 1008.7,291.3 766.5,223.2 			"/>
			<polygon fill="#C0528C" points="669.6,307.4 752.7,284.5 766.5,223.2 			"/>
			<polygon fill="#B0276F" points="735.6,350.6 752.7,284.5 669.6,307.4 			"/>
			<polygon fill="#841D53" points="611.7,368.3 735.6,350.6 669.6,307.4 			"/>
			<polygon fill="#C0528C" points="701.4,451 611.7,368.3 469,473.7 			"/>
			<polygon fill="#C0528C" points="842.3,388.2 752.7,284.5 735.6,350.6 			"/>
			<polygon fill="#D07DA9" points="1008.7,291.3 842.3,388.2 752.7,284.5 			"/>
			<polygon fill="#DFA9C5" points="988.6,397.7 1008.7,291.3 842.3,388.2 			"/>
			<polygon fill="#C0528C" points="1111.3,296.4 1008.7,291.3 988.6,397.7 			"/>
			<polygon fill="#D07DA9" points="1215.9,337.3 1281.7,292.1 1281.9,239.7 1111.3,296.4 			"/>
			<polygon fill="#C0528C" points="1189.1,362.2 1215.9,337.3 1111.3,296.4 			"/>
			<polygon fill="#DFA9C5" points="988.6,397.7 1189.1,362.2 1111.3,296.4 			"/>
			<polygon fill="#B0276F" points="988.5,460.8 1188,362.2 988.6,397.7 			"/>
			<polygon fill="#C0528C" points="1281,405.1 1188.3,362.2 988.7,460.8 1135.8,616.4 			"/>
			<polygon fill="#841D53" points="1280.8,616.8 1281.4,405.7 1135.8,616.4 			"/>
			<polygon fill="#DFA9C5" points="988.7,460.8 1135.8,616.4 962,615.9 			"/>
			<polygon fill="#D07DA9" points="787.4,615.4 962.9,615.9 988.7,460.8 			"/>
			<polygon fill="#B0276F" points="702.1,451 989.1,460.8 787.4,615.4 701.7,615.2 			"/>
			<polygon fill="#C0528C" points="842.3,388.2 988.7,460.8 701.4,451 			"/>
			<polygon fill="#B0276F" points="735.6,350.6 842.3,388.2 701.4,451 611.7,368.3 			"/>
			<polygon fill="#D07DA9" points="988.6,397.7 988.5,460.8 842,388.2 			"/>
			<polygon fill="#841D53" points="1188.3,362.2 1215.9,337.3 1281,379.3 1281.4,405.7 			"/>
			<polygon fill="#B0276F" points="1281.7,292.1 1281,379.3 1215.9,337.3 			"/>
		</g>
		<g opacity="0.18">
			<polygon fill="#841D53" points="581.3,615.2 580.8,451 813.6,473.7 656.1,614.9 			"/>
			<polygon fill="#C0528C" points="975.4,600.8 814,473.7 656.7,614.9 965.3,614.1 			"/>
			<polygon fill="#B0276F" points="0.9,169.4 185.5,112.6 0.6,59.3 			"/>
			<polygon fill="#DFA9C5" points="171.7,296.4 1.5,240.3 0.9,169.4 185.5,112.6 			"/>
			<polygon fill="#B0276F" points="274.2,291.3 185.5,112.6 171.7,296.4 			"/>
			<polygon fill="#DFA9C5" points="530.2,284.5 274.2,291.3 516.5,223.2 			"/>
			<polygon fill="#C0528C" points="613.4,307.4 530.2,284.5 516.5,223.2 			"/>
			<polygon fill="#B0276F" points="547.4,350.6 530.2,284.5 613.4,307.4 			"/>
			<polygon fill="#841D53" points="671.2,368.3 547.4,350.6 613.4,307.4 			"/>
			<polygon fill="#C0528C" points="581.6,451 671.2,368.3 814,473.7 			"/>
			<polygon fill="#C0528C" points="440.7,388.2 530.2,284.5 547.4,350.6 			"/>
			<polygon fill="#D07DA9" points="274.2,291.3 440.7,388.2 530.2,284.5 			"/>
			<polygon fill="#DFA9C5" points="294.4,397.7 274.2,291.3 440.7,388.2 			"/>
			<polygon fill="#C0528C" points="171.7,296.4 274.2,291.3 294.4,397.7 			"/>
			<polygon fill="#D07DA9" points="67.1,337.3 1.2,292.1 1.1,239.7 171.7,296.4 			"/>
			<polygon fill="#C0528C" points="93.9,362.2 67.1,337.3 171.7,296.4 			"/>
			<polygon fill="#DFA9C5" points="294.4,397.7 93.9,362.2 171.7,296.4 			"/>
			<polygon fill="#B0276F" points="294.5,460.8 95,362.2 294.3,397.7 			"/>
			<polygon fill="#C0528C" points="2,405.1 94.7,362.2 294.2,460.8 147.2,616.4 			"/>
			<polygon fill="#841D53" points="2.2,616.8 1.6,405.7 147.2,616.4 			"/>
			<polygon fill="#DFA9C5" points="294.2,460.8 147.2,616.4 321,615.9 			"/>
			<polygon fill="#D07DA9" points="495.6,615.4 320.1,615.9 294.2,460.8 			"/>
			<polygon fill="#B0276F" points="580.8,451 293.8,460.8 495.6,615.4 581.3,615.2 			"/>
			<polygon fill="#C0528C" points="440.7,388.2 294.2,460.8 581.6,451 			"/>
			<polygon fill="#B0276F" points="547.4,350.6 440.7,388.2 581.6,451 671.2,368.3 			"/>
			<polygon fill="#D07DA9" points="294.3,397.7 294.5,460.8 441,388.2 			"/>
			<polygon fill="#841D53" points="94.7,362.2 67.1,337.3 1.9,379.3 1.6,405.7 			"/>
			<polygon fill="#B0276F" points="1.2,292.1 1.9,379.3 67.1,337.3 			"/>
		</g>
		<g opacity="8.000000e-02">
			<polygon fill="#841D53" points="581.3,-1 580.8,163.2 813.6,140.4 656.1,-0.8 			"/>
			<polygon fill="#C0528C" points="975.4,13.3 814,140.4 656.7,-0.8 965.3,0.1 			"/>
			<polygon fill="#B0276F" points="0.9,444.7 185.5,501.6 0.6,554.8 			"/>
			<polygon fill="#DFA9C5" points="171.7,317.8 1.5,373.8 0.9,444.7 185.5,501.6 			"/>
			<polygon fill="#B0276F" points="274.2,322.9 185.5,501.6 171.7,317.8 			"/>
			<polygon fill="#DFA9C5" points="530.2,329.6 274.2,322.9 516.5,390.9 			"/>
			<polygon fill="#C0528C" points="613.4,306.8 530.2,329.6 516.5,390.9 			"/>
			<polygon fill="#B0276F" points="547.4,263.5 530.2,329.6 613.4,306.8 			"/>
			<polygon fill="#841D53" points="671.2,245.8 547.4,263.5 613.4,306.8 			"/>
			<polygon fill="#C0528C" points="581.6,163.2 671.2,245.8 814,140.4 			"/>
			<polygon fill="#C0528C" points="440.7,225.9 530.2,329.6 547.4,263.5 			"/>
			<polygon fill="#D07DA9" points="274.2,322.9 440.7,225.9 530.2,329.6 			"/>
			<polygon fill="#DFA9C5" points="294.4,216.5 274.2,322.9 440.7,225.9 			"/>
			<polygon fill="#C0528C" points="171.7,317.8 274.2,322.9 294.4,216.5 			"/>
			<polygon fill="#D07DA9" points="67.1,276.9 1.2,322.1 1.1,374.4 171.7,317.8 			"/>
			<polygon fill="#C0528C" points="93.9,252 67.1,276.9 171.7,317.8 			"/>
			<polygon fill="#DFA9C5" points="294.4,216.5 93.9,252 171.7,317.8 			"/>
			<polygon fill="#B0276F" points="294.5,153.3 95,252 294.3,216.5 			"/>
			<polygon fill="#C0528C" points="2,209 94.7,252 294.2,153.3 147.2,-2.3 			"/>
			<polygon fill="#841D53" points="2.2,-2.7 1.6,208.4 147.2,-2.3 			"/>
			<polygon fill="#DFA9C5" points="294.2,153.3 147.2,-2.3 321,-1.7 			"/>
			<polygon fill="#D07DA9" points="495.6,-1.3 320.1,-1.8 294.2,153.3 			"/>
			<polygon fill="#B0276F" points="580.8,163.2 293.8,153.3 495.6,-1.3 581.3,-1 			"/>
			<polygon fill="#C0528C" points="440.7,225.9 294.2,153.3 581.6,163.2 			"/>
			<polygon fill="#B0276F" points="547.4,263.5 440.7,225.9 581.6,163.2 671.2,245.8 			"/>
			<polygon fill="#D07DA9" points="294.3,216.5 294.5,153.3 441,225.9 			"/>
			<polygon fill="#841D53" points="94.7,252 67.1,276.9 1.9,234.9 1.6,208.4 			"/>
			<polygon fill="#B0276F" points="1.2,322.1 1.9,234.9 67.1,276.9 			"/>
		</g>
		<g opacity="0.13">
			<polygon fill="#841D53" points="698.7,1 699.1,165.2 466.4,142.4 623.9,1.2 			"/>
			<polygon fill="#C0528C" points="304.6,15.3 466,142.4 623.3,1.2 314.7,2.1 			"/>
			<polygon fill="#B0276F" points="1279.1,446.7 1094.4,503.6 1279.4,556.8 			"/>
			<polygon fill="#DFA9C5" points="1108.3,319.8 1278.4,375.8 1279.1,446.7 1094.4,503.6 			"/>
			<polygon fill="#B0276F" points="1005.7,324.9 1094.4,503.6 1108.3,319.8 			"/>
			<polygon fill="#DFA9C5" points="749.7,331.6 1005.7,324.9 763.5,392.9 			"/>
			<polygon fill="#C0528C" points="666.6,308.8 749.7,331.6 763.5,392.9 			"/>
			<polygon fill="#B0276F" points="732.6,265.5 749.7,331.6 666.6,308.8 			"/>
			<polygon fill="#841D53" points="608.7,247.8 732.6,265.5 666.6,308.8 			"/>
			<polygon fill="#C0528C" points="698.4,165.2 608.7,247.8 466,142.4 			"/>
			<polygon fill="#C0528C" points="839.3,227.9 749.7,331.6 732.6,265.5 			"/>
			<polygon fill="#D07DA9" points="1005.7,324.9 839.3,227.9 749.7,331.6 			"/>
			<polygon fill="#DFA9C5" points="985.6,218.5 1005.7,324.9 839.3,227.9 			"/>
			<polygon fill="#C0528C" points="1108.3,319.8 1005.7,324.9 985.6,218.5 			"/>
			<polygon fill="#D07DA9" points="1212.9,278.9 1278.7,324.1 1278.9,376.4 1108.3,319.8 			"/>
			<polygon fill="#C0528C" points="1186.1,254 1212.9,278.9 1108.3,319.8 			"/>
			<polygon fill="#DFA9C5" points="985.6,218.5 1186.1,254 1108.3,319.8 			"/>
			<polygon fill="#B0276F" points="985.5,155.3 1185,254 985.6,218.5 			"/>
			<polygon fill="#C0528C" points="1278,211 1185.3,254 985.7,155.3 1132.8,-0.3 			"/>
			<polygon fill="#841D53" points="1277.8,-0.7 1278.4,210.4 1132.8,-0.3 			"/>
			<polygon fill="#DFA9C5" points="985.7,155.3 1132.8,-0.3 959,0.3 			"/>
			<polygon fill="#D07DA9" points="784.4,0.7 959.9,0.2 985.7,155.3 			"/>
			<polygon fill="#B0276F" points="699.1,165.2 986.1,155.3 784.4,0.7 698.7,1 			"/>
			<polygon fill="#C0528C" points="839.3,227.9 985.7,155.3 698.4,165.2 			"/>
			<polygon fill="#B0276F" points="732.6,265.5 839.3,227.9 698.4,165.2 608.7,247.8 			"/>
			<polygon fill="#D07DA9" points="985.6,218.5 985.5,155.3 839,227.9 			"/>
			<polygon fill="#841D53" points="1185.3,254 1212.9,278.9 1278,236.9 1278.4,210.4 			"/>
			<polygon fill="#B0276F" points="1278.7,324.1 1278,236.9 1212.9,278.9 			"/>
		</g>
	</g>
</g>
<g id="multi" opacity="0.5">
</g>
<g id="graygray">
</g>
<g id="lightblue">
</g>
<g id="hotred">
</g>
<g id="grayblue">
</g>
<g id="color">
</g>
</svg>
