<?xml version="1.0" encoding="utf-8"?>
<!-- Generator: Adobe Illustrator 18.1.1, SVG Export Plug-In . SVG Version: 6.00 Build 0)  -->
<svg version="1.1" xmlns="http://www.w3.org/2000/svg" xmlns:xlink="http://www.w3.org/1999/xlink" x="0px" y="0px"
	 viewBox="0 0 1280 615.6" enable-background="new 0 0 1280 615.6" xml:space="preserve">
<g id="graygray-light">
	<g opacity="0.59">
		<polygon fill="#90A4B0" points="700.7,-1.8 701.1,162.4 468.4,139.6 625.9,-1.6 		"/>
		<polygon fill="#BDCCD4" points="306.6,12.5 468,139.6 625.3,-1.6 316.7,-0.7 		"/>
		<polygon fill="#BDCCD4" points="1281.1,443.9 1096.4,500.8 1281.4,554 		"/>
		<polygon fill="#D7E0E5" points="1110.3,317 1280.4,373 1281.1,443.9 1096.4,500.8 		"/>
		<polygon fill="#BDCCD4" points="1007.7,322.1 1096.4,500.8 1110.3,317 		"/>
		<polygon fill="#D7E0E5" points="751.7,328.8 1007.7,322.1 765.5,390.1 		"/>
		<polygon fill="#EAEFF1" points="668.6,306 751.7,328.8 765.5,390.1 		"/>
		<polygon fill="#BDCCD4" points="734.6,262.7 751.7,328.8 668.6,306 		"/>
		<polygon fill="#90A4B0" points="610.7,245 734.6,262.7 668.6,306 		"/>
		<polygon fill="#D7E0E5" points="700.4,162.4 610.7,245 468,139.6 		"/>
		<polygon fill="#EAEFF1" points="841.3,225.1 751.7,328.8 734.6,262.7 		"/>
		<polygon fill="#D7E0E5" points="1007.7,322.1 841.3,225.1 751.7,328.8 		"/>
		<polygon fill="#D7E0E5" points="987.6,215.7 1007.7,322.1 841.3,225.1 		"/>
		<polygon fill="#EAEFF1" points="1110.3,317 1007.7,322.1 987.6,215.7 		"/>
		<polygon fill="#D7E0E5" points="1214.9,276.1 1280.7,321.3 1280.9,373.6 1110.3,317 		"/>
		<polygon fill="#BDCCD4" points="1188.1,251.2 1214.9,276.1 1110.3,317 		"/>
		<polygon fill="#D7E0E5" points="987.6,215.7 1188.1,251.2 1110.3,317 		"/>
		<polygon fill="#BDCCD4" points="987.5,152.5 1187,251.2 987.6,215.7 		"/>
		<polygon fill="#EAEFF1" points="1280,208.2 1187.3,251.2 987.7,152.5 1134.8,-3.1 		"/>
		<polygon fill="#90A4B0" points="1279.8,-3.5 1280.4,207.6 1134.8,-3.1 		"/>
		<polygon fill="#D7E0E5" points="987.7,152.5 1134.8,-3.1 961,-2.5 		"/>
		<polygon fill="#D7E0E5" points="786.4,-2.1 961.9,-2.6 987.7,152.5 		"/>
		<polygon fill="#BDCCD4" points="701.1,162.4 988.1,152.5 786.4,-2.1 700.7,-1.8 		"/>
		<polygon fill="#EAEFF1" points="841.3,225.1 987.7,152.5 700.4,162.4 		"/>
		<polygon fill="#BDCCD4" points="734.6,262.7 841.3,225.1 700.4,162.4 610.7,245 		"/>
		<polygon fill="#D7E0E5" points="987.6,215.7 987.5,152.5 841,225.1 		"/>
		<polygon fill="#90A4B0" points="1187.3,251.2 1214.9,276.1 1280,234.1 1280.4,207.6 		"/>
		<polygon fill="#BDCCD4" points="1280.7,321.3 1280,234.1 1214.9,276.1 		"/>
	</g>
	<g opacity="0.13">
		<polygon fill="#90A4B0" points="580.3,1.2 579.8,165.4 812.6,142.6 655.1,1.4 		"/>
		<polygon fill="#BDCCD4" points="974.4,15.5 813,142.6 655.7,1.4 964.3,2.3 		"/>
		<polygon fill="#BDCCD4" points="-0.1,446.9 184.5,503.8 -0.4,557 		"/>
		<polygon fill="#D7E0E5" points="170.7,320 0.5,376 -0.1,446.9 184.5,503.8 		"/>
		<polygon fill="#BDCCD4" points="273.2,325.1 184.5,503.8 170.7,320 		"/>
		<polygon fill="#D7E0E5" points="529.2,331.8 273.2,325.1 515.5,393.1 		"/>
		<polygon fill="#EAEFF1" points="612.4,309 529.2,331.8 515.5,393.1 		"/>
		<polygon fill="#BDCCD4" points="546.4,265.7 529.2,331.8 612.4,309 		"/>
		<polygon fill="#90A4B0" points="670.2,248 546.4,265.7 612.4,309 		"/>
		<polygon fill="#D7E0E5" points="580.6,165.4 670.2,248 813,142.6 		"/>
		<polygon fill="#EAEFF1" points="439.7,228.1 529.2,331.8 546.4,265.7 		"/>
		<polygon fill="#D7E0E5" points="273.2,325.1 439.7,228.1 529.2,331.8 		"/>
		<polygon fill="#D7E0E5" points="293.4,218.7 273.2,325.1 439.7,228.1 		"/>
		<polygon fill="#EAEFF1" points="170.7,320 273.2,325.1 293.4,218.7 		"/>
		<polygon fill="#D7E0E5" points="66.1,279.1 0.2,324.3 0.1,376.6 170.7,320 		"/>
		<polygon fill="#BDCCD4" points="92.9,254.2 66.1,279.1 170.7,320 		"/>
		<polygon fill="#D7E0E5" points="293.4,218.7 92.9,254.2 170.7,320 		"/>
		<polygon fill="#BDCCD4" points="293.5,155.5 94,254.2 293.3,218.7 		"/>
		<polygon fill="#EAEFF1" points="1,211.2 93.7,254.2 293.2,155.5 146.2,-0.1 		"/>
		<polygon fill="#90A4B0" points="1.2,-0.5 0.6,210.6 146.2,-0.1 		"/>
		<polygon fill="#D7E0E5" points="293.2,155.5 146.2,-0.1 320,0.5 		"/>
		<polygon fill="#D7E0E5" points="494.6,0.9 319.1,0.4 293.2,155.5 		"/>
		<polygon fill="#BDCCD4" points="579.8,165.4 292.8,155.5 494.6,0.9 580.3,1.2 		"/>
		<polygon fill="#EAEFF1" points="439.7,228.1 293.2,155.5 580.6,165.4 		"/>
		<polygon fill="#BDCCD4" points="546.4,265.7 439.7,228.1 580.6,165.4 670.2,248 		"/>
		<polygon fill="#D7E0E5" points="293.3,218.7 293.5,155.5 440,228.1 		"/>
		<polygon fill="#90A4B0" points="93.7,254.2 66.1,279.1 0.9,237.1 0.6,210.6 		"/>
		<polygon fill="#BDCCD4" points="0.2,324.3 0.9,237.1 66.1,279.1 		"/>
	</g>
	<g opacity="0.13">
		<polygon fill="#90A4B0" points="700.7,614.4 701.1,450.2 468.4,472.9 625.9,614.1 		"/>
		<polygon fill="#BDCCD4" points="306.6,600 468,472.9 625.3,614.1 316.7,613.3 		"/>
		<polygon fill="#BDCCD4" points="1281.1,168.6 1096.4,111.8 1281.4,58.5 		"/>
		<polygon fill="#D7E0E5" points="1110.3,295.6 1280.4,239.5 1281.1,168.6 1096.4,111.8 		"/>
		<polygon fill="#BDCCD4" points="1007.7,290.5 1096.4,111.8 1110.3,295.6 		"/>
		<polygon fill="#D7E0E5" points="751.7,283.7 1007.7,290.5 765.5,222.4 		"/>
		<polygon fill="#EAEFF1" points="668.6,306.6 751.7,283.7 765.5,222.4 		"/>
		<polygon fill="#BDCCD4" points="734.6,349.8 751.7,283.7 668.6,306.6 		"/>
		<polygon fill="#90A4B0" points="610.7,367.5 734.6,349.8 668.6,306.6 		"/>
		<polygon fill="#D7E0E5" points="700.4,450.2 610.7,367.5 468,472.9 		"/>
		<polygon fill="#EAEFF1" points="841.3,387.4 751.7,283.7 734.6,349.8 		"/>
		<polygon fill="#D7E0E5" points="1007.7,290.5 841.3,387.4 751.7,283.7 		"/>
		<polygon fill="#D7E0E5" points="987.6,396.9 1007.7,290.5 841.3,387.4 		"/>
		<polygon fill="#EAEFF1" points="1110.3,295.6 1007.7,290.5 987.6,396.9 		"/>
		<polygon fill="#D7E0E5" points="1214.9,336.5 1280.7,291.3 1280.9,238.9 1110.3,295.6 		"/>
		<polygon fill="#BDCCD4" points="1188.1,361.4 1214.9,336.5 1110.3,295.6 		"/>
		<polygon fill="#D7E0E5" points="987.6,396.9 1188.1,361.4 1110.3,295.6 		"/>
		<polygon fill="#BDCCD4" points="987.5,460 1187,361.4 987.6,396.9 		"/>
		<polygon fill="#EAEFF1" points="1280,404.3 1187.3,361.4 987.7,460 1134.8,615.6 		"/>
		<polygon fill="#90A4B0" points="1279.8,616 1280.4,404.9 1134.8,615.6 		"/>
		<polygon fill="#D7E0E5" points="987.7,460 1134.8,615.6 961,615.1 		"/>
		<polygon fill="#D7E0E5" points="786.4,614.6 961.9,615.1 987.7,460 		"/>
		<polygon fill="#BDCCD4" points="701.1,450.2 988.1,460 786.4,614.6 700.7,614.4 		"/>
		<polygon fill="#EAEFF1" points="841.3,387.4 987.7,460 700.4,450.2 		"/>
		<polygon fill="#BDCCD4" points="734.6,349.8 841.3,387.4 700.4,450.2 610.7,367.5 		"/>
		<polygon fill="#D7E0E5" points="987.6,396.9 987.5,460 841,387.4 		"/>
		<polygon fill="#90A4B0" points="1187.3,361.4 1214.9,336.5 1280,378.5 1280.4,404.9 		"/>
		<polygon fill="#BDCCD4" points="1280.7,291.3 1280,378.5 1214.9,336.5 		"/>
	</g>
	<g opacity="0.13">
		<polygon fill="#90A4B0" points="580.3,614.4 579.8,450.2 812.6,472.9 655.1,614.1 		"/>
		<polygon fill="#BDCCD4" points="974.4,600 813,472.9 655.7,614.1 964.3,613.3 		"/>
		<polygon fill="#BDCCD4" points="-0.1,168.6 184.5,111.8 -0.4,58.5 		"/>
		<polygon fill="#D7E0E5" points="170.7,295.6 0.5,239.5 -0.1,168.6 184.5,111.8 		"/>
		<polygon fill="#BDCCD4" points="273.2,290.5 184.5,111.8 170.7,295.6 		"/>
		<polygon fill="#D7E0E5" points="529.2,283.7 273.2,290.5 515.5,222.4 		"/>
		<polygon fill="#EAEFF1" points="612.4,306.6 529.2,283.7 515.5,222.4 		"/>
		<polygon fill="#BDCCD4" points="546.4,349.8 529.2,283.7 612.4,306.6 		"/>
		<polygon fill="#90A4B0" points="670.2,367.5 546.4,349.8 612.4,306.6 		"/>
		<polygon fill="#D7E0E5" points="580.6,450.2 670.2,367.5 813,472.9 		"/>
		<polygon fill="#EAEFF1" points="439.7,387.4 529.2,283.7 546.4,349.8 		"/>
		<polygon fill="#D7E0E5" points="273.2,290.5 439.7,387.4 529.2,283.7 		"/>
		<polygon fill="#D7E0E5" points="293.4,396.9 273.2,290.5 439.7,387.4 		"/>
		<polygon fill="#EAEFF1" points="170.7,295.6 273.2,290.5 293.4,396.9 		"/>
		<polygon fill="#D7E0E5" points="66.1,336.5 0.2,291.3 0.1,238.9 170.7,295.6 		"/>
		<polygon fill="#BDCCD4" points="92.9,361.4 66.1,336.5 170.7,295.6 		"/>
		<polygon fill="#D7E0E5" points="293.4,396.9 92.9,361.4 170.7,295.6 		"/>
		<polygon fill="#BDCCD4" points="293.5,460 94,361.4 293.3,396.9 		"/>
		<polygon fill="#EAEFF1" points="1,404.3 93.7,361.4 293.2,460 146.2,615.6 		"/>
		<polygon fill="#90A4B0" points="1.2,616 0.6,404.9 146.2,615.6 		"/>
		<polygon fill="#D7E0E5" points="293.2,460 146.2,615.6 320,615.1 		"/>
		<polygon fill="#D7E0E5" points="494.6,614.6 319.1,615.1 293.2,460 		"/>
		<polygon fill="#BDCCD4" points="579.8,450.2 292.8,460 494.6,614.6 580.3,614.4 		"/>
		<polygon fill="#EAEFF1" points="439.7,387.4 293.2,460 580.6,450.2 		"/>
		<polygon fill="#BDCCD4" points="546.4,349.8 439.7,387.4 580.6,450.2 670.2,367.5 		"/>
		<polygon fill="#D7E0E5" points="293.3,396.9 293.5,460 440,387.4 		"/>
		<polygon fill="#90A4B0" points="93.7,361.4 66.1,336.5 0.9,378.5 0.6,404.9 		"/>
		<polygon fill="#BDCCD4" points="0.2,291.3 0.9,378.5 66.1,336.5 		"/>
	</g>
</g>
<g id="lightblue-light">
</g>
<g id="grayblue-light">
</g>
<g id="hotred-light">
</g>
<g id="multi" opacity="0.5">
</g>
<g id="graygray">
</g>
<g id="lightblue">
</g>
<g id="hotred">
</g>
<g id="grayblue">
</g>
<g id="color">
</g>
</svg>
