<?xml version="1.0" encoding="utf-8"?>
<!-- Generator: Adobe Illustrator 18.1.1, SVG Export Plug-In . SVG Version: 6.00 Build 0)  -->
<svg version="1.1" id="Layer_1" xmlns="http://www.w3.org/2000/svg" xmlns:xlink="http://www.w3.org/1999/xlink" x="0px" y="0px"
	 viewBox="0 0 2000 1000" enable-background="new 0 0 2000 1000" xml:space="preserve">
<g id="Layer_6" opacity="0.9">
	<g opacity="0.21">
		<polygon fill="#3E6896" points="1317.8,397.3 1711.6,174.9 1573,474.1 		"/>
		<polygon fill="#2F4E71" points="2000.2,270 1711.6,174.9 2000.6,85.7 		"/>
	</g>
	<g opacity="0.65">
		<polygon fill="#0E5E8D" points="906.3,1018 905.6,743.1 1269.3,781.1 1023.2,1017.5 		"/>
		<polygon fill="#68B4E1" points="1522.1,993.9 1269.9,781.1 1024.2,1017.5 1506.3,1016.2 		"/>
		<polygon fill="#42A1DA" points="-0.5,271.7 287.9,176.6 -1,87.4 		"/>
		<polygon fill="#C2E1F3" points="266.3,484.3 0.4,390.4 -0.5,271.7 287.9,176.6 		"/>
		<polygon fill="#42A1DA" points="426.5,475.8 287.9,176.6 266.3,484.3 		"/>
		<polygon fill="#C2E1F3" points="826.5,464.4 426.5,475.8 805.1,361.8 		"/>
		<polygon fill="#68B4E1" points="956.5,502.7 826.5,464.4 805.1,361.8 		"/>
		<polygon fill="#42A1DA" points="853.4,575 826.5,464.4 956.5,502.7 		"/>
		<polygon fill="#0E5E8D" points="1046.8,604.7 853.4,575 956.5,502.7 		"/>
		<polygon fill="#C2E1F3" points="906.8,743.1 1046.8,604.7 1269.9,781.1 		"/>
		<polygon fill="#68B4E1" points="686.7,638 826.5,464.4 853.4,575 		"/>
		<polygon fill="#8EC7E9" points="426.5,475.8 686.7,638 826.5,464.4 		"/>
		<polygon fill="#C2E1F3" points="458.1,653.9 426.5,475.8 686.7,638 		"/>
		<polygon fill="#68B4E1" points="266.3,484.3 426.5,475.8 458.1,653.9 		"/>
		<polygon fill="#8EC7E9" points="102.9,552.8 -0.1,477.1 -0.2,389.4 266.3,484.3 		"/>
		<polygon fill="#68B4E1" points="144.8,594.5 102.9,552.8 266.3,484.3 		"/>
		<polygon fill="#C2E1F3" points="458.1,653.9 144.8,594.5 266.3,484.3 		"/>
		<polygon fill="#42A1DA" points="458.2,759.5 146.5,594.5 457.9,653.9 		"/>
		<polygon fill="#68B4E1" points="-3,665.3 146,594.5 457.8,759.5 228.1,1020 		"/>
		<polygon fill="#0E5E8D" points="-3,1020.7 0.6,667.3 228.1,1020 		"/>
		<polygon fill="#C2E1F3" points="457.8,759.5 228.1,1020 499.6,1019.2 		"/>
		<polygon fill="#8EC7E9" points="772.4,1018.3 498.2,1019.2 457.8,759.5 		"/>
		<polygon fill="#42A1DA" points="905.6,743.1 457.1,759.5 772.4,1018.3 906.3,1018 		"/>
		<polygon fill="#68B4E1" points="686.7,638 457.8,759.5 906.8,743.1 		"/>
		<polygon fill="#42A1DA" points="853.4,575 686.7,638 906.8,743.1 1046.8,604.7 		"/>
		<polygon fill="#8EC7E9" points="457.9,653.9 458.2,759.5 687.1,638 		"/>
		<polygon fill="#0E5E8D" points="146,594.5 102.9,552.8 1,623.1 0.6,667.3 		"/>
		<polygon fill="#42A1DA" points="-0.1,477.1 1,623.1 102.9,552.8 		"/>
	</g>
	<g opacity="0.65">
		<polygon fill="#3E6896" points="1093.3,1016.3 1093.9,741.4 730.3,779.4 976.4,1015.8 		"/>
		<polygon fill="#B2C3D5" points="450,1012.7 729.7,779.4 975.5,1015.8 493.3,1014.5 		"/>
		<polygon fill="#B2C3D5" points="1733.3,482.6 1999.1,388.7 2000.2,270 1711.6,174.9 		"/>
		<polygon fill="#2F4E71" points="1573,474.1 1711.6,174.9 1733.3,482.6 		"/>
		<polygon fill="#B2C3D5" points="1132.8,621.4 1317.8,397.3 1220,312.9 		"/>
		<polygon fill="#6586AB" points="1132.8,621.4 1573,474.1 1317.8,397.3 		"/>
		<polygon fill="#6586AB" points="1043.1,501 1132.8,621.4 1220,312.9 		"/>
		<polygon fill="#3E6896" points="952.7,603 1132.8,621.4 1043.1,501 		"/>
		<polygon fill="#6586AB" points="1092.8,741.4 952.7,603 729.7,779.4 		"/>
		<polygon fill="#8BA4C0" points="1573,474.1 1313,636.3 1132.8,621.4 		"/>
		<polygon fill="#B2C3D5" points="1541.6,652.2 1573,474.1 1313,636.3 		"/>
		<polygon fill="#6586AB" points="1733.3,482.6 1573,474.1 1541.6,652.2 		"/>
		<polygon fill="#8BA4C0" points="1896.7,551.1 1999.5,475.4 1999.8,387.7 1733.3,482.6 		"/>
		<polygon fill="#6586AB" points="1854.8,592.8 1896.7,551.1 1733.3,482.6 		"/>
		<polygon fill="#B2C3D5" points="1541.6,652.2 1854.8,592.8 1733.3,482.6 		"/>
		<polygon fill="#2F4E71" points="1541.4,757.9 1853.1,592.8 1541.6,652.2 		"/>
		<polygon fill="#6586AB" points="1998.4,664.6 1853.6,592.8 1541.7,757.9 1771.6,1018.3 		"/>
		<polygon fill="#3E6896" points="2002,1018.3 1999.1,665.6 1771.6,1018.3 		"/>
		<polygon fill="#B2C3D5" points="1541.7,757.9 1771.6,1018.3 1500,1017.5 		"/>
		<polygon fill="#8BA4C0" points="1227.2,1016.7 1501.4,1017.5 1541.7,757.9 		"/>
		<polygon fill="#2F4E71" points="1093.9,741.4 1542.3,757.9 1227.2,1016.7 1093.3,1016.3 		"/>
		<polygon fill="#6586AB" points="1313,636.3 1541.7,757.9 1092.8,741.4 		"/>
		<polygon fill="#2F4E71" points="1132.8,621.4 1313,636.3 1092.8,741.4 952.7,603 		"/>
		<polygon fill="#8BA4C0" points="1541.6,652.2 1541.4,757.9 1312.5,636.3 		"/>
		<polygon fill="#3E6896" points="1853.6,592.8 1896.7,551.1 1998.4,621.4 1999.1,665.6 		"/>
		<polygon fill="#2F4E71" points="1999.5,475.4 1998.4,621.4 1896.7,551.1 		"/>
	</g>
	<g opacity="0.2">
		<polygon fill="#408D5A" points="1094.1,-3.2 1094.7,269.5 731.1,231.7 977.2,-2.8 		"/>
		<polygon fill="#77C993" points="478.3,20.6 730.5,231.7 976.2,-2.8 494.1,-1.3 		"/>
		<polygon fill="#408D5A" points="2000.9,737 1712.3,831.5 2001.4,919.9 		"/>
		<polygon fill="#BBE4C9" points="1734.1,526.3 1999.8,619.3 2000.9,737 1712.3,831.5 		"/>
		<polygon fill="#55BC78" points="1573.8,534.7 1712.3,831.5 1734.1,526.3 		"/>
		<polygon fill="#DDF2E4" points="1173.8,545.9 1573.8,534.7 1195.3,647.7 		"/>
		<polygon fill="#BBE4C9" points="1043.9,508 1173.8,545.9 1195.3,647.7 		"/>
		<polygon fill="#77C993" points="1147,436.1 1173.8,545.9 1043.9,508 		"/>
		<polygon fill="#91B9A3" points="953.4,406.7 1147,436.1 993.5,550.8 		"/>
		<polygon fill="#55BC78" points="1093.6,269.5 953.4,406.7 730.5,231.7 		"/>
		<polygon fill="#DDF2E4" points="1313.8,373.6 1173.8,545.9 1147,436.1 		"/>
		<polygon fill="#BBE4C9" points="1573.8,534.7 1313.8,373.6 1173.8,545.9 		"/>
		<polygon fill="#DDF2E4" points="1542.3,358 1573.8,534.7 1313.8,373.6 		"/>
		<polygon fill="#BBE4C9" points="1734.1,526.3 1573.8,534.7 1542.3,358 		"/>
		<polygon fill="#99D7AE" points="1897.5,458.3 2000.3,533.4 2000.6,620.3 1734.1,526.3 		"/>
		<polygon fill="#55BC78" points="1855.6,417 1897.5,458.3 1734.1,526.3 		"/>
		<polygon fill="#77C993" points="1542.3,358 1855.6,417 1734.1,526.3 		"/>
		<polygon fill="#BBE4C9" points="1542.2,253.1 1853.9,417 1542.3,358 		"/>
		<polygon fill="#2FB56B" points="1999.2,345.6 1854.4,417 1542.5,253.1 1772.3,-5.3 		"/>
		<polygon fill="#55BC78" points="1998.9,-6 1999.8,344.6 1772.3,-5.3 		"/>
		<polygon fill="#55BC78" points="1542.5,253.1 1772.3,-5.3 1500.8,-4.3 		"/>
		<polygon fill="#238850" points="1228,-3.7 1502.2,-4.5 1542.5,253.1 		"/>
		<polygon fill="#77C993" points="1094.7,269.5 1543.1,253.1 1228,-3.7 1094.1,-3.2 		"/>
		<polygon fill="#BBE4C9" points="1313.8,373.6 1542.5,253.1 1093.6,269.5 		"/>
		<polygon fill="#99D7AE" points="1147,436.1 1313.8,373.6 1093.6,269.5 953.4,406.7 		"/>
		<polygon fill="#BBE4C9" points="1542.3,358 1542.2,253.1 1313.3,373.6 		"/>
		<polygon fill="#238850" points="1854.4,417 1897.5,458.3 1999.2,388.6 1999.8,344.6 		"/>
		<polygon fill="#55BC78" points="2000.3,533.4 1999.2,388.6 1897.5,458.3 		"/>
	</g>
	<g opacity="0.65">
		<polygon fill="#841D53" points="906.7,-11.6 905.9,263.2 1269.5,225.2 1023.6,-11.2 		"/>
		<polygon fill="#C0528C" points="1548,-8.2 1270.2,225.2 1024.4,-11.2 1499.8,-8.2 		"/>
		<polygon fill="#B0276F" points="-0.2,734.6 288.3,829.7 -0.8,918.9 		"/>
		<polygon fill="#DFA9C5" points="266.6,522 0.8,615.9 -0.8,650.3 288.3,829.7 		"/>
		<polygon fill="#B0276F" points="426.9,530.5 288.3,829.7 266.6,522 		"/>
		<polygon fill="#DFA9C5" points="826.9,541.9 426.9,530.5 805.5,644.5 		"/>
		<polygon fill="#C0528C" points="956.9,503.6 826.9,541.9 805.5,644.5 		"/>
		<polygon fill="#B0276F" points="853.8,431.2 826.9,541.9 956.9,503.6 		"/>
		<polygon fill="#841D53" points="1047.2,401.6 853.8,431.2 1002.9,551.1 		"/>
		<polygon fill="#C0528C" points="907.2,263.3 1047.2,401.6 1270.2,225.2 		"/>
		<polygon fill="#C0528C" points="686.9,368.3 826.9,541.9 853.8,431.2 		"/>
		<polygon fill="#D07DA9" points="426.9,530.5 686.9,368.3 826.9,541.9 		"/>
		<polygon fill="#DFA9C5" points="458.3,352.4 426.9,530.5 686.9,368.3 		"/>
		<polygon fill="#C0528C" points="266.6,522 426.9,530.5 458.3,352.4 		"/>
		<polygon fill="#D07DA9" points="103.1,453.5 0.3,529.3 0.2,616.9 266.6,522 		"/>
		<polygon fill="#C0528C" points="145,412 103.1,453.5 266.6,522 		"/>
		<polygon fill="#DFA9C5" points="458.3,352.4 145,412 266.6,522 		"/>
		<polygon fill="#B0276F" points="458.6,246.8 146.7,412 458.3,352.4 		"/>
		<polygon fill="#C0528C" points="-1,341.2 146.4,412 458.1,246.8 228.3,-13.7 		"/>
		<polygon fill="#841D53" points="-1,-14.4 0.8,339 228.3,-13.7 		"/>
		<polygon fill="#DFA9C5" points="458.1,246.8 228.3,-13.7 499.8,-12.9 		"/>
		<polygon fill="#D07DA9" points="772.8,-12.1 498.6,-12.9 458.1,246.8 		"/>
		<polygon fill="#B0276F" points="905.9,263.2 457.5,246.8 772.8,-12.1 906.7,-11.6 		"/>
		<polygon fill="#C0528C" points="686.9,368.3 458.1,246.8 907.2,263.3 		"/>
		<polygon fill="#B0276F" points="853.8,431.2 686.9,368.3 907.2,263.3 1047.2,401.6 		"/>
		<polygon fill="#D07DA9" points="458.3,352.4 458.6,246.8 687.3,368.3 		"/>
		<polygon fill="#841D53" points="146.4,412 103.1,453.5 -0.5,386.7 -0.1,331 		"/>
		<polygon fill="#B0276F" points="0.3,529.3 -1,380.3 103.1,453.5 		"/>
	</g>
	<g opacity="0.79">
		<polygon fill="#90A4B0" points="1091.7,-11.2 1092.3,268 728.8,229.8 973.9,-10.8 		"/>
		<polygon fill="#BDCCD4" points="450,-12.9 728.1,229.8 973.9,-10.8 		"/>
		<polygon fill="#BDCCD4" points="2002,737.1 1710,834.5 2002,923.6 		"/>
		<polygon fill="#D7E0E5" points="1731.7,526.8 2002,621.4 1998.6,739.3 1710,834.5 		"/>
		<polygon fill="#BDCCD4" points="1571.4,535.4 1710,834.5 1731.7,526.8 		"/>
		<polygon fill="#D7E0E5" points="1171.4,546.6 1571.4,535.4 1193,649.2 		"/>
		<polygon fill="#EAEFF1" points="1041.6,508.4 1171.4,546.6 1193,649.2 		"/>
		<polygon fill="#BDCCD4" points="1144.7,435.9 1171.4,546.6 1041.6,508.4 		"/>
		<polygon fill="#90A4B0" points="951.1,406.3 1144.7,435.9 1002.9,551.1 		"/>
		<polygon fill="#D7E0E5" points="1091.2,268 951.1,406.3 728.1,229.8 		"/>
		<polygon fill="#EAEFF1" points="1311.4,373 1171.4,546.6 1144.7,435.9 		"/>
		<polygon fill="#D7E0E5" points="1571.4,535.4 1311.4,373 1171.4,546.6 		"/>
		<polygon fill="#D7E0E5" points="1540,357.2 1571.4,535.4 1311.4,373 		"/>
		<polygon fill="#EAEFF1" points="1731.7,526.8 1571.4,535.4 1540,357.2 		"/>
		<polygon fill="#D7E0E5" points="1895.2,458.4 2002,537.7 2002,621.4 1731.7,526.8 		"/>
		<polygon fill="#BDCCD4" points="1853.3,416.7 1895.2,458.4 1731.7,526.8 		"/>
		<polygon fill="#D7E0E5" points="1540,357.2 1853.3,416.7 1731.7,526.8 		"/>
		<polygon fill="#BDCCD4" points="1539.8,251.4 1851.6,416.7 1540,357.2 		"/>
		<polygon fill="#EAEFF1" points="1996.9,344.7 1852,416.7 1540.2,251.4 1770,-9 		"/>
		<polygon fill="#90A4B0" points="2000.6,-9.7 2000.6,349.8 1770,-9 		"/>
		<polygon fill="#D7E0E5" points="1540.2,251.4 1770,-9 1498.4,-8 		"/>
		<polygon fill="#D7E0E5" points="1202,-10.7 1499.8,-8.2 1540.2,251.4 		"/>
		<polygon fill="#BDCCD4" points="1092.3,268 1540.8,251.4 1236.7,-10.6 1091.7,-11.2 		"/>
		<polygon fill="#EAEFF1" points="1311.4,373 1540.2,251.4 1091.2,268 		"/>
		<polygon fill="#BDCCD4" points="1144.7,435.9 1311.4,373 1091.2,268 951.1,406.3 		"/>
		<polygon fill="#D7E0E5" points="1540,357.2 1539.8,251.4 1310.9,373 		"/>
		<polygon fill="#90A4B0" points="1852,416.7 1895.2,458.4 2002,387.7 2002,343.7 		"/>
		<polygon fill="#BDCCD4" points="2000.2,534 2002,387.7 1895.2,458.4 		"/>
	</g>
</g>
<linearGradient id="SVGID_1_" gradientUnits="userSpaceOnUse" x1="999.3445" y1="697.8032" x2="997.9693" y2="993.1098" gradientTransform="matrix(1 6.114516e-04 6.114518e-04 2.1197 -0.612 -1120.6711)">
	<stop  offset="0" style="stop-color:#2F6198;stop-opacity:0"/>
	<stop  offset="6.032196e-02" style="stop-color:#2C5A8B;stop-opacity:4.298177e-02"/>
	<stop  offset="0.2209" style="stop-color:#27496F;stop-opacity:0.1574"/>
	<stop  offset="0.3819" style="stop-color:#223D5B;stop-opacity:0.2721"/>
	<stop  offset="0.5424" style="stop-color:#20364F;stop-opacity:0.3865"/>
	<stop  offset="0.7017" style="stop-color:#1F344B;stop-opacity:0.5"/>
</linearGradient>
<polygon fill="url(#SVGID_1_)" points="2000,999.5 -3,1000.5 -3.1,487.2 1999.9,486.1 "/>
</svg>
