<?xml version="1.0" encoding="utf-8"?>
<!-- Generator: Adobe Illustrator 18.1.1, SVG Export Plug-In . SVG Version: 6.00 Build 0)  -->
<svg version="1.1" xmlns="http://www.w3.org/2000/svg" xmlns:xlink="http://www.w3.org/1999/xlink" x="0px" y="0px"
	 viewBox="0 0 1280 615.6" enable-background="new 0 0 1280 615.6" xml:space="preserve">
<g id="lightblue-light">
	<g opacity="0.20">
		<polygon fill="#0E5E8D" points="586.3,614.2 585.8,450 818.6,472.7 661.1,613.9 		"/>
		<polygon fill="#68B4E1" points="980.4,599.8 819,472.7 661.7,613.9 970.3,613.1 		"/>
		<polygon fill="#42A1DA" points="5.9,168.4 190.5,111.6 5.6,58.3 		"/>
		<polygon fill="#C2E1F3" points="176.7,295.4 6.5,239.3 5.9,168.4 190.5,111.6 		"/>
		<polygon fill="#42A1DA" points="279.2,290.3 190.5,111.6 176.7,295.4 		"/>
		<polygon fill="#C2E1F3" points="535.2,283.5 279.2,290.3 521.5,222.2 		"/>
		<polygon fill="#68B4E1" points="618.4,306.4 535.2,283.5 521.5,222.2 		"/>
		<polygon fill="#42A1DA" points="552.4,349.6 535.2,283.5 618.4,306.4 		"/>
		<polygon fill="#0E5E8D" points="676.2,367.3 552.4,349.6 618.4,306.4 		"/>
		<polygon fill="#C2E1F3" points="586.6,450 676.2,367.3 819,472.7 		"/>
		<polygon fill="#68B4E1" points="445.7,387.2 535.2,283.5 552.4,349.6 		"/>
		<polygon fill="#8EC7E9" points="279.2,290.3 445.7,387.2 535.2,283.5 		"/>
		<polygon fill="#C2E1F3" points="299.4,396.7 279.2,290.3 445.7,387.2 		"/>
		<polygon fill="#68B4E1" points="176.7,295.4 279.2,290.3 299.4,396.7 		"/>
		<polygon fill="#8EC7E9" points="72.1,336.3 6.2,291.1 6.1,238.7 176.7,295.4 		"/>
		<polygon fill="#68B4E1" points="98.9,361.2 72.1,336.3 176.7,295.4 		"/>
		<polygon fill="#C2E1F3" points="299.4,396.7 98.9,361.2 176.7,295.4 		"/>
		<polygon fill="#42A1DA" points="299.5,459.8 100,361.2 299.3,396.7 		"/>
		<polygon fill="#68B4E1" points="7,404.1 99.7,361.2 299.2,459.8 152.2,615.4 		"/>
		<polygon fill="#0E5E8D" points="7.2,615.8 6.6,404.7 152.2,615.4 		"/>
		<polygon fill="#C2E1F3" points="299.2,459.8 152.2,615.4 326,614.9 		"/>
		<polygon fill="#8EC7E9" points="500.6,614.4 325.1,614.9 299.2,459.8 		"/>
		<polygon fill="#42A1DA" points="585.8,450 298.8,459.8 500.6,614.4 586.3,614.2 		"/>
		<polygon fill="#68B4E1" points="445.7,387.2 299.2,459.8 586.6,450 		"/>
		<polygon fill="#42A1DA" points="552.4,349.6 445.7,387.2 586.6,450 676.2,367.3 		"/>
		<polygon fill="#8EC7E9" points="299.3,396.7 299.5,459.8 446,387.2 		"/>
		<polygon fill="#0E5E8D" points="99.7,361.2 72.1,336.3 6.9,378.3 6.6,404.7 		"/>
		<polygon fill="#42A1DA" points="6.2,291.1 6.9,378.3 72.1,336.3 		"/>
	</g>
	<g opacity="9.000000e-02">
		<polygon fill="#0E5E8D" points="580.3,-1 579.8,163.2 812.6,140.4 655.1,-0.8 		"/>
		<polygon fill="#68B4E1" points="974.4,13.3 813,140.4 655.7,-0.8 964.3,0.1 		"/>
		<polygon fill="#42A1DA" points="-0.1,444.7 184.5,501.6 -0.4,554.8 		"/>
		<polygon fill="#C2E1F3" points="170.7,317.8 0.5,373.8 -0.1,444.7 184.5,501.6 		"/>
		<polygon fill="#42A1DA" points="273.2,322.9 184.5,501.6 170.7,317.8 		"/>
		<polygon fill="#C2E1F3" points="529.2,329.6 273.2,322.9 515.5,390.9 		"/>
		<polygon fill="#68B4E1" points="612.4,306.8 529.2,329.6 515.5,390.9 		"/>
		<polygon fill="#42A1DA" points="546.4,263.5 529.2,329.6 612.4,306.8 		"/>
		<polygon fill="#0E5E8D" points="670.2,245.8 546.4,263.5 612.4,306.8 		"/>
		<polygon fill="#C2E1F3" points="580.6,163.2 670.2,245.8 813,140.4 		"/>
		<polygon fill="#68B4E1" points="439.7,225.9 529.2,329.6 546.4,263.5 		"/>
		<polygon fill="#8EC7E9" points="273.2,322.9 439.7,225.9 529.2,329.6 		"/>
		<polygon fill="#C2E1F3" points="293.4,216.5 273.2,322.9 439.7,225.9 		"/>
		<polygon fill="#68B4E1" points="170.7,317.8 273.2,322.9 293.4,216.5 		"/>
		<polygon fill="#8EC7E9" points="66.1,276.9 0.2,322.1 0.1,374.4 170.7,317.8 		"/>
		<polygon fill="#68B4E1" points="92.9,252 66.1,276.9 170.7,317.8 		"/>
		<polygon fill="#C2E1F3" points="293.4,216.5 92.9,252 170.7,317.8 		"/>
		<polygon fill="#42A1DA" points="293.5,153.3 94,252 293.3,216.5 		"/>
		<polygon fill="#68B4E1" points="1,209 93.7,252 293.2,153.3 146.2,-2.3 		"/>
		<polygon fill="#0E5E8D" points="1.2,-2.7 0.6,208.4 146.2,-2.3 		"/>
		<polygon fill="#C2E1F3" points="293.2,153.3 146.2,-2.3 320,-1.7 		"/>
		<polygon fill="#8EC7E9" points="494.6,-1.3 319.1,-1.8 293.2,153.3 		"/>
		<polygon fill="#42A1DA" points="579.8,163.2 292.8,153.3 494.6,-1.3 580.3,-1 		"/>
		<polygon fill="#68B4E1" points="439.7,225.9 293.2,153.3 580.6,163.2 		"/>
		<polygon fill="#42A1DA" points="546.4,263.5 439.7,225.9 580.6,163.2 670.2,245.8 		"/>
		<polygon fill="#8EC7E9" points="293.3,216.5 293.5,153.3 440,225.9 		"/>
		<polygon fill="#0E5E8D" points="93.7,252 66.1,276.9 0.9,234.9 0.6,208.4 		"/>
		<polygon fill="#42A1DA" points="0.2,322.1 0.9,234.9 66.1,276.9 		"/>
	</g>
	<g opacity="0.65">
		<polygon fill="#0E5E8D" points="699.7,616.2 700.1,452 467.4,474.7 624.9,615.9 		"/>
		<polygon fill="#68B4E1" points="305.6,601.8 467,474.7 624.3,615.9 315.7,615.1 		"/>
		<polygon fill="#42A1DA" points="1280.1,170.4 1095.4,113.6 1280.4,60.3 		"/>
		<polygon fill="#C2E1F3" points="1109.3,297.4 1279.4,241.3 1280.1,170.4 1095.4,113.6 		"/>
		<polygon fill="#42A1DA" points="1006.7,292.3 1095.4,113.6 1109.3,297.4 		"/>
		<polygon fill="#C2E1F3" points="750.7,285.5 1006.7,292.3 764.5,224.2 		"/>
		<polygon fill="#68B4E1" points="667.6,308.4 750.7,285.5 764.5,224.2 		"/>
		<polygon fill="#42A1DA" points="733.6,351.6 750.7,285.5 667.6,308.4 		"/>
		<polygon fill="#0E5E8D" points="609.7,369.3 733.6,351.6 667.6,308.4 		"/>
		<polygon fill="#C2E1F3" points="699.4,452 609.7,369.3 467,474.7 		"/>
		<polygon fill="#68B4E1" points="840.3,389.2 750.7,285.5 733.6,351.6 		"/>
		<polygon fill="#8EC7E9" points="1006.7,292.3 840.3,389.2 750.7,285.5 		"/>
		<polygon fill="#C2E1F3" points="986.6,398.7 1006.7,292.3 840.3,389.2 		"/>
		<polygon fill="#68B4E1" points="1109.3,297.4 1006.7,292.3 986.6,398.7 		"/>
		<polygon fill="#8EC7E9" points="1213.9,338.3 1279.7,293.1 1279.9,240.7 1109.3,297.4 		"/>
		<polygon fill="#68B4E1" points="1187.1,363.2 1213.9,338.3 1109.3,297.4 		"/>
		<polygon fill="#C2E1F3" points="986.6,398.7 1187.1,363.2 1109.3,297.4 		"/>
		<polygon fill="#42A1DA" points="986.5,461.8 1186,363.2 986.6,398.7 		"/>
		<polygon fill="#68B4E1" points="1279,406.1 1186.3,363.2 986.7,461.8 1133.8,617.4 		"/>
		<polygon fill="#0E5E8D" points="1278.8,617.8 1279.4,406.7 1133.8,617.4 		"/>
		<polygon fill="#C2E1F3" points="986.7,461.8 1133.8,617.4 960,616.9 		"/>
		<polygon fill="#8EC7E9" points="785.4,616.4 960.9,616.9 986.7,461.8 		"/>
		<polygon fill="#42A1DA" points="700.1,452 987.1,461.8 785.4,616.4 699.7,616.2 		"/>
		<polygon fill="#68B4E1" points="840.3,389.2 986.7,461.8 699.4,452 		"/>
		<polygon fill="#42A1DA" points="733.6,351.6 840.3,389.2 699.4,452 609.7,369.3 		"/>
		<polygon fill="#8EC7E9" points="986.6,398.7 986.5,461.8 840,389.2 		"/>
		<polygon fill="#0E5E8D" points="1186.3,363.2 1213.9,338.3 1279,380.3 1279.4,406.7 		"/>
		<polygon fill="#42A1DA" points="1279.7,293.1 1279,380.3 1213.9,338.3 		"/>
	</g>
	<g opacity="9.000000e-02">
		<polygon fill="#0E5E8D" points="703.7,0 704.1,164.2 471.4,141.4 628.9,0.2 		"/>
		<polygon fill="#68B4E1" points="309.6,14.3 471,141.4 628.3,0.2 319.7,1.1 		"/>
		<polygon fill="#42A1DA" points="1284.1,445.7 1099.4,502.6 1284.4,555.8 		"/>
		<polygon fill="#C2E1F3" points="1113.3,318.8 1283.4,374.8 1284.1,445.7 1099.4,502.6 		"/>
		<polygon fill="#42A1DA" points="1010.7,323.9 1099.4,502.6 1113.3,318.8 		"/>
		<polygon fill="#C2E1F3" points="754.7,330.6 1010.7,323.9 768.5,391.9 		"/>
		<polygon fill="#68B4E1" points="671.6,307.8 754.7,330.6 768.5,391.9 		"/>
		<polygon fill="#42A1DA" points="737.6,264.5 754.7,330.6 671.6,307.8 		"/>
		<polygon fill="#0E5E8D" points="613.7,246.8 737.6,264.5 671.6,307.8 		"/>
		<polygon fill="#C2E1F3" points="703.4,164.2 613.7,246.8 471,141.4 		"/>
		<polygon fill="#68B4E1" points="844.3,226.9 754.7,330.6 737.6,264.5 		"/>
		<polygon fill="#8EC7E9" points="1010.7,323.9 844.3,226.9 754.7,330.6 		"/>
		<polygon fill="#C2E1F3" points="990.6,217.5 1010.7,323.9 844.3,226.9 		"/>
		<polygon fill="#68B4E1" points="1113.3,318.8 1010.7,323.9 990.6,217.5 		"/>
		<polygon fill="#8EC7E9" points="1217.9,277.9 1283.7,323.1 1283.9,375.4 1113.3,318.8 		"/>
		<polygon fill="#68B4E1" points="1191.1,253 1217.9,277.9 1113.3,318.8 		"/>
		<polygon fill="#C2E1F3" points="990.6,217.5 1191.1,253 1113.3,318.8 		"/>
		<polygon fill="#42A1DA" points="990.5,154.3 1190,253 990.6,217.5 		"/>
		<polygon fill="#68B4E1" points="1283,210 1190.3,253 990.7,154.3 1137.8,-1.3 		"/>
		<polygon fill="#0E5E8D" points="1282.8,-1.7 1283.4,209.4 1137.8,-1.3 		"/>
		<polygon fill="#C2E1F3" points="990.7,154.3 1137.8,-1.3 964,-0.7 		"/>
		<polygon fill="#8EC7E9" points="789.4,-0.3 964.9,-0.8 990.7,154.3 		"/>
		<polygon fill="#42A1DA" points="704.1,164.2 991.1,154.3 789.4,-0.3 703.7,0 		"/>
		<polygon fill="#68B4E1" points="844.3,226.9 990.7,154.3 703.4,164.2 		"/>
		<polygon fill="#42A1DA" points="737.6,264.5 844.3,226.9 703.4,164.2 613.7,246.8 		"/>
		<polygon fill="#8EC7E9" points="990.6,217.5 990.5,154.3 844,226.9 		"/>
		<polygon fill="#0E5E8D" points="1190.3,253 1217.9,277.9 1283,235.9 1283.4,209.4 		"/>
		<polygon fill="#42A1DA" points="1283.7,323.1 1283,235.9 1217.9,277.9 		"/>
	</g>
</g>
<g id="grayblue-light">
</g>
<g id="hotred-light">
</g>
<g id="multi" opacity="0.5">
</g>
<g id="graygray">
</g>
<g id="lightblue">
</g>
<g id="hotred">
</g>
<g id="grayblue">
</g>
<g id="color">
</g>
</svg>
