<?xml version="1.0" encoding="utf-8"?>
<!-- Generator: Adobe Illustrator 18.1.1, SVG Export Plug-In . SVG Version: 6.00 Build 0)  -->
<svg version="1.1" xmlns="http://www.w3.org/2000/svg" xmlns:xlink="http://www.w3.org/1999/xlink" x="0px" y="0px"
	 viewBox="0 0 1280 615.6" enable-background="new 0 0 1280 615.6" xml:space="preserve">
<g id="graygray">
</g>
<g id="lightblue">
</g>
<g id="hotred">
	<g opacity="0.21">
		<polygon fill="#CAD6DD" points="668.5,-0.3 724.4,-0.1 764.5,223.2 610.6,58 		"/>
		<g opacity="0.48">
			<polygon fill="#BDCCD4" points="0.8,69.4 297,166.5 327.7,-1.3 1.3,-2.2 			"/>
			<polygon fill="#D7E0E5" points="0.3,142.8 297,166.5 0.5,69.4 			"/>
			<polygon fill="#D7E0E5" points="327.7,-1.2 610.6,58 297,166.5 			"/>
			<polygon fill="#CAD6DD" points="327.7,-1.2 668.5,-0.3 610.6,58 			"/>
			<polygon fill="#D7E0E5" points="0.8,142.8 0.2,221 297,166.5 			"/>
			<polygon fill="#BDCCD4" points="-0.2,329.2 133.5,375.3 297,166.5 0.1,221 			"/>
			<polygon fill="#CAD6DD" points="257,386.5 297,166.5 133.5,375.3 			"/>
			<polygon fill="#D7E0E5" points="-0.5,613.1 91,613.4 133.5,375.3 -0.4,421.9 			"/>
			<polygon fill="#BDCCD4" points="315.7,614 133.5,375.3 91,613.4 			"/>
			<polygon fill="#D7E0E5" points="257,386.5 305.6,600.8 133.5,375.3 			"/>
			<polygon fill="#D7E0E5" points="467,473.7 257,386.5 305.6,600.8 			"/>
			<polygon fill="#D7E0E5" points="609.7,368.3 257,386.5 467,473.7 			"/>
			<polygon fill="#BDCCD4" points="297,166.5 257,386.5 609.7,368.3 			"/>
			<polygon fill="#CAD6DD" points="667.6,307.4 610.6,58 297,166.5 			"/>
			<polygon fill="#D7E0E5" points="609.7,368.3 667.6,307.4 297,166.5 			"/>
		</g>
		<polygon fill="#D7E0E5" points="610.6,58 764.5,223.2 667.6,307.4 		"/>
		<polygon fill="#D7E0E5" points="1095.4,112.5 764.5,223.2 724.4,-0.1 827.8,0.2 		"/>
		<polygon fill="#BDCCD4" points="1085.6,0.9 1095.4,112.5 827.8,0.2 		"/>
		<polygon fill="#D7E0E5" points="1280.6,1.5 1280.4,59.3 1095.4,112.5 1136.4,1.1 		"/>
		<polygon fill="#D7E0E5" points="1084.7,0.9 1136.4,1.1 1095.4,112.5 		"/>
		<polygon fill="#D7E0E5" points="764.5,223.2 1095.4,112.6 1006.7,291.3 		"/>
		<polygon fill="#BDCCD4" points="-0.4,421.9 133.5,375.3 0.3,329.2 		"/>
	</g>
	<g opacity="0.65">
		<polygon fill="#841D53" points="699.7,615.2 700.1,451 467.4,473.7 624.9,614.9 		"/>
		<polygon fill="#C0528C" points="305.6,600.8 467,473.7 624.3,614.9 315.7,614.1 		"/>
		<polygon fill="#B0276F" points="1280.1,169.4 1095.4,112.6 1280.4,59.3 		"/>
		<polygon fill="#DFA9C5" points="1109.3,296.4 1279.4,240.3 1280.1,169.4 1095.4,112.6 		"/>
		<polygon fill="#B0276F" points="1006.7,291.3 1095.4,112.6 1109.3,296.4 		"/>
		<polygon fill="#DFA9C5" points="750.7,284.5 1006.7,291.3 764.5,223.2 		"/>
		<polygon fill="#C0528C" points="667.6,307.4 750.7,284.5 764.5,223.2 		"/>
		<polygon fill="#B0276F" points="733.6,350.6 750.7,284.5 667.6,307.4 		"/>
		<polygon fill="#841D53" points="609.7,368.3 733.6,350.6 667.6,307.4 		"/>
		<polygon fill="#C0528C" points="699.4,451 609.7,368.3 467,473.7 		"/>
		<polygon fill="#C0528C" points="840.3,388.2 750.7,284.5 733.6,350.6 		"/>
		<polygon fill="#D07DA9" points="1006.7,291.3 840.3,388.2 750.7,284.5 		"/>
		<polygon fill="#DFA9C5" points="986.6,397.7 1006.7,291.3 840.3,388.2 		"/>
		<polygon fill="#C0528C" points="1109.3,296.4 1006.7,291.3 986.6,397.7 		"/>
		<polygon fill="#D07DA9" points="1213.9,337.3 1279.7,292.1 1279.9,239.7 1109.3,296.4 		"/>
		<polygon fill="#C0528C" points="1187.1,362.2 1213.9,337.3 1109.3,296.4 		"/>
		<polygon fill="#DFA9C5" points="986.6,397.7 1187.1,362.2 1109.3,296.4 		"/>
		<polygon fill="#B0276F" points="986.5,460.8 1186,362.2 986.6,397.7 		"/>
		<polygon fill="#C0528C" points="1279,405.1 1186.3,362.2 986.7,460.8 1133.8,616.4 		"/>
		<polygon fill="#841D53" points="1278.8,616.8 1279.4,405.7 1133.8,616.4 		"/>
		<polygon fill="#DFA9C5" points="986.7,460.8 1133.8,616.4 960,615.9 		"/>
		<polygon fill="#D07DA9" points="785.4,615.4 960.9,615.9 986.7,460.8 		"/>
		<polygon fill="#B0276F" points="700.1,451 987.1,460.8 785.4,615.4 699.7,615.2 		"/>
		<polygon fill="#C0528C" points="840.3,388.2 986.7,460.8 699.4,451 		"/>
		<polygon fill="#B0276F" points="733.6,350.6 840.3,388.2 699.4,451 609.7,368.3 		"/>
		<polygon fill="#D07DA9" points="986.6,397.7 986.5,460.8 840,388.2 		"/>
		<polygon fill="#841D53" points="1186.3,362.2 1213.9,337.3 1279,379.3 1279.4,405.7 		"/>
		<polygon fill="#B0276F" points="1279.7,292.1 1279,379.3 1213.9,337.3 		"/>
	</g>
</g>
<g id="grayblue">
</g>
<g id="color">
</g>
</svg>
