<?xml version="1.0" encoding="utf-8"?>
<!-- Generator: Adobe Illustrator 18.1.1, SVG Export Plug-In . SVG Version: 6.00 Build 0)  -->
<svg version="1.1" id="Layer_1" xmlns="http://www.w3.org/2000/svg" xmlns:xlink="http://www.w3.org/1999/xlink" x="0px" y="0px"
	 viewBox="0 0 2000 1000" enable-background="new 0 0 2000 1000" xml:space="preserve">
<g opacity="0.59">
	<polygon fill="#408D5A" points="1094.8,-11 1095.5,261.7 731.9,223.9 978,-10.6 	"/>
	<polygon fill="#77C993" points="479.1,12.8 731.2,223.9 977,-10.6 494.8,-9.1 	"/>
	<polygon fill="#408D5A" points="2001.7,729.2 1713.1,823.7 2002.2,912.1 	"/>
	<polygon fill="#BBE4C9" points="1734.8,518.5 2000.6,611.5 2001.7,729.2 1713.1,823.7 	"/>
	<polygon fill="#55BC78" points="1574.5,526.9 1713.1,823.7 1734.8,518.5 	"/>
	<polygon fill="#DDF2E4" points="1174.5,538.1 1574.5,526.9 1196.1,639.9 	"/>
	<polygon fill="#BBE4C9" points="1044.7,500.2 1174.5,538.1 1196.1,639.9 	"/>
	<polygon fill="#77C993" points="1147.8,428.3 1174.5,538.1 1044.7,500.2 	"/>
	<polygon fill="#91B9A3" points="954.2,398.9 1147.8,428.3 994.2,543 	"/>
	<polygon fill="#55BC78" points="1094.4,261.7 954.2,398.9 731.2,223.9 	"/>
	<polygon fill="#DDF2E4" points="1314.5,365.8 1174.5,538.1 1147.8,428.3 	"/>
	<polygon fill="#BBE4C9" points="1574.5,526.9 1314.5,365.8 1174.5,538.1 	"/>
	<polygon fill="#DDF2E4" points="1543.1,350.2 1574.5,526.9 1314.5,365.8 	"/>
	<polygon fill="#BBE4C9" points="1734.8,518.5 1574.5,526.9 1543.1,350.2 	"/>
	<polygon fill="#99D7AE" points="1898.3,450.5 2001.1,525.6 2001.4,612.5 1734.8,518.5 	"/>
	<polygon fill="#55BC78" points="1856.4,409.2 1898.3,450.5 1734.8,518.5 	"/>
	<polygon fill="#77C993" points="1543.1,350.2 1856.4,409.2 1734.8,518.5 	"/>
	<polygon fill="#BBE4C9" points="1543,245.3 1854.7,409.2 1543.1,350.2 	"/>
	<polygon fill="#2FB56B" points="2000,337.8 1855.2,409.2 1543.3,245.3 1773.1,-13.1 	"/>
	<polygon fill="#55BC78" points="1999.7,-13.8 2000.6,336.8 1773.1,-13.1 	"/>
	<polygon fill="#55BC78" points="1543.3,245.3 1773.1,-13.1 1501.6,-12.1 	"/>
	<polygon fill="#238850" points="1228.8,-11.5 1503,-12.3 1543.3,245.3 	"/>
	<polygon fill="#77C993" points="1095.5,261.7 1543.9,245.3 1228.8,-11.5 1094.8,-11 	"/>
	<polygon fill="#BBE4C9" points="1314.5,365.8 1543.3,245.3 1094.4,261.7 	"/>
	<polygon fill="#99D7AE" points="1147.8,428.3 1314.5,365.8 1094.4,261.7 954.2,398.9 	"/>
	<polygon fill="#BBE4C9" points="1543.1,350.2 1543,245.3 1314.1,365.8 	"/>
	<polygon fill="#238850" points="1855.2,409.2 1898.3,450.5 2000,380.8 2000.6,336.8 	"/>
	<polygon fill="#55BC78" points="2001.1,525.6 2000,380.8 1898.3,450.5 	"/>
</g>
<g opacity="0.13">
	<polygon fill="#90A4B0" points="906.7,-6 905.9,266.7 1269.7,228.8 1023.6,-5.7 	"/>
	<polygon fill="#BDCCD4" points="1522.5,17.8 1270.3,228.8 1024.5,-5.7 1506.7,-4.2 	"/>
	<polygon fill="#BDCCD4" points="-0.2,734.2 288.3,828.7 -0.6,917 	"/>
	<polygon fill="#91B9A3" points="266.7,523.4 0.8,616.4 -0.2,734.2 288.3,828.7 	"/>
	<polygon fill="#BDCCD4" points="426.9,531.9 288.3,828.7 266.7,523.4 	"/>
	<polygon fill="#478B65" points="826.9,543 426.9,531.9 805.5,644.8 	"/>
	<polygon fill="#91B9A3" points="956.9,505.2 826.9,543 805.5,644.8 	"/>
	<polygon fill="#B5D1C1" points="853.8,433.3 826.9,543 956.9,505.2 	"/>
	<polygon fill="#35684C" points="954.2,398.9 853.8,433.3 994.2,543 	"/>
	<polygon fill="#D7E0E5" points="907.2,266.7 1047.2,403.9 1270.3,228.8 	"/>
	<polygon fill="#DAE8E0" points="687,370.8 826.9,543 853.8,433.3 	"/>
	<polygon fill="#91B9A3" points="426.9,531.9 687,370.8 826.9,543 	"/>
	<polygon fill="#B5D1C1" points="458.4,355.2 426.9,531.9 687,370.8 	"/>
	<polygon fill="#DAE8E0" points="266.7,523.4 426.9,531.9 458.4,355.2 	"/>
	<polygon fill="#DAE8E0" points="103.3,455.5 0.3,530.6 0.2,617.4 266.7,523.4 	"/>
	<polygon fill="#BDCCD4" points="145.2,414.2 103.3,455.5 266.7,523.4 	"/>
	<polygon fill="#91B9A3" points="458.4,355.2 145.2,414.2 266.7,523.4 	"/>
	<polygon fill="#6CA284" points="458.6,250.3 146.9,414.2 458.3,355.2 	"/>
	<polygon fill="#B5D1C1" points="1.6,342.8 146.4,414.2 458.1,250.3 228.4,-8.1 	"/>
	<polygon fill="#2FB56B" points="1.9,-8.8 0.9,341.8 228.4,-8.1 	"/>
	<polygon fill="#6CA284" points="458.1,250.3 228.4,-8.1 500,-7.2 	"/>
	<polygon fill="#11AA90" points="772.8,-6.5 498.6,-7.3 458.1,250.3 	"/>
	<polygon fill="#6CA284" points="905.9,266.7 457.5,250.3 772.8,-6.5 906.7,-6 	"/>
	<polygon fill="#B5D1C1" points="687,370.8 458.1,250.3 907.2,266.7 	"/>
	<polygon fill="#BDCCD4" points="853.8,433.3 687,370.8 907.2,266.7 1047.2,403.9 	"/>
	<polygon fill="#DAE8E0" points="458.3,355.2 458.6,250.3 687.5,370.8 	"/>
	<polygon fill="#91B9A3" points="146.4,414.2 103.3,455.5 1.4,385.8 0.9,341.8 	"/>
	<polygon fill="#BDCCD4" points="0.3,530.6 1.4,385.8 103.3,455.5 	"/>
</g>
<g opacity="0.13">
	<polygon fill="#90A4B0" points="1094.8,1012.4 1095.5,739.7 731.9,777.4 978,1011.9 	"/>
	<polygon fill="#B5D1C1" points="426.9,1015 731.2,777.4 977,1011.9 494.8,1010.5 	"/>
	<polygon fill="#BDCCD4" points="2001.7,272 1713.1,177.7 2002.2,89.2 	"/>
	<polygon fill="#D7E0E5" points="1734.8,482.9 2000.6,389.8 2001.7,272 1713.1,177.7 	"/>
	<polygon fill="#BDCCD4" points="1574.5,474.5 1713.1,177.7 1734.8,482.9 	"/>
	<polygon fill="#D7E0E5" points="1174.5,463.2 1574.5,474.5 1196.1,361.4 	"/>
	<polygon fill="#EAEFF1" points="1044.7,501.2 1174.5,463.2 1196.1,361.4 	"/>
	<polygon fill="#BDCCD4" points="1147.8,572.9 1174.5,463.2 1044.7,501.2 	"/>
	<polygon fill="#90A4B0" points="954.2,602.3 1147.8,572.9 1044.7,501.2 	"/>
	<polygon fill="#D7E0E5" points="1094.4,739.7 954.2,602.3 731.2,777.4 	"/>
	<polygon fill="#EAEFF1" points="1314.5,635.4 1174.5,463.2 1147.8,572.9 	"/>
	<polygon fill="#D7E0E5" points="1574.5,474.5 1314.5,635.4 1174.5,463.2 	"/>
	<polygon fill="#B5D1C1" points="1543.1,651.2 1574.5,474.5 1314.5,635.4 	"/>
	<polygon fill="#EAEFF1" points="1734.8,482.9 1574.5,474.5 1543.1,651.2 	"/>
	<polygon fill="#D7E0E5" points="1898.3,550.9 2001.1,475.8 2001.4,388.8 1734.8,482.9 	"/>
	<polygon fill="#BDCCD4" points="1856.4,592.2 1898.3,550.9 1734.8,482.9 	"/>
	<polygon fill="#D7E0E5" points="1543.1,651.2 1856.4,592.2 1734.8,482.9 	"/>
	<polygon fill="#BDCCD4" points="1543,756 1854.7,592.2 1543.1,651.2 	"/>
	<polygon fill="#DAE8E0" points="2000,663.4 1855.2,592.2 1543.3,756 1773.1,1014.4 	"/>
	<polygon fill="#91B9A3" points="1999.7,1015 2000.6,664.4 1773.1,1014.4 	"/>
	<polygon fill="#D7E0E5" points="1543.3,756 1773.1,1014.4 1501.6,1013.5 	"/>
	<polygon fill="#D7E0E5" points="1228.8,1012.7 1503,1013.5 1543.3,756 	"/>
	<polygon fill="#BDCCD4" points="1095.5,739.7 1543.9,756 1228.8,1012.7 1094.8,1012.4 	"/>
	<polygon fill="#DAE8E0" points="1314.5,635.4 1543.3,756 1094.4,739.7 	"/>
	<polygon fill="#BDCCD4" points="1147.8,572.9 1314.5,635.4 1094.4,739.7 954.2,602.3 	"/>
	<polygon fill="#6CA284" points="1543.1,651.2 1543,756 1314.1,635.4 	"/>
	<polygon fill="#90A4B0" points="1855.2,592.2 1898.3,550.9 2000,620.6 2000.6,664.4 	"/>
	<polygon fill="#BDCCD4" points="2001.1,475.8 2000,620.6 1898.3,550.9 	"/>
</g>
<g opacity="0.13">
	<polygon fill="#2FB56B" points="906.7,1012.4 905.9,739.7 1269.7,777.4 1023.6,1011.9 	"/>
	<polygon fill="#91B9A3" points="1522.5,988.5 1270.3,777.4 1024.5,1011.9 1506.7,1010.5 	"/>
	<polygon fill="#BDCCD4" points="-0.2,272 288.3,177.7 -0.6,89.2 	"/>
	<polygon fill="#DAE8E0" points="266.7,482.9 0.8,389.8 -0.2,272 288.3,177.7 	"/>
	<polygon fill="#BDCCD4" points="426.9,474.5 288.3,177.7 266.7,482.9 	"/>
	<polygon fill="#D7E0E5" points="826.9,463.2 426.9,474.5 805.5,361.4 	"/>
	<polygon fill="#EAEFF1" points="956.9,501.2 826.9,463.2 805.5,361.4 	"/>
	<polygon fill="#BDCCD4" points="853.8,572.9 826.9,463.2 956.9,501.2 	"/>
	<polygon fill="#90A4B0" points="1047.2,602.3 853.8,572.9 956.9,501.2 	"/>
	<polygon fill="#D7E0E5" points="907.2,739.7 1047.2,602.3 1270.3,777.4 	"/>
	<polygon fill="#EAEFF1" points="687,635.4 826.9,463.2 853.8,572.9 	"/>
	<polygon fill="#D7E0E5" points="426.9,474.5 687,635.4 826.9,463.2 	"/>
	<polygon fill="#B5D1C1" points="458.4,651.2 426.9,474.5 687,635.4 	"/>
	<polygon fill="#EAEFF1" points="266.7,482.9 426.9,474.5 458.4,651.2 	"/>
	<polygon fill="#D7E0E5" points="103.3,550.9 0.3,475.8 0.2,388.8 266.7,482.9 	"/>
	<polygon fill="#BDCCD4" points="145.2,592.2 103.3,550.9 266.7,482.9 	"/>
	<polygon fill="#D7E0E5" points="458.4,651.2 145.2,592.2 266.7,482.9 	"/>
	<polygon fill="#B5D1C1" points="458.6,756 146.9,592.2 458.3,651.2 	"/>
	<polygon fill="#91B9A3" points="1.6,663.4 146.4,592.2 458.1,756 228.4,1014.4 	"/>
	<polygon fill="#90A4B0" points="1.9,1015 0.9,664.4 228.4,1014.4 	"/>
	<polygon fill="#B5D1C1" points="458.1,756 228.4,1014.4 500,1013.5 	"/>
	<polygon fill="#D7E0E5" points="772.8,1012.7 498.6,1013.5 458.1,756 	"/>
	<polygon fill="#BDCCD4" points="905.9,739.7 457.5,756 772.8,1012.7 906.7,1012.4 	"/>
	<polygon fill="#EAEFF1" points="687,635.4 458.1,756 907.2,739.7 	"/>
	<polygon fill="#6CA284" points="853.8,572.9 687,635.4 907.2,739.7 1047.2,602.3 	"/>
	<polygon fill="#DAE8E0" points="458.3,651.2 458.6,756 687.5,635.4 	"/>
	<polygon fill="#90A4B0" points="146.4,592.2 103.3,550.9 1.4,620.6 0.9,664.4 	"/>
	<polygon fill="#B5D1C1" points="0.3,475.8 1.4,620.6 103.3,550.9 	"/>
</g>
<g id="lightblue-light">
</g>
<g id="grayblue-light">
</g>
<g id="hotred-light">
</g>
<g id="multi" opacity="0.5">
</g>
<g id="graygray">
</g>
<g id="lightblue">
</g>
<g id="hotred">
</g>
<g id="grayblue">
</g>
<g id="color">
</g>
<rect x="1583.1" y="-298.3" fill="#55BC78" width="64.4" height="33.2"/>
<rect x="1583.1" y="-264.9" fill="#2FB56B" width="64.4" height="33.2"/>
<rect x="1822.2" y="-186.3" fill="#36BBA2" width="64.4" height="33.2"/>
<rect x="1822.2" y="-152.9" fill="#11AA90" width="64.4" height="33.2"/>
<rect x="497" y="-286.2" fill="#55BC78" width="64.4" height="33.2"/>
<rect x="497" y="-252.8" fill="#2FB56B" width="64.4" height="33.2"/>
<rect x="736.2" y="-174.2" fill="#36BBA2" width="64.4" height="33.2"/>
<rect x="736.2" y="-140.8" fill="#11AA90" width="64.4" height="33.2"/>
</svg>
