<?xml version="1.0" encoding="utf-8"?>
<!-- Generator: Adobe Illustrator 18.1.1, SVG Export Plug-In . SVG Version: 6.00 Build 0)  -->
<svg version="1.1" id="Layer_1" xmlns="http://www.w3.org/2000/svg" xmlns:xlink="http://www.w3.org/1999/xlink" x="0px" y="0px"
	 viewBox="0 0 1280 615.6" enable-background="new 0 0 1280 615.6" xml:space="preserve">
<g opacity="0.21">
	<polygon fill="#CAD6DD" points="668.5,1.9 724.4,2.1 764.5,225.4 610.6,60.2 	"/>
	<g opacity="0.48">
		<polygon fill="#BDCCD4" points="0.8,71.6 297,168.7 327.7,0.9 1.3,0 		"/>
		<polygon fill="#D7E0E5" points="0.3,145 297,168.7 0.5,71.6 		"/>
		<polygon fill="#D7E0E5" points="327.7,1 610.6,60.2 297,168.7 		"/>
		<polygon fill="#CAD6DD" points="327.7,1 668.5,1.9 610.6,60.2 		"/>
		<polygon fill="#D7E0E5" points="0.8,145 0.2,223.2 297,168.7 		"/>
		<polygon fill="#BDCCD4" points="-0.2,331.4 133.5,377.5 297,168.7 0.1,223.2 		"/>
		<polygon fill="#CAD6DD" points="257,388.7 297,168.7 133.5,377.5 		"/>
		<polygon fill="#D7E0E5" points="-0.5,615.3 91,615.6 133.5,377.5 -0.4,424.1 		"/>
		<polygon fill="#0E5E8D" points="315.7,616.2 247.2,526.5 91,615.6 		"/>
		<polygon fill="#BDCCD4" points="247.2,526.5 133.5,377.5 91,615.6 		"/>
		<polygon fill="#B3D9F0" points="257,388.7 305.6,603 133.5,377.5 		"/>
		<polygon fill="#8EC7E9" points="467,475.9 257,388.7 305.6,603 		"/>
		<polygon fill="#42A1DA" points="609.7,370.5 257,388.7 467,475.9 		"/>
		<polygon fill="#BDCCD4" points="297,168.7 257,388.7 609.7,370.5 		"/>
		<polygon fill="#CAD6DD" points="667.6,309.6 610.6,60.2 297,168.7 		"/>
		<polygon fill="#D7E0E5" points="609.7,370.5 667.6,309.6 297,168.7 		"/>
	</g>
	<polygon fill="#D7E0E5" points="610.6,60.2 764.5,225.4 667.6,309.6 	"/>
	<polygon fill="#D7E0E5" points="1095.4,114.7 764.5,225.4 724.4,2.1 827.8,2.4 	"/>
	<polygon fill="#BDCCD4" points="1085.6,3.1 1095.4,114.7 827.8,2.4 	"/>
	<polygon fill="#D7E0E5" points="1280.6,3.7 1280.4,61.5 1095.4,114.7 1136.4,3.3 	"/>
	<polygon fill="#D7E0E5" points="1084.7,3.1 1136.4,3.3 1095.4,114.7 	"/>
	<polygon fill="#B3D9F0" points="764.5,225.4 1095.4,114.8 1006.7,293.5 	"/>
	<polygon fill="#BDCCD4" points="-0.4,424.1 133.5,377.5 0.3,331.4 	"/>
</g>
<g opacity="0.65">
	<polygon fill="#0E5E8D" points="699.7,617.4 700.1,453.2 467.4,475.9 624.9,617.1 	"/>
	<polygon fill="#68B4E1" points="305.6,603 467,475.9 624.3,617.1 315.7,616.3 	"/>
	<polygon fill="#42A1DA" points="1280.1,171.6 1095.4,114.8 1280.4,61.5 	"/>
	<polygon fill="#C2E1F3" points="1109.3,298.6 1279.4,242.5 1280.1,171.6 1095.4,114.8 	"/>
	<polygon fill="#42A1DA" points="1006.7,293.5 1095.4,114.8 1109.3,298.6 	"/>
	<polygon fill="#C2E1F3" points="750.7,286.7 1006.7,293.5 764.5,225.4 	"/>
	<polygon fill="#68B4E1" points="667.6,309.6 750.7,286.7 764.5,225.4 	"/>
	<polygon fill="#42A1DA" points="733.6,352.8 750.7,286.7 667.6,309.6 	"/>
	<polygon fill="#0E5E8D" points="609.7,370.5 733.6,352.8 667.6,309.6 	"/>
	<polygon fill="#C2E1F3" points="699.4,453.2 609.7,370.5 467,475.9 	"/>
	<polygon fill="#68B4E1" points="840.3,390.4 750.7,286.7 733.6,352.8 	"/>
	<polygon fill="#8EC7E9" points="1006.7,293.5 840.3,390.4 750.7,286.7 	"/>
	<polygon fill="#C2E1F3" points="986.6,399.9 1006.7,293.5 840.3,390.4 	"/>
	<polygon fill="#68B4E1" points="1109.3,298.6 1006.7,293.5 986.6,399.9 	"/>
	<polygon fill="#8EC7E9" points="1213.9,339.5 1279.7,294.3 1279.9,241.9 1109.3,298.6 	"/>
	<polygon fill="#68B4E1" points="1187.1,364.4 1213.9,339.5 1109.3,298.6 	"/>
	<polygon fill="#C2E1F3" points="986.6,399.9 1187.1,364.4 1109.3,298.6 	"/>
	<polygon fill="#42A1DA" points="986.5,463 1186,364.4 986.6,399.9 	"/>
	<polygon fill="#68B4E1" points="1281.3,407.9 1186.3,364.4 986.7,463 1133.8,618.6 	"/>
	<polygon fill="#0E5E8D" points="1278.8,619 1279.4,407.9 1133.8,618.6 	"/>
	<polygon fill="#C2E1F3" points="986.7,463 1133.8,618.6 960,618.1 	"/>
	<polygon fill="#8EC7E9" points="785.4,617.6 960.9,618.1 986.7,463 	"/>
	<polygon fill="#42A1DA" points="700.1,453.2 987.1,463 785.4,617.6 699.7,617.4 	"/>
	<polygon fill="#68B4E1" points="840.3,390.4 986.7,463 699.4,453.2 	"/>
	<polygon fill="#42A1DA" points="733.6,352.8 840.3,390.4 699.4,453.2 609.7,370.5 	"/>
	<polygon fill="#8EC7E9" points="986.6,399.9 986.5,463 840,390.4 	"/>
	<polygon fill="#0E5E8D" points="1186.3,364.4 1213.9,339.5 1279,381.5 1279.4,407.9 	"/>
	<polygon fill="#42A1DA" points="1279.7,294.3 1279,381.5 1213.9,339.5 	"/>
</g>
</svg>
