<?xml version="1.0" encoding="utf-8"?>
<!-- Generator: Adobe Illustrator 18.1.1, SVG Export Plug-In . SVG Version: 6.00 Build 0)  -->
<svg version="1.1" id="Layer_1" xmlns="http://www.w3.org/2000/svg" xmlns:xlink="http://www.w3.org/1999/xlink" x="0px" y="0px"
	 viewBox="0 0 2000 1000" enable-background="new 0 0 2000 1000" xml:space="preserve">
<g>
	<path fill="#FFFFFF" stroke="#42A1DA" stroke-width="46" stroke-miterlimit="10" stroke-opacity="0.8" d="M958.2,929.7l-303-177.4
		c-29.8-17.3-47.9-49.8-47.9-84.4l3.4-350.6c0.5-34.6,19.2-66.2,48.9-83.4L965.9,60.3c30.2-16.8,66.6-16.8,96.4,0.5l303,177.4
		c29.8,17.3,47.9,49.8,47.9,84.4l-2.9,351c-0.5,34.6-19.2,66.2-48.9,83.4l-306.4,174.1C1024.4,947.4,987.9,947.4,958.2,929.7z"/>
	<g display="none" opacity="0.29" enable-background="new    ">
		<g display="inline">
			<defs>
				<path id="SVGID_1_" d="M955.9,928.7L652.9,751.3c-29.7-17.3-47.9-49.8-47.9-84.4l3.3-350.5c0.5-34.5,19.2-66.2,48.9-83.4
					L963.6,59.3c30.2-16.8,66.7-16.8,96.4,0.5L1363,237.2c29.7,17.3,47.9,49.8,47.9,84.4l-2.8,351c-0.5,34.5-19.2,66.2-48.9,83.4
					l-306.4,174.1C1022.2,946.5,985.7,946.5,955.9,928.7z"/>
			</defs>
			<clipPath id="SVGID_2_">
				<use xlink:href="#SVGID_1_"  overflow="visible"/>
			</clipPath>
			<g clip-path="url(#SVGID_2_)">
				<g opacity="0.21">
					<polygon fill="#3E6896" points="1365.3,523.8 1811.8,572.2 1532.7,730.6 					"/>
					<polygon fill="#2F4E71" points="1996.6,812.7 1811.8,572.2 2098.7,666.5 					"/>
				</g>
				<g opacity="0.65">
					<polygon fill="#0E5E8D" points="687.2,783.7 838.3,565 1116.3,803.1 783.6,850.2 					"/>
					<polygon fill="#68B4E1" points="1206.8,1116.5 1116.9,803.4 784.3,850.7 1181.6,1125.1 					"/>
					<polygon fill="#42A1DA" points="353.4,-327.1 643.1,-237.9 454.7,-473.9 					"/>
					<polygon fill="#C2E1F3" points="455.5,-5.9 288.6,-232.3 353.4,-327.1 643.1,-237.9 					"/>
					<polygon fill="#42A1DA" points="592,78.9 643.1,-237.9 455.5,-5.9 					"/>
					<polygon fill="#C2E1F3" points="927.1,298.5 592,78.9 966.2,204.8 					"/>
					<polygon fill="#68B4E1" points="1012.9,403.2 927.1,298.5 966.2,204.8 					"/>
					<polygon fill="#42A1DA" points="888.1,401.7 927.1,298.5 1012.9,403.2 					"/>
					<polygon fill="#0E5E8D" points="1030.9,535.8 888.1,401.7 1066.2,376.5 					"/>
					<polygon fill="#C2E1F3" points="839.3,565.7 1030.9,535.8 1116.9,803.4 					"/>
					<polygon fill="#68B4E1" points="716.2,356.5 927.1,298.5 888.1,401.7 					"/>
					<polygon fill="#8EC7E9" points="592,78.9 716.2,356.5 927.1,298.5 					"/>
					<polygon fill="#C2E1F3" points="519.6,238.4 592,78.9 716.2,356.5 					"/>
					<polygon fill="#68B4E1" points="455.5,-5.9 592,78.9 519.6,238.4 					"/>
					<polygon fill="#8EC7E9" points="283.2,-44.8 240.5,-163.8 288.6,-233.5 455.5,-5.9 					"/>
					<polygon fill="#68B4E1" points="294.7,12.1 283.2,-44.8 455.5,-5.9 					"/>
					<polygon fill="#C2E1F3" points="519.6,238.4 294.7,12.1 455.5,-5.9 					"/>
					<polygon fill="#42A1DA" points="461.3,322.5 296.1,13.1 519.5,238.3 					"/>
					<polygon fill="#68B4E1" points="137,-12.7 295.8,12.9 461,322.3 128.3,397.8 					"/>
					<polygon fill="#0E5E8D" points="-58.4,268.9 135.9,-12.3 128.3,397.8 					"/>
					<polygon fill="#C2E1F3" points="461,322.3 128.3,397.8 352,552.3 					"/>
					<polygon fill="#8EC7E9" points="576.8,707.6 350.9,551.5 461,322.3 					"/>
					<polygon fill="#42A1DA" points="838.3,565 460.5,321.9 576.8,707.6 687.2,783.7 					"/>
					<polygon fill="#68B4E1" points="716.2,356.5 461,322.3 839.3,565.7 					"/>
					<polygon fill="#42A1DA" points="888.1,401.7 716.2,356.5 839.3,565.7 1030.9,535.8 					"/>
					<polygon fill="#8EC7E9" points="519.5,238.3 461.3,322.5 716.6,356.7 					"/>
					<polygon fill="#0E5E8D" points="295.8,12.9 283.2,-44.8 160.8,-47.2 135.9,-12.3 					"/>
					<polygon fill="#42A1DA" points="240.5,-163.8 160.8,-47.2 283.2,-44.8 					"/>
				</g>
				<g opacity="0.65">
					<polygon fill="#3E6896" points="839,887.2 991.3,669.3 671.2,491.7 743,820 					"/>
					<polygon fill="#B2C3D5" points="312,516.8 670.8,491.4 742.3,819.5 346.7,543 					"/>
					<polygon fill="#B2C3D5" points="1659.9,829.1 1930.1,906.4 1996.6,812.7 1811.8,572.2 					"/>
					<polygon fill="#2F4E71" points="1532.7,730.6 1811.8,572.2 1659.9,829.1 					"/>
					<polygon fill="#B2C3D5" points="1089.5,596.2 1365.3,523.8 1331.4,400.9 					"/>
					<polygon fill="#6586AB" points="1089.5,596.2 1532.7,730.6 1365.3,523.8 					"/>
					<polygon fill="#6586AB" points="1082.1,449.3 1089.5,596.2 1331.4,400.9 					"/>
					<polygon fill="#3E6896" points="951.5,478.7 1089.5,596.2 1082.1,449.3 					"/>
					<polygon fill="#6586AB" points="990.2,668.6 951.5,478.7 670.8,491.4 					"/>
					<polygon fill="#8BA4C0" points="1532.7,730.6 1229.2,711 1089.5,596.2 					"/>
					<polygon fill="#B2C3D5" points="1408.6,854.2 1532.7,730.6 1229.2,711 					"/>
					<polygon fill="#6586AB" points="1659.9,829.1 1532.7,730.6 1408.6,854.2 					"/>
					<polygon fill="#8BA4C0" points="1756.4,976.7 1882.8,975.4 1931.3,906 1659.9,829.1 					"/>
					<polygon fill="#6586AB" points="1699,985.9 1756.4,976.7 1659.9,829.1 					"/>
					<polygon fill="#B2C3D5" points="1408.6,854.2 1699,985.9 1659.9,829.1 					"/>
					<polygon fill="#2F4E71" points="1350.1,938 1697.6,984.9 1408.6,854.2 					"/>
					<polygon fill="#6586AB" points="1777.3,1125.1 1698,985.2 1350.5,938.2 1395.6,1276.5 					"/>
					<polygon fill="#3E6896" points="1581.5,1406.4 1777.3,1126.3 1395.6,1276.5 					"/>
					<polygon fill="#B2C3D5" points="1350.5,938.2 1395.6,1276.5 1172.7,1120.6 					"/>
					<polygon fill="#8BA4C0" points="948.8,964.1 1173.9,1121.4 1350.5,938.2 					"/>
					<polygon fill="#2F4E71" points="991.3,669.3 1350.9,938.5 948.8,964.1 839,887.2 					"/>
					<polygon fill="#6586AB" points="1229.2,711 1350.5,938.2 990.2,668.6 					"/>
					<polygon fill="#2F4E71" points="1089.5,596.2 1229.2,711 990.2,668.6 951.5,478.7 					"/>
					<polygon fill="#8BA4C0" points="1408.6,854.2 1350.1,938 1228.9,710.8 					"/>
					<polygon fill="#3E6896" points="1698,985.2 1756.4,976.7 1801.3,1090.7 1777.3,1126.3 					"/>
					<polygon fill="#2F4E71" points="1882.8,975.4 1801.3,1090.7 1756.4,976.7 					"/>
				</g>
				<g opacity="0.65">
					<polygon fill="#841D53" points="1252.9,-35.8 1100.5,182.1 1420.6,359.5 1348.7,31.3 					"/>
					<polygon fill="#C0528C" points="1745.9,335.1 1421.1,359.9 1349.4,31.8 1745.2,308.4 					"/>
					<polygon fill="#B0276F" points="95.2,38.7 279.9,279.2 -6.8,184.8 					"/>
					<polygon fill="#DFA9C5" points="432,22.4 161.6,-55 95.2,38.7 279.9,279.2 					"/>
					<polygon fill="#B0276F" points="559,120.7 279.9,279.2 432,22.4 					"/>
					<polygon fill="#DFA9C5" points="881.7,358.3 559,120.7 807.5,427.5 					"/>
					<polygon fill="#C0528C" points="1009.7,402.1 881.7,358.3 807.5,427.5 					"/>
					<polygon fill="#B0276F" points="964.9,285.7 881.7,358.3 1009.7,402.1 					"/>
					<polygon fill="#841D53" points="1140.3,372.7 964.9,285.7 1050.2,484.2 					"/>
					<polygon fill="#C0528C" points="1101.5,182.8 1140.3,372.7 1421.1,359.9 					"/>
					<polygon fill="#C0528C" points="862.5,140.4 881.7,358.3 964.9,285.7 					"/>
					<polygon fill="#D07DA9" points="559,120.7 862.5,140.4 881.7,358.3 					"/>
					<polygon fill="#DFA9C5" points="683.2,-2.8 559,120.7 862.5,140.4 					"/>
					<polygon fill="#C0528C" points="432,22.4 559,120.7 683.2,-2.8 					"/>
					<polygon fill="#D07DA9" points="335.4,-125.5 209,-124.1 160.5,-54.6 432,22.4 					"/>
					<polygon fill="#C0528C" points="392.8,-134.7 335.4,-125.5 432,22.4 					"/>
					<polygon fill="#DFA9C5" points="683.2,-2.8 392.8,-134.7 432,22.4 					"/>
					<polygon fill="#B0276F" points="741.7,-86.7 394.3,-133.6 683.1,-2.8 					"/>
					<polygon fill="#C0528C" points="314.5,-273.7 393.9,-133.9 741.4,-86.9 696.2,-425.1 					"/>
					<polygon fill="#841D53" points="510.3,-555.2 314.5,-274.9 696.2,-425.1 					"/>
					<polygon fill="#DFA9C5" points="741.4,-86.9 696.2,-425.1 919,-269.2 					"/>
					<polygon fill="#D07DA9" points="1142.9,-112.7 917.9,-270.1 741.4,-86.9 					"/>
					<polygon fill="#B0276F" points="1100.5,182.1 740.9,-87.3 1142.9,-112.7 1252.9,-35.8 					"/>
					<polygon fill="#C0528C" points="862.5,140.4 741.4,-86.9 1101.5,182.8 					"/>
					<polygon fill="#B0276F" points="964.9,285.7 862.5,140.4 1101.5,182.8 1140.3,372.7 					"/>
					<polygon fill="#D07DA9" points="683.1,-2.8 741.7,-86.7 862.9,140.7 					"/>
					<polygon fill="#841D53" points="393.9,-133.9 335.4,-125.5 290.4,-239.4 314.5,-274.9 					"/>
					<polygon fill="#B0276F" points="209,-124.1 290.4,-239.4 335.4,-125.5 					"/>
				</g>
				<g opacity="0.79">
					<polygon fill="#90A4B0" points="1402.3,73.5 1251.2,292.4 973.3,54.3 1306,7.2 					"/>
					<polygon fill="#BDCCD4" points="882.7,-259.2 972.8,53.9 1305.3,6.7 908,-267.7 					"/>
					<polygon fill="#BDCCD4" points="1736.3,1184.5 1446.5,1095.3 1635,1331.2 					"/>
					<polygon fill="#D7E0E5" points="1634.1,863.3 1801,1089.6 1736.3,1184.5 1446.5,1095.3 					"/>
					<polygon fill="#BDCCD4" points="1497.7,778.5 1446.5,1095.3 1634.1,863.3 					"/>
					<polygon fill="#D7E0E5" points="1162.5,558.9 1497.7,778.5 1123.5,652.6 					"/>
					<polygon fill="#EAEFF1" points="1076.8,454.2 1162.5,558.9 1123.5,652.6 					"/>
					<polygon fill="#BDCCD4" points="1201.5,455.6 1162.5,558.9 1076.8,454.2 					"/>
					<polygon fill="#90A4B0" points="1058.7,321.6 1201.5,455.6 1076.8,454.2 					"/>
					<polygon fill="#D7E0E5" points="1250.3,291.7 1058.7,321.6 972.8,53.9 					"/>
					<polygon fill="#EAEFF1" points="1373.4,500.9 1162.5,558.9 1201.5,455.6 					"/>
					<polygon fill="#D7E0E5" points="1497.7,778.5 1373.4,500.9 1162.5,558.9 					"/>
					<polygon fill="#D7E0E5" points="1570.1,619 1497.7,778.5 1373.4,500.9 					"/>
					<polygon fill="#EAEFF1" points="1634.1,863.3 1497.7,778.5 1570.1,619 					"/>
					<polygon fill="#D7E0E5" points="1806.4,902.2 1849.1,1021 1800.9,1090.8 1634.1,863.3 					"/>
					<polygon fill="#BDCCD4" points="1795,845.2 1806.4,902.2 1634.1,863.3 					"/>
					<polygon fill="#D7E0E5" points="1570.1,619 1795,845.2 1634.1,863.3 					"/>
					<polygon fill="#BDCCD4" points="1628.2,534.8 1793.4,844.1 1570.2,619.1 					"/>
					<polygon fill="#EAEFF1" points="1952.6,870.1 1793.8,844.4 1628.6,535.1 1961.3,459.6 					"/>
					<polygon fill="#90A4B0" points="2148,588.3 1953.7,869.7 1961.3,459.6 					"/>
					<polygon fill="#D7E0E5" points="1628.6,535.1 1961.3,459.6 1737.6,305.1 					"/>
					<polygon fill="#D7E0E5" points="1512.7,149.8 1738.7,305.7 1628.6,535.1 					"/>
					<polygon fill="#BDCCD4" points="1251.2,292.4 1629.1,535.5 1512.7,149.8 1402.3,73.5 					"/>
					<polygon fill="#EAEFF1" points="1373.4,500.9 1628.6,535.1 1250.3,291.7 					"/>
					<polygon fill="#BDCCD4" points="1201.5,455.6 1373.4,500.9 1250.3,291.7 1058.7,321.6 					"/>
					<polygon fill="#D7E0E5" points="1570.2,619.1 1628.2,534.8 1373,500.7 					"/>
					<polygon fill="#90A4B0" points="1793.8,844.4 1806.4,902.2 1928.8,904.6 1953.7,869.7 					"/>
					<polygon fill="#BDCCD4" points="1849.1,1021 1928.8,904.6 1806.4,902.2 					"/>
				</g>
			</g>
		</g>
	</g>
</g>
<g>
	<path display="none" fill="#42A1DA" d="M1114.5,798.5H924.8c-25.7-13.4,5.6-36.9,12.3-78.3h163.4
		C1105.5,760.5,1139.1,782.9,1114.5,798.5z"/>
	<rect x="746.8" y="282.8" display="none" fill="#FFFFFF" width="549.1" height="372"/>
	<path fill="#42A1DA" d="M1281.3,704.5h-526c-23.5,0-42.5-19-42.5-42.5V297.7c0-23.5,19-42.5,42.5-42.5h526.5
		c23.5,0,42.5,19,42.5,42.5V662C1323.8,685.5,1304.8,704.5,1281.3,704.5z"/>
</g>
<g>
	<g>
		<line fill="none" stroke="#FFFFFF" stroke-width="10" stroke-miterlimit="10" x1="785.5" y1="400.7" x2="1055.9" y2="400.7"/>
		<line fill="none" stroke="#FFFFFF" stroke-width="10" stroke-miterlimit="10" x1="1075.8" y1="400.7" x2="1248.2" y2="400.7"/>
	</g>
	<g>
		<line fill="none" stroke="#FFFFFF" stroke-width="10" stroke-miterlimit="10" x1="785.5" y1="369.5" x2="914.8" y2="369.5"/>
		<line fill="none" stroke="#FFFFFF" stroke-width="10" stroke-miterlimit="10" x1="929.1" y1="369.5" x2="997.9" y2="369.5"/>
		<line fill="none" stroke="#FFFFFF" stroke-width="10" stroke-miterlimit="10" x1="1015.6" y1="369.5" x2="1170.4" y2="369.5"/>
	</g>
	<g>
		<line fill="none" stroke="#FFFFFF" stroke-width="10" stroke-miterlimit="10" x1="785.5" y1="463" x2="914.8" y2="463"/>
		<line fill="none" stroke="#FFFFFF" stroke-width="10" stroke-miterlimit="10" x1="929.1" y1="463" x2="997.9" y2="463"/>
		<line fill="none" stroke="#FFFFFF" stroke-width="10" stroke-miterlimit="10" x1="1015.6" y1="463" x2="1170.4" y2="463"/>
	</g>
	<g>
		<line fill="none" stroke="#FFFFFF" stroke-width="10" stroke-miterlimit="10" x1="1031.1" y1="431.8" x2="1185.9" y2="431.8"/>
		<line fill="none" stroke="#FFFFFF" stroke-width="10" stroke-miterlimit="10" x1="785.5" y1="431.8" x2="1003.8" y2="431.8"/>
	</g>
	<g>
		<line fill="none" stroke="#FFFFFF" stroke-width="10" stroke-miterlimit="10" x1="785.5" y1="525.3" x2="1055.9" y2="525.3"/>
		<line fill="none" stroke="#FFFFFF" stroke-width="10" stroke-miterlimit="10" x1="1075.8" y1="525.3" x2="1248.2" y2="525.3"/>
	</g>
	<g>
		<line fill="none" stroke="#FFFFFF" stroke-width="10" stroke-miterlimit="10" x1="785.5" y1="494.1" x2="914.8" y2="494.1"/>
		<line fill="none" stroke="#FFFFFF" stroke-width="10" stroke-miterlimit="10" x1="929.1" y1="494.1" x2="997.9" y2="494.1"/>
		<line fill="none" stroke="#FFFFFF" stroke-width="10" stroke-miterlimit="10" x1="1015.6" y1="494.1" x2="1170.4" y2="494.1"/>
	</g>
	<g>
		<line fill="none" stroke="#FFFFFF" stroke-width="10" stroke-miterlimit="10" x1="785.5" y1="587.5" x2="914.8" y2="587.5"/>
		<line fill="none" stroke="#FFFFFF" stroke-width="10" stroke-miterlimit="10" x1="929.1" y1="587.5" x2="997.9" y2="587.5"/>
		<line fill="none" stroke="#FFFFFF" stroke-width="10" stroke-miterlimit="10" x1="1015.6" y1="587.5" x2="1170.4" y2="587.5"/>
	</g>
	<g>
		<line fill="none" stroke="#FFFFFF" stroke-width="10" stroke-miterlimit="10" x1="1031.1" y1="556.4" x2="1185.9" y2="556.4"/>
		<line fill="none" stroke="#FFFFFF" stroke-width="10" stroke-miterlimit="10" x1="785.5" y1="556.4" x2="1003.8" y2="556.4"/>
	</g>
	<path fill="#FFFFFF" stroke="#FFFFFF" stroke-width="3" stroke-miterlimit="10" d="M845.9,325.1l-15.4,10.1
		c-0.3,0.2-0.6,0.2-1.1,0.2c0,0-0.3,0-0.6-0.2L827,334c0-0.2-0.3-0.2-0.3-0.4c0-0.2,0.3-0.4,0.3-0.4l13-8.8l-13-8.6
		c0,0-0.3-0.2-0.3-0.4s0.3-0.4,0.3-0.4l1.7-1.1c0.3-0.2,0.6-0.2,0.6-0.2c0.3,0,0.6,0,1.1,0.2l15.4,10.1c0.3,0.2,0.3,0.4,0.3,0.4
		C846.2,324.6,846.2,324.8,845.9,325.1 M823.9,310.7l-8.2,28.2c0,0.2-0.3,0.2-0.6,0.4c0,0-0.3,0-0.6,0l-2-0.4c-0.3,0-0.6,0-0.6-0.2
		s0-0.4,0-0.4l8.2-28.2c0-0.2,0.3-0.2,0.6-0.4c0,0,0.3,0,0.6,0l2,0.4c0.3,0,0.3,0,0.6,0.2C823.9,310.5,823.9,310.7,823.9,310.7z
		 M804.4,334l-1.7,1.1c-0.3,0.2-0.6,0.2-0.6,0.2c-0.3,0-0.6,0-1.1-0.2l-15.4-10.1c-0.3-0.2-0.3-0.4-0.3-0.7c0,0,0-0.2,0.3-0.4
		l15.4-10.1c0.3-0.2,0.6-0.2,1.1-0.2c0,0,0.3,0,0.6,0.2l1.7,1.1c0,0,0.3,0.2,0.3,0.4c0,0.2-0.3,0.4-0.3,0.4l-13.3,8.6l13.4,8.8
		c0,0,0.3,0.2,0.3,0.4C804.7,333.8,804.4,333.8,804.4,334z"/>
	<path fill="#FFFFFF" stroke="#FFFFFF" stroke-width="3" stroke-miterlimit="10" d="M1177.8,629.9l-15.4,10.1
		c-0.3,0.2-0.6,0.2-1.1,0.2c0,0-0.3,0-0.6-0.2l-1.7-1.1c0-0.2-0.3-0.2-0.3-0.4c0-0.2,0.3-0.4,0.3-0.4l13-8.8l-13-8.6
		c0,0-0.3-0.2-0.3-0.4c0-0.2,0.3-0.4,0.3-0.4l1.7-1.1c0.3-0.2,0.6-0.2,0.6-0.2c0.3,0,0.6,0,1.1,0.2l15.4,10.1
		c0.3,0.2,0.3,0.4,0.3,0.4C1178.1,629.5,1178.1,629.7,1177.8,629.9 M1155.9,615.5l-8.2,28.2c0,0.2-0.3,0.2-0.6,0.4c0,0-0.3,0-0.6,0
		l-2-0.4c-0.3,0-0.6,0-0.6-0.2s0-0.4,0-0.4l8.2-28.2c0-0.2,0.3-0.2,0.6-0.4c0,0,0.3,0,0.6,0l2,0.4c0.3,0,0.3,0,0.6,0.2
		C1155.9,615.4,1155.9,615.5,1155.9,615.5z M1136.3,638.8l-1.7,1.1c-0.3,0.2-0.6,0.2-0.6,0.2c-0.3,0-0.6,0-1.1-0.2l-15.4-10.1
		c-0.3-0.2-0.3-0.4-0.3-0.7c0,0,0-0.2,0.3-0.4l15.4-10.1c0.3-0.2,0.6-0.2,1.1-0.2c0,0,0.3,0,0.6,0.2l1.7,1.1c0,0,0.3,0.2,0.3,0.4
		c0,0.2-0.3,0.4-0.3,0.4l-13.3,8.6l13.4,8.8c0,0,0.3,0.2,0.3,0.4C1136.6,638.6,1136.3,638.6,1136.3,638.8z"/>
</g>
</svg>
