<?xml version="1.0" encoding="utf-8"?>
<!-- Generator: Adobe Illustrator 18.1.1, SVG Export Plug-In . SVG Version: 6.00 Build 0)  -->
<svg version="1.1" id="Layer_1" xmlns="http://www.w3.org/2000/svg" xmlns:xlink="http://www.w3.org/1999/xlink" x="0px" y="0px"
	 viewBox="0 0 2000 1000" enable-background="new 0 0 2000 1000" xml:space="preserve">
<path fill="#FFFFFF" stroke="#3E6896" stroke-width="46" stroke-miterlimit="10" stroke-opacity="0.8" d="M947.8,949.6l-303-177.4
	c-29.8-17.3-47.9-49.8-47.9-84.4l3.4-350.6c0.5-34.6,19.2-66.2,48.9-83.4L955.4,80.2c30.2-16.8,66.6-16.8,96.4,0.5l303,177.4
	c29.8,17.3,47.9,49.8,47.9,84.4l-2.9,351c-0.5,34.6-19.2,66.2-48.9,83.4L1044.6,951C1013.9,967.3,977.4,967.3,947.8,949.6z"/>
<g display="none">
	<g display="inline" opacity="0.29" enable-background="new    ">
		<g>
			<defs>
				<path id="SVGID_1_" d="M945.5,948.6L642.4,771.2c-29.7-17.3-47.9-49.8-47.9-84.4l3.3-350.5c0.5-34.5,19.2-66.2,48.9-83.4
					L953.1,79.2c30.2-16.8,66.7-16.8,96.4,0.5l303.1,177.5c29.7,17.3,47.9,49.8,47.9,84.4l-2.8,351c-0.5,34.5-19.2,66.2-48.9,83.4
					l-306.4,174.1C1011.8,966.4,975.3,966.4,945.5,948.6z"/>
			</defs>
			<clipPath id="SVGID_2_">
				<use xlink:href="#SVGID_1_"  overflow="visible"/>
			</clipPath>
			<g clip-path="url(#SVGID_2_)">
				<g opacity="0.21">
					<polygon fill="#3E6896" points="1010.2,735.7 587.7,583.4 896.3,495.3 					"/>
					<polygon fill="#2F4E71" points="464.8,306.1 587.7,583.4 331.1,424.1 					"/>
				</g>
				<g opacity="0.65">
					<polygon fill="#0E5E8D" points="1730.4,643.1 1532,820 1318,523 1652.4,555.8 					"/>
					<polygon fill="#68B4E1" points="1304,197.2 1317.5,522.7 1651.9,555.1 1330.5,194.7 					"/>
					<polygon fill="#42A1DA" points="1792.9,1801.3 1532.3,1646.3 1659.8,1920 					"/>
					<polygon fill="#C2E1F3" points="1769.4,1465.1 1878.2,1724.4 1792.9,1801.3 1532.3,1646.3 					"/>
					<polygon fill="#42A1DA" points="1656.8,1350.5 1532.3,1646.3 1769.4,1465.1 					"/>
					<polygon fill="#C2E1F3" points="1382.8,1058.1 1656.8,1350.5 1322.8,1139.9 					"/>
					<polygon fill="#68B4E1" points="1324.2,936.1 1382.8,1058.1 1322.8,1139.9 					"/>
					<polygon fill="#42A1DA" points="1445.1,966.9 1382.8,1058.1 1324.2,936.1 					"/>
					<polygon fill="#0E5E8D" points="1338,803 1445.1,966.9 1266.1,949.4 					"/>
					<polygon fill="#C2E1F3" points="1531.2,819.1 1338,803 1317.5,522.7 					"/>
					<polygon fill="#68B4E1" points="1601.5,1051.5 1382.8,1058.1 1445.1,966.9 					"/>
					<polygon fill="#8EC7E9" points="1656.8,1350.5 1601.5,1051.5 1382.8,1058.1 					"/>
					<polygon fill="#C2E1F3" points="1764.7,1212.6 1656.8,1350.5 1601.5,1051.5 					"/>
					<polygon fill="#68B4E1" points="1769.4,1465.1 1656.8,1350.5 1764.7,1212.6 					"/>
					<polygon fill="#8EC7E9" points="1927.6,1543.5 1941.1,1669.3 1877.9,1725.6 1769.4,1465.1 					"/>
					<polygon fill="#68B4E1" points="1929.9,1485.5 1927.6,1543.5 1769.4,1465.1 					"/>
					<polygon fill="#C2E1F3" points="1764.7,1212.6 1929.9,1485.5 1769.4,1465.1 					"/>
					<polygon fill="#42A1DA" points="1841.2,1144.6 1928.7,1484.2 1764.8,1212.6 					"/>
					<polygon fill="#68B4E1" points="2077.3,1546.8 1929,1484.5 1841.4,1144.9 2182.6,1149.9 					"/>
					<polygon fill="#0E5E8D" points="2333.6,1319.3 2078.4,1546.6 2182.6,1149.9 					"/>
					<polygon fill="#C2E1F3" points="1841.4,1144.9 2182.6,1149.9 2001.6,947.1 					"/>
					<polygon fill="#8EC7E9" points="1819.7,743.1 2002.5,948.1 1841.4,1144.9 					"/>
					<polygon fill="#42A1DA" points="1532,820 1841.9,1145.3 1819.7,743.1 1730.4,643.1 					"/>
					<polygon fill="#68B4E1" points="1601.5,1051.5 1841.4,1144.9 1531.2,819.1 					"/>
					<polygon fill="#42A1DA" points="1445.1,966.9 1601.5,1051.5 1531.2,819.1 1338,803 					"/>
					<polygon fill="#8EC7E9" points="1764.8,1212.6 1841.2,1144.6 1601.1,1051.1 					"/>
					<polygon fill="#0E5E8D" points="1929,1484.5 1927.6,1543.5 2046,1574.7 2078.4,1546.6 					"/>
					<polygon fill="#42A1DA" points="1941.1,1669.3 2046,1574.7 1927.6,1543.5 					"/>
				</g>
				<g opacity="0.65">
					<polygon fill="#3E6896" points="1607.4,506.8 1408,682.6 1677.2,930.6 1684.8,594.6 					"/>
					<polygon fill="#B2C3D5" points="2032.1,991 1677.5,931 1685.3,595.3 2004.6,957.4 					"/>
					<polygon fill="#B2C3D5" points="795.9,369.6 551.5,230.7 464.8,306.1 587.7,583.4 					"/>
					<polygon fill="#2F4E71" points="896.3,495.3 587.7,583.4 795.9,369.6 					"/>
					<polygon fill="#B2C3D5" points="1295.3,730.5 1010.2,735.7 1014.1,863.2 					"/>
					<polygon fill="#6586AB" points="1295.3,730.5 896.3,495.3 1010.2,735.7 					"/>
					<polygon fill="#6586AB" points="1267.8,874.9 1295.3,730.5 1014.1,863.2 					"/>
					<polygon fill="#3E6896" points="1401.6,877.2 1295.3,730.5 1267.8,874.9 					"/>
					<polygon fill="#6586AB" points="1408.8,683.5 1401.6,877.2 1677.5,931 					"/>
					<polygon fill="#8BA4C0" points="896.3,495.3 1186.5,585.9 1295.3,730.5 					"/>
					<polygon fill="#B2C3D5" points="1046,404.5 896.3,495.3 1186.5,585.9 					"/>
					<polygon fill="#6586AB" points="795.9,369.6 896.3,495.3 1046,404.5 					"/>
					<polygon fill="#8BA4C0" points="736.9,203.4 613.8,174.9 550.3,230.8 795.9,369.6 					"/>
					<polygon fill="#6586AB" points="794.9,208 736.9,203.4 795.9,369.6 					"/>
					<polygon fill="#B2C3D5" points="1046,404.5 794.9,208 795.9,369.6 					"/>
					<polygon fill="#2F4E71" points="1122.7,336.9 796,209.3 1046,404.5 					"/>
					<polygon fill="#6586AB" points="751.6,54.3 795.7,208.9 1122.3,336.5 1158.2,-2.9 					"/>
					<polygon fill="#3E6896" points="1008.3,-172.9 751.9,53.1 1158.2,-2.9 					"/>
					<polygon fill="#B2C3D5" points="1122.3,336.5 1158.2,-2.9 1338.1,201.2 					"/>
					<polygon fill="#8BA4C0" points="1518.8,406.1 1337.2,200.2 1122.3,336.5 					"/>
					<polygon fill="#2F4E71" points="1408,682.6 1122,336.1 1518.8,406.1 1607.4,506.8 					"/>
					<polygon fill="#6586AB" points="1186.5,585.9 1122.3,336.5 1408.8,683.5 					"/>
					<polygon fill="#2F4E71" points="1295.3,730.5 1186.5,585.9 1408.8,683.5 1401.6,877.2 					"/>
					<polygon fill="#8BA4C0" points="1046,404.5 1122.7,336.9 1186.8,586.2 					"/>
					<polygon fill="#3E6896" points="795.7,208.9 736.9,203.4 720.2,82 751.9,53.1 					"/>
					<polygon fill="#2F4E71" points="613.8,174.9 720.2,82 736.9,203.4 					"/>
				</g>
				<g opacity="0.65">
					<polygon fill="#841D53" points="987.4,1306.1 1186.9,1130.3 917.7,882.3 910.2,1218.3 					"/>
					<polygon fill="#C0528C" points="595.8,829.4 917.3,881.9 909.6,1217.6 590.2,855.4 					"/>
					<polygon fill="#B0276F" points="2130,1506.7 2007.2,1229.5 2263.7,1388.8 					"/>
					<polygon fill="#DFA9C5" points="1798.9,1443.2 2043.4,1582.2 2130,1506.7 2007.2,1229.5 					"/>
					<polygon fill="#B0276F" points="1698.6,1317.6 2007.2,1229.5 1798.9,1443.2 					"/>
					<polygon fill="#DFA9C5" points="1441.1,1010.7 1698.6,1317.6 1529.6,960.9 					"/>
					<polygon fill="#C0528C" points="1327,937.9 1441.1,1010.7 1529.6,960.9 					"/>
					<polygon fill="#B0276F" points="1343.1,1061.6 1441.1,1010.7 1327,937.9 					"/>
					<polygon fill="#841D53" points="1193.2,935.6 1343.1,1061.6 1307,848.5 					"/>
					<polygon fill="#C0528C" points="1186.1,1129.4 1193.2,935.6 917.3,881.9 					"/>
					<polygon fill="#C0528C" points="1408.4,1227 1441.1,1010.7 1343.1,1061.6 					"/>
					<polygon fill="#D07DA9" points="1698.6,1317.6 1408.4,1227 1441.1,1010.7 					"/>
					<polygon fill="#DFA9C5" points="1548.8,1408.3 1698.6,1317.6 1408.4,1227 					"/>
					<polygon fill="#C0528C" points="1798.9,1443.2 1698.6,1317.6 1548.8,1408.3 					"/>
					<polygon fill="#D07DA9" points="1857.9,1609.6 1981,1638.1 2044.5,1582 1798.9,1443.2 					"/>
					<polygon fill="#C0528C" points="1799.9,1605 1857.9,1609.6 1798.9,1443.2 					"/>
					<polygon fill="#DFA9C5" points="1548.8,1408.3 1799.9,1605 1798.9,1443.2 					"/>
					<polygon fill="#B0276F" points="1472.2,1476.1 1798.7,1603.6 1548.9,1408.4 					"/>
					<polygon fill="#C0528C" points="1843.3,1758.6 1799,1604 1472.4,1476.4 1436.6,1815.7 					"/>
					<polygon fill="#841D53" points="1586.6,1985.9 1842.9,1759.7 1436.6,1815.7 					"/>
					<polygon fill="#DFA9C5" points="1472.4,1476.4 1436.6,1815.7 1256.9,1611.7 					"/>
					<polygon fill="#D07DA9" points="1076.1,1406.8 1257.7,1612.8 1472.4,1476.4 					"/>
					<polygon fill="#B0276F" points="1186.9,1130.3 1472.8,1476.8 1076.1,1406.8 987.4,1306.1 					"/>
					<polygon fill="#C0528C" points="1408.4,1227 1472.4,1476.4 1186.1,1129.4 					"/>
					<polygon fill="#B0276F" points="1343.1,1061.6 1408.4,1227 1186.1,1129.4 1193.2,935.6 					"/>
					<polygon fill="#D07DA9" points="1548.9,1408.4 1472.2,1476.1 1408.1,1226.6 					"/>
					<polygon fill="#841D53" points="1799,1604 1857.9,1609.6 1874.7,1730.9 1842.9,1759.7 					"/>
					<polygon fill="#B0276F" points="1981,1638.1 1874.7,1730.9 1857.9,1609.6 					"/>
				</g>
				<g>
					<polygon fill="#90A4B0" points="868,1164.6 1066.5,987.6 1280.4,1284.5 945.9,1251.8 					"/>
					<polygon fill="#BDCCD4" points="1294.5,1610.4 1280.8,1284.9 946.5,1252.4 1267.9,1612.8 					"/>
					<polygon fill="#BDCCD4" points="805.5,6.2 1066.1,161.2 938.5,-112.4 					"/>
					<polygon fill="#D7E0E5" points="829,342.5 720.2,83.1 805.5,6.2 1066.1,161.2 					"/>
					<polygon fill="#BDCCD4" points="941.6,457 1066.1,161.2 829,342.5 					"/>
					<polygon fill="#D7E0E5" points="1215.6,749.5 941.6,457 1275.6,667.6 					"/>
					<polygon fill="#EAEFF1" points="1274.2,871.4 1215.6,749.5 1275.6,667.6 					"/>
					<polygon fill="#BDCCD4" points="1153.3,840.6 1215.6,749.5 1274.2,871.4 					"/>
					<polygon fill="#90A4B0" points="1260.4,1004.5 1153.3,840.6 1274.2,871.4 					"/>
					<polygon fill="#D7E0E5" points="1067.2,988.4 1260.4,1004.5 1280.8,1284.9 					"/>
					<polygon fill="#EAEFF1" points="996.9,756.1 1215.6,749.5 1153.3,840.6 					"/>
					<polygon fill="#D7E0E5" points="941.6,457 996.9,756.1 1215.6,749.5 					"/>
					<polygon fill="#D7E0E5" points="833.6,595 941.6,457 996.9,756.1 					"/>
					<polygon fill="#EAEFF1" points="829,342.5 941.6,457 833.6,595 					"/>
					<polygon fill="#D7E0E5" points="670.8,264 657.3,138.4 720.6,82 829,342.5 					"/>
					<polygon fill="#BDCCD4" points="668.4,322.1 670.8,264 829,342.5 					"/>
					<polygon fill="#D7E0E5" points="833.6,595 668.4,322.1 829,342.5 					"/>
					<polygon fill="#BDCCD4" points="757.3,663 669.7,323.5 833.6,594.9 					"/>
					<polygon fill="#EAEFF1" points="521.1,260.7 669.3,323.1 756.9,662.6 415.8,657.6 					"/>
					<polygon fill="#90A4B0" points="264.8,488.4 519.9,260.9 415.8,657.6 					"/>
					<polygon fill="#D7E0E5" points="756.9,662.6 415.8,657.6 596.8,860.5 					"/>
					<polygon fill="#D7E0E5" points="778.7,1064.5 595.9,859.6 756.9,662.6 					"/>
					<polygon fill="#BDCCD4" points="1066.5,987.6 756.5,662.2 778.7,1064.5 868,1164.6 					"/>
					<polygon fill="#EAEFF1" points="996.9,756.1 756.9,662.6 1067.2,988.4 					"/>
					<polygon fill="#BDCCD4" points="1153.3,840.6 996.9,756.1 1067.2,988.4 1260.4,1004.5 					"/>
					<polygon fill="#D7E0E5" points="833.6,594.9 757.3,663 997.2,756.4 					"/>
					<polygon fill="#90A4B0" points="669.3,323.1 670.8,264 552.4,232.8 519.9,260.9 					"/>
					<polygon fill="#BDCCD4" points="657.3,138.4 552.4,232.8 670.8,264 					"/>
				</g>
			</g>
		</g>
	</g>
</g>
<path fill="#2F4E71" d="M1159.8,394.2c-2,21-8.5,41-18.6,59.5c-0.6,1-61,104.1-61,168.5l-2.1,19c-3.3,12.7-10.1,19.2-20.2,19.2h-116
	c-10.2,0-17-6.5-20.2-19.2l-2.1-19c0-64.4-60.4-167.4-60.5-168.5c-10.6-18.5-17.1-38.5-19.1-59.5l-0.7-14.1
	c0-40.8,16.7-79.2,47-108.1c30.3-28.9,70.7-44.8,113.6-44.8c15.4,0,30.7,2.1,45.4,6.2c25.7,7.2,49.3,20.6,68.2,38.6
	c30.3,28.9,47,67.2,47,108.1L1159.8,394.2z"/>
<path fill="#2F4E71" d="M924.4,766.7c2,18.3,15.4,32.4,31.7,32.4H967c0.6,8.6,6.8,15.4,14.3,15.4h36.7c7.5,0,13.8-6.7,14.3-15.4
	h10.9c17.7,0,32-16.6,32-37.2v-24.2L924.4,766.7z"/>
<polygon fill="#2F4E71" points="1075.3,677.7 1075.3,671.4 924.2,671.4 924.2,706.7 "/>
<polygon fill="#2F4E71" points="924.2,719.6 924.2,753.8 1075.3,724.8 1075.3,690.6 "/>
<g display="none">
	<path display="inline" fill="none" stroke="#22394C" stroke-width="10" stroke-miterlimit="10" d="M1159.8,394.2
		c-2,21-8.5,41-18.6,59.5c-0.6,1-61,104.1-61,168.5l-2.1,19c-3.3,12.7-10.1,19.2-20.2,19.2h-116c-10.2,0-17-6.5-20.2-19.2l-2.1-19
		c0-64.4-60.4-167.4-60.5-168.5c-10.6-18.5-17.1-38.5-19.1-59.5l-0.7-14.1c0-40.8,16.7-79.2,47-108.1
		c30.3-28.9,70.7-44.8,113.6-44.8c15.4,0,30.7,2.1,45.4,6.2c25.7,7.2,49.3,20.6,68.2,38.6c30.3,28.9,47,67.2,47,108.1L1159.8,394.2z
		"/>
	<path display="inline" fill="none" stroke="#22394C" stroke-width="10" stroke-miterlimit="10" d="M924.2,660.4v90.5
		c0,20.6,14.3,37.2,32,37.2H967c0.6,8.6,6.8,15.4,14.3,15.4h36.7c7.5,0,13.8-6.7,14.3-15.4h10.9c17.7,0,32-16.6,32-37.2v-90.5H924.2
		z"/>
	
		<line display="inline" fill="none" stroke="#22394C" stroke-width="10" stroke-miterlimit="10" x1="930.8" y1="713.8" x2="1068.8" y2="692.2"/>
	
		<line display="inline" fill="none" stroke="#22394C" stroke-width="10" stroke-miterlimit="10" x1="930.8" y1="753.8" x2="1068.8" y2="732.2"/>
</g>
</svg>
