<?xml version="1.0" encoding="utf-8"?>
<!-- Generator: Adobe Illustrator 18.1.1, SVG Export Plug-In . SVG Version: 6.00 Build 0)  -->
<svg version="1.1" id="Layer_1" xmlns="http://www.w3.org/2000/svg" xmlns:xlink="http://www.w3.org/1999/xlink" x="0px" y="0px"
	 viewBox="0 0 2000 1000" enable-background="new 0 0 2000 1000" xml:space="preserve">
<g>
	<path fill="#FFFFFF" stroke="#DA9BBC" stroke-width="46" stroke-miterlimit="10" d="M943.6,933.6L640.6,756.2
		c-29.7-17.3-47.9-49.8-47.9-84.4l3.3-350.5c0.5-34.5,19.2-66.2,48.9-83.4L951.3,64.2c30.2-16.8,66.7-16.8,96.4,0.5l303.1,177.5
		c29.7,17.3,47.9,49.8,47.9,84.4l-2.8,351c-0.5,34.5-19.2,66.2-48.9,83.4l-306.4,174.1C1009.9,951.4,973.4,951.4,943.6,933.6z"/>
	<g display="none" opacity="0.29" enable-background="new    ">
		<g display="inline">
			<defs>
				<path id="SVGID_1_" d="M943.6,933.6L640.6,756.2c-29.7-17.3-47.9-49.8-47.9-84.4l3.3-350.5c0.5-34.5,19.2-66.2,48.9-83.4
					L951.3,64.2c30.2-16.8,66.7-16.8,96.4,0.5l303.1,177.5c29.7,17.3,47.9,49.8,47.9,84.4l-2.8,351c-0.5,34.5-19.2,66.2-48.9,83.4
					l-306.4,174.1C1009.9,951.4,973.4,951.4,943.6,933.6z"/>
			</defs>
			<clipPath id="SVGID_2_">
				<use xlink:href="#SVGID_1_"  overflow="visible"/>
			</clipPath>
			<g clip-path="url(#SVGID_2_)">
				<g opacity="0.21">
					<polygon fill="#3E6896" points="1325.4,400 1719.7,184.9 1580.9,474.3 					"/>
					<polygon fill="#2F4E71" points="2008.7,277 1719.7,184.9 2009.2,98.7 					"/>
				</g>
				<g opacity="0.65">
					<polygon fill="#0E5E8D" points="916.9,1000.3 916.1,734.5 1280.3,771.5 1034,999.9 					"/>
					<polygon fill="#68B4E1" points="1533.5,977.1 1280.9,771.3 1034.8,999.9 1517.7,998.6 					"/>
					<polygon fill="#42A1DA" points="8.8,278.6 297.7,186.5 8.3,100.3 					"/>
					<polygon fill="#C2E1F3" points="276,484.2 9.8,393.5 8.8,278.6 297.7,186.5 					"/>
					<polygon fill="#42A1DA" points="436.5,475.9 297.7,186.5 276,484.2 					"/>
					<polygon fill="#C2E1F3" points="837,465 436.5,475.9 815.6,365.7 					"/>
					<polygon fill="#68B4E1" points="967.2,502 837,465 815.6,365.7 					"/>
					<polygon fill="#42A1DA" points="863.9,572 837,465 967.2,502 					"/>
					<polygon fill="#0E5E8D" points="1057.6,600.6 863.9,572 995.7,449.7 					"/>
					<polygon fill="#C2E1F3" points="917.4,734.5 1057.6,600.6 1280.9,771.3 					"/>
					<polygon fill="#68B4E1" points="696.9,632.9 837,465 863.9,572 					"/>
					<polygon fill="#8EC7E9" points="436.5,475.9 696.9,632.9 837,465 					"/>
					<polygon fill="#C2E1F3" points="468,648.2 436.5,475.9 696.9,632.9 					"/>
					<polygon fill="#68B4E1" points="276,484.2 436.5,475.9 468,648.2 					"/>
					<polygon fill="#8EC7E9" points="112.4,550.5 9.3,477.2 9.1,392.5 276,484.2 					"/>
					<polygon fill="#68B4E1" points="154.3,590.7 112.4,550.5 276,484.2 					"/>
					<polygon fill="#C2E1F3" points="468,648.2 154.3,590.7 276,484.2 					"/>
					<polygon fill="#42A1DA" points="468.2,750.5 156,590.7 467.9,648.2 					"/>
					<polygon fill="#68B4E1" points="10.6,660.3 155.6,590.7 467.8,750.5 237.7,1002.4 					"/>
					<polygon fill="#0E5E8D" points="10.8,1003 9.9,661.3 237.7,1002.4 					"/>
					<polygon fill="#C2E1F3" points="467.8,750.5 237.7,1002.4 509.6,1001.5 					"/>
					<polygon fill="#8EC7E9" points="782.8,1000.8 508.2,1001.5 467.8,750.5 					"/>
					<polygon fill="#42A1DA" points="916.1,734.5 467.2,750.5 782.8,1000.8 916.9,1000.3 					"/>
					<polygon fill="#68B4E1" points="696.9,632.9 467.8,750.5 917.4,734.5 					"/>
					<polygon fill="#42A1DA" points="863.9,572 696.9,632.9 917.4,734.5 1057.6,600.6 					"/>
					<polygon fill="#8EC7E9" points="467.9,648.2 468.2,750.5 697.4,632.9 					"/>
					<polygon fill="#0E5E8D" points="155.6,590.7 112.4,550.5 10.4,618.4 9.9,661.3 					"/>
					<polygon fill="#42A1DA" points="9.3,477.2 10.4,618.4 112.4,550.5 					"/>
				</g>
				<g opacity="0.65">
					<polygon fill="#3E6896" points="1100.5,998.7 1101.2,732.9 737.1,769.7 983.4,998.3 					"/>
					<polygon fill="#B2C3D5" points="456.4,995.3 736.6,769.7 982.6,998.3 499.8,997 					"/>
					<polygon fill="#B2C3D5" points="1741.5,482.6 2007.6,391.9 2008.7,277 1719.7,184.9 					"/>
					<polygon fill="#2F4E71" points="1580.9,474.3 1719.7,184.9 1741.5,482.6 					"/>
					<polygon fill="#B2C3D5" points="1140.2,616.8 1325.4,400 1227.4,318.4 					"/>
					<polygon fill="#6586AB" points="1140.2,616.8 1580.9,474.3 1325.4,400 					"/>
					<polygon fill="#6586AB" points="1050.3,500.4 1140.2,616.8 1227.4,318.4 					"/>
					<polygon fill="#3E6896" points="959.9,599 1140.2,616.8 1050.3,500.4 					"/>
					<polygon fill="#6586AB" points="1100,732.9 959.9,599 736.6,769.7 					"/>
					<polygon fill="#8BA4C0" points="1580.9,474.3 1320.5,631.3 1140.2,616.8 					"/>
					<polygon fill="#B2C3D5" points="1549.5,646.6 1580.9,474.3 1320.5,631.3 					"/>
					<polygon fill="#6586AB" points="1741.5,482.6 1580.9,474.3 1549.5,646.6 					"/>
					<polygon fill="#8BA4C0" points="1905,548.8 2008.1,475.5 2008.3,390.9 1741.5,482.6 					"/>
					<polygon fill="#6586AB" points="1863.1,589.1 1905,548.8 1741.5,482.6 					"/>
					<polygon fill="#B2C3D5" points="1549.5,646.6 1863.1,589.1 1741.5,482.6 					"/>
					<polygon fill="#2F4E71" points="1549.2,748.8 1861.4,589.1 1549.5,646.6 					"/>
					<polygon fill="#6586AB" points="2006.8,658.7 1861.9,589.1 1549.7,748.8 1779.8,1000.8 					"/>
					<polygon fill="#3E6896" points="2006.6,1001.4 2007.6,659.7 1779.8,1000.8 					"/>
					<polygon fill="#B2C3D5" points="1549.7,748.8 1779.8,1000.8 1507.8,999.9 					"/>
					<polygon fill="#8BA4C0" points="1234.6,999.2 1509.2,999.9 1549.7,748.8 					"/>
					<polygon fill="#2F4E71" points="1101.2,732.9 1550.2,748.8 1234.6,999.2 1100.5,998.7 					"/>
					<polygon fill="#6586AB" points="1320.5,631.3 1549.7,748.8 1100,732.9 					"/>
					<polygon fill="#2F4E71" points="1140.2,616.8 1320.5,631.3 1100,732.9 959.9,599 					"/>
					<polygon fill="#8BA4C0" points="1549.5,646.6 1549.2,748.8 1320.1,631.3 					"/>
					<polygon fill="#3E6896" points="1861.9,589.1 1905,548.8 2006.9,616.8 2007.6,659.7 					"/>
					<polygon fill="#2F4E71" points="2008.1,475.5 2006.9,616.8 1905,548.8 					"/>
				</g>
				<g opacity="0.65">
					<polygon fill="#841D53" points="913.8,4.5 912.9,270.5 1277.1,233.5 1030.8,5 					"/>
					<polygon fill="#C0528C" points="1530.2,27.8 1277.7,233.5 1031.6,5 1514.5,6.4 					"/>
					<polygon fill="#B0276F" points="5.6,726.3 294.5,818.4 5.1,904.6 					"/>
					<polygon fill="#DFA9C5" points="272.8,520.8 6.6,611.5 5.6,726.3 294.5,818.4 					"/>
					<polygon fill="#B0276F" points="433.3,529 294.5,818.4 272.8,520.8 					"/>
					<polygon fill="#DFA9C5" points="833.8,540 433.3,529 812.4,639.2 					"/>
					<polygon fill="#C0528C" points="964,502.9 833.8,540 812.4,639.2 					"/>
					<polygon fill="#B0276F" points="860.7,432.9 833.8,540 964,502.9 					"/>
					<polygon fill="#841D53" points="1054.4,404.3 860.7,432.9 1044.1,547.3 					"/>
					<polygon fill="#C0528C" points="914.2,270.5 1054.4,404.3 1277.7,233.5 					"/>
					<polygon fill="#C0528C" points="693.7,372 833.8,540 860.7,432.9 					"/>
					<polygon fill="#D07DA9" points="433.3,529 693.7,372 833.8,540 					"/>
					<polygon fill="#DFA9C5" points="464.8,356.7 433.3,529 693.7,372 					"/>
					<polygon fill="#C0528C" points="272.8,520.8 433.3,529 464.8,356.7 					"/>
					<polygon fill="#D07DA9" points="109.1,454.5 6.1,527.7 6,612.5 272.8,520.8 					"/>
					<polygon fill="#C0528C" points="151.1,414.2 109.1,454.5 272.8,520.8 					"/>
					<polygon fill="#DFA9C5" points="464.8,356.7 151.1,414.2 272.8,520.8 					"/>
					<polygon fill="#B0276F" points="464.9,254.5 152.9,414.2 464.7,356.7 					"/>
					<polygon fill="#C0528C" points="7.4,344.7 152.4,414.2 464.6,254.5 234.5,2.5 					"/>
					<polygon fill="#841D53" points="7.6,1.8 6.7,343.7 234.5,2.5 					"/>
					<polygon fill="#DFA9C5" points="464.6,254.5 234.5,2.5 506.4,3.4 					"/>
					<polygon fill="#D07DA9" points="779.6,4.2 505,3.3 464.6,254.5 					"/>
					<polygon fill="#B0276F" points="912.9,270.5 464,254.5 779.6,4.2 913.8,4.5 					"/>
					<polygon fill="#C0528C" points="693.7,372 464.6,254.5 914.2,270.5 					"/>
					<polygon fill="#B0276F" points="860.7,432.9 693.7,372 914.2,270.5 1054.4,404.3 					"/>
					<polygon fill="#D07DA9" points="464.7,356.7 464.9,254.5 694.2,372 					"/>
					<polygon fill="#841D53" points="152.4,414.2 109.1,454.5 7.2,386.6 6.7,343.7 					"/>
					<polygon fill="#B0276F" points="6.1,527.7 7.2,386.6 109.1,454.5 					"/>
				</g>
				<g opacity="0.79">
					<polygon fill="#90A4B0" points="1098.9,9.1 1099.6,275 735.6,238.1 981.9,9.6 					"/>
					<polygon fill="#BDCCD4" points="482.3,32.4 735,238.1 981.1,9.6 498.2,10.9 					"/>
					<polygon fill="#BDCCD4" points="2007.1,730.9 1718.2,823 2007.6,909.1 					"/>
					<polygon fill="#D7E0E5" points="1739.9,525.3 2006.1,616 2007.1,730.9 1718.2,823 					"/>
					<polygon fill="#BDCCD4" points="1579.4,533.6 1718.2,823 1739.9,525.3 					"/>
					<polygon fill="#D7E0E5" points="1178.9,544.6 1579.4,533.6 1200.3,643.8 					"/>
					<polygon fill="#EAEFF1" points="1048.7,507.5 1178.9,544.6 1200.3,643.8 					"/>
					<polygon fill="#BDCCD4" points="1152,437.5 1178.9,544.6 1048.7,507.5 					"/>
					<polygon fill="#90A4B0" points="958.3,408.9 1152,437.5 1048.7,507.5 					"/>
					<polygon fill="#D7E0E5" points="1098.5,275 958.3,408.9 735,238.1 					"/>
					<polygon fill="#EAEFF1" points="1319,376.6 1178.9,544.6 1152,437.5 					"/>
					<polygon fill="#D7E0E5" points="1579.4,533.6 1319,376.6 1178.9,544.6 					"/>
					<polygon fill="#D7E0E5" points="1547.9,361.3 1579.4,533.6 1319,376.6 					"/>
					<polygon fill="#EAEFF1" points="1739.9,525.3 1579.4,533.6 1547.9,361.3 					"/>
					<polygon fill="#D7E0E5" points="1903.5,459 2006.5,532.2 2006.7,617 1739.9,525.3 					"/>
					<polygon fill="#BDCCD4" points="1861.6,418.7 1903.5,459 1739.9,525.3 					"/>
					<polygon fill="#D7E0E5" points="1547.9,361.3 1861.6,418.7 1739.9,525.3 					"/>
					<polygon fill="#BDCCD4" points="1547.6,259 1859.8,418.7 1548,361.3 					"/>
					<polygon fill="#EAEFF1" points="2005.3,349.2 1860.3,418.7 1548.1,259 1778.2,7.1 					"/>
					<polygon fill="#90A4B0" points="2005,6.4 2006,348.2 1778.2,7.1 					"/>
					<polygon fill="#D7E0E5" points="1548.1,259 1778.2,7.1 1506.3,8 					"/>
					<polygon fill="#D7E0E5" points="1233,8.7 1507.6,7.8 1548.1,259 					"/>
					<polygon fill="#BDCCD4" points="1099.6,275 1548.7,259 1233,8.7 1098.9,9.1 					"/>
					<polygon fill="#EAEFF1" points="1319,376.6 1548.1,259 1098.5,275 					"/>
					<polygon fill="#BDCCD4" points="1152,437.5 1319,376.6 1098.5,275 958.3,408.9 					"/>
					<polygon fill="#D7E0E5" points="1548,361.3 1547.6,259 1318.5,376.6 					"/>
					<polygon fill="#90A4B0" points="1860.3,418.7 1903.5,459 2005.5,391.1 2006,348.2 					"/>
					<polygon fill="#BDCCD4" points="2006.5,532.2 2005.5,391.1 1903.5,459 					"/>
				</g>
			</g>
		</g>
	</g>
</g>
<g>
	<path fill="#993366" d="M1083.7,632.8h-1.8c0.2-1.1,0.3-2.3,0.3-3.5l0.4-22.1c0-7.6-4.3-14.2-9.5-15.2l-7.3-0.2l-23.4-228.5
		l23.4-1.6c0,0,3.3-31.8,14.7-55.3c11-23.6,35-54.2,25.4-56.4c-9.7-2.3-23.4,11-33.5,10.6c-10.1-0.6-12.2-9.5-24.8-16.5
		c-7.9-4.2-17-8.2-22.9-10.5c1.5-2.9,2.3-6.2,2.3-9.7c0.2-12.2-9.7-22.1-21.7-22.3c-12.2-0.2-22.1,9.5-22.3,21.7
		c0,3.5,0.8,6.8,2.2,9.7c-5.8,2.2-15.1,5.8-23,9.9c-12.8,6.6-15.1,15.5-25.2,15.7c-10.2,0.4-23.7-13.4-33.4-11.3
		c-9.7,1.9,13.6,33.1,24.2,57c10.6,23.8,13.4,55.7,13.4,55.7l22.3,2.1l-28.2,227.2l-7.2-0.2c-5.2,1-9.7,7.4-9.7,15l-0.1,22.2
		c0,1,0.1,1.9,0.2,2.8l-1.9-0.1c-6.2,0-11.3,8.2-11.3,18.2l-0.2,29c-0.2,10,3.9,22,9.9,22h167.9c6.2,0,11.3-8.2,11.3-18.2l0.2-29
		C1094.7,641.2,1089.9,632.8,1083.7,632.8z"/>
	<path fill="#993366" d="M1111.3,709l-223.9-2.7c-8.2-0.2-14.8,6.4-15,14.6l-0.8,68.6c-0.2,8.2,6.4,14.8,14.6,15l224.2,2.7
		c8.2,0.2,14.8-6.4,15-14.6l0.6-68.6C1126,715.8,1119.4,709.2,1111.3,709z"/>
</g>
<g display="none" opacity="0.8">
	<path display="inline" fill="none" stroke="#B0276F" stroke-width="10" stroke-miterlimit="10" stroke-opacity="0.8" d="
		M1084.7,632.8h-1.8c0.2-1.1,0.3-2.3,0.3-3.5l0.4-22.1c0-7.6-4.3-14.2-9.5-15.2l-7.3-0.2l-23.4-228.5l23.4-1.6
		c0,0,3.3-31.8,14.7-55.3c11-23.6,35-54.2,25.4-56.4c-9.7-2.3-23.4,11-33.5,10.6c-10.1-0.6-12.2-9.5-24.8-16.5
		c-7.9-4.2-17-8.2-22.9-10.5c1.5-2.9,2.3-6.2,2.3-9.7c0.2-12.2-9.7-22.1-21.7-22.3c-12.2-0.2-22.1,9.5-22.3,21.7
		c0,3.5,0.8,6.8,2.2,9.7c-5.8,2.2-15.1,5.8-23,9.9c-12.8,6.6-15.1,15.5-25.2,15.7c-10.2,0.4-23.7-13.4-33.4-11.3
		c-9.7,1.9,13.6,33.1,24.2,57c10.6,23.8,13.4,55.7,13.4,55.7l22.3,2.1l-28.2,227.2l-7.2-0.2c-5.2,1-9.7,7.4-9.7,15l-0.1,22.2
		c0,1,0.1,1.9,0.2,2.8l-1.9-0.1c-6.2,0-11.3,8.2-11.3,18.2l-0.2,29c-0.2,10,3.9,22,9.9,22h167.9c6.2,0,11.3-8.2,11.3-18.2l0.2-29
		C1095.7,641.2,1090.9,632.8,1084.7,632.8z"/>
	<path display="inline" fill="none" stroke="#B0276F" stroke-width="10" stroke-miterlimit="10" stroke-opacity="0.8" d="
		M1112.3,700l-223.9-2.7c-8.2-0.2-14.8,6.4-15,14.6l-0.8,68.6c-0.2,8.2,6.4,14.8,14.6,15l224.2,2.7c8.2,0.2,14.8-6.4,15-14.6
		l0.6-68.6C1127,706.8,1120.4,700.2,1112.3,700z"/>
</g>
</svg>
