<?xml version="1.0" encoding="utf-8"?>
<!-- Generator: Adobe Illustrator 18.1.1, SVG Export Plug-In . SVG Version: 6.00 Build 0)  -->
<svg version="1.1" id="Layer_1" xmlns="http://www.w3.org/2000/svg" xmlns:xlink="http://www.w3.org/1999/xlink" x="0px" y="0px"
	 viewBox="0 0 2000 1000" enable-background="new 0 0 2000 1000" xml:space="preserve">
<g>
	<path fill="#FFFFFF" stroke="#42A1DA" stroke-width="46" stroke-miterlimit="10" stroke-opacity="0.8" d="M952.2,950.7l-303-177.4
		c-29.8-17.3-47.9-49.8-47.9-84.4l3.4-350.6c0.5-34.6,19.2-66.2,48.9-83.4L959.9,81.3c30.2-16.8,66.6-16.8,96.4,0.5l303,177.4
		c29.8,17.3,47.9,49.8,47.9,84.4l-2.9,351c-0.5,34.6-19.2,66.2-48.9,83.4l-306.4,174.1C1018.4,968.4,981.9,968.4,952.2,950.7z"/>
	<g display="none" opacity="0.29" enable-background="new    ">
		<g display="inline">
			<defs>
				<path id="SVGID_1_" d="M949.9,949.7L646.9,772.3c-29.7-17.3-47.9-49.8-47.9-84.4l3.3-350.5c0.5-34.5,19.2-66.2,48.9-83.4
					L957.6,80.3c30.2-16.8,66.7-16.8,96.4,0.5L1357,258.2c29.7,17.3,47.9,49.8,47.9,84.4l-2.8,351c-0.5,34.5-19.2,66.2-48.9,83.4
					l-306.4,174.1C1016.2,967.5,979.7,967.5,949.9,949.7z"/>
			</defs>
			<clipPath id="SVGID_2_">
				<use xlink:href="#SVGID_1_"  overflow="visible"/>
			</clipPath>
			<g clip-path="url(#SVGID_2_)">
				<g opacity="0.21">
					<polygon fill="#3E6896" points="1359.3,544.8 1805.8,593.2 1526.7,751.6 					"/>
					<polygon fill="#2F4E71" points="1990.6,833.7 1805.8,593.2 2092.7,687.5 					"/>
				</g>
				<g opacity="0.65">
					<polygon fill="#0E5E8D" points="681.2,804.7 832.3,586 1110.3,824.1 777.6,871.2 					"/>
					<polygon fill="#68B4E1" points="1200.8,1137.5 1110.9,824.4 778.3,871.7 1175.6,1146.1 					"/>
					<polygon fill="#42A1DA" points="347.4,-306.1 637.1,-216.9 448.7,-452.9 					"/>
					<polygon fill="#C2E1F3" points="449.5,15.1 282.6,-211.3 347.4,-306.1 637.1,-216.9 					"/>
					<polygon fill="#42A1DA" points="586,99.9 637.1,-216.9 449.5,15.1 					"/>
					<polygon fill="#C2E1F3" points="921.1,319.5 586,99.9 960.2,225.8 					"/>
					<polygon fill="#68B4E1" points="1006.9,424.2 921.1,319.5 960.2,225.8 					"/>
					<polygon fill="#42A1DA" points="882.1,422.7 921.1,319.5 1006.9,424.2 					"/>
					<polygon fill="#0E5E8D" points="1024.9,556.8 882.1,422.7 1060.2,397.5 					"/>
					<polygon fill="#C2E1F3" points="833.3,586.7 1024.9,556.8 1110.9,824.4 					"/>
					<polygon fill="#68B4E1" points="710.2,377.5 921.1,319.5 882.1,422.7 					"/>
					<polygon fill="#8EC7E9" points="586,99.9 710.2,377.5 921.1,319.5 					"/>
					<polygon fill="#C2E1F3" points="513.6,259.4 586,99.9 710.2,377.5 					"/>
					<polygon fill="#68B4E1" points="449.5,15.1 586,99.9 513.6,259.4 					"/>
					<polygon fill="#8EC7E9" points="277.2,-23.8 234.5,-142.8 282.6,-212.5 449.5,15.1 					"/>
					<polygon fill="#68B4E1" points="288.7,33.1 277.2,-23.8 449.5,15.1 					"/>
					<polygon fill="#C2E1F3" points="513.6,259.4 288.7,33.1 449.5,15.1 					"/>
					<polygon fill="#42A1DA" points="455.3,343.5 290.1,34.1 513.5,259.3 					"/>
					<polygon fill="#68B4E1" points="131,8.3 289.8,33.9 455,343.3 122.3,418.8 					"/>
					<polygon fill="#0E5E8D" points="-64.4,289.9 129.9,8.7 122.3,418.8 					"/>
					<polygon fill="#C2E1F3" points="455,343.3 122.3,418.8 346,573.3 					"/>
					<polygon fill="#8EC7E9" points="570.8,728.6 344.9,572.5 455,343.3 					"/>
					<polygon fill="#42A1DA" points="832.3,586 454.5,342.9 570.8,728.6 681.2,804.7 					"/>
					<polygon fill="#68B4E1" points="710.2,377.5 455,343.3 833.3,586.7 					"/>
					<polygon fill="#42A1DA" points="882.1,422.7 710.2,377.5 833.3,586.7 1024.9,556.8 					"/>
					<polygon fill="#8EC7E9" points="513.5,259.3 455.3,343.5 710.6,377.7 					"/>
					<polygon fill="#0E5E8D" points="289.8,33.9 277.2,-23.8 154.8,-26.2 129.9,8.7 					"/>
					<polygon fill="#42A1DA" points="234.5,-142.8 154.8,-26.2 277.2,-23.8 					"/>
				</g>
				<g opacity="0.65">
					<polygon fill="#3E6896" points="833,908.2 985.3,690.3 665.2,512.7 737,841 					"/>
					<polygon fill="#B2C3D5" points="306,537.8 664.8,512.4 736.3,840.5 340.7,564 					"/>
					<polygon fill="#B2C3D5" points="1653.9,850.1 1924.1,927.4 1990.6,833.7 1805.8,593.2 					"/>
					<polygon fill="#2F4E71" points="1526.7,751.6 1805.8,593.2 1653.9,850.1 					"/>
					<polygon fill="#B2C3D5" points="1083.5,617.2 1359.3,544.8 1325.4,421.9 					"/>
					<polygon fill="#6586AB" points="1083.5,617.2 1526.7,751.6 1359.3,544.8 					"/>
					<polygon fill="#6586AB" points="1076.1,470.3 1083.5,617.2 1325.4,421.9 					"/>
					<polygon fill="#3E6896" points="945.5,499.7 1083.5,617.2 1076.1,470.3 					"/>
					<polygon fill="#6586AB" points="984.2,689.6 945.5,499.7 664.8,512.4 					"/>
					<polygon fill="#8BA4C0" points="1526.7,751.6 1223.2,732 1083.5,617.2 					"/>
					<polygon fill="#B2C3D5" points="1402.6,875.2 1526.7,751.6 1223.2,732 					"/>
					<polygon fill="#6586AB" points="1653.9,850.1 1526.7,751.6 1402.6,875.2 					"/>
					<polygon fill="#8BA4C0" points="1750.4,997.7 1876.8,996.4 1925.3,927 1653.9,850.1 					"/>
					<polygon fill="#6586AB" points="1693,1006.9 1750.4,997.7 1653.9,850.1 					"/>
					<polygon fill="#B2C3D5" points="1402.6,875.2 1693,1006.9 1653.9,850.1 					"/>
					<polygon fill="#2F4E71" points="1344.1,959 1691.6,1005.9 1402.6,875.2 					"/>
					<polygon fill="#6586AB" points="1771.3,1146.1 1692,1006.2 1344.5,959.2 1389.6,1297.5 					"/>
					<polygon fill="#3E6896" points="1575.5,1427.4 1771.3,1147.3 1389.6,1297.5 					"/>
					<polygon fill="#B2C3D5" points="1344.5,959.2 1389.6,1297.5 1166.7,1141.6 					"/>
					<polygon fill="#8BA4C0" points="942.8,985.1 1167.9,1142.4 1344.5,959.2 					"/>
					<polygon fill="#2F4E71" points="985.3,690.3 1344.9,959.5 942.8,985.1 833,908.2 					"/>
					<polygon fill="#6586AB" points="1223.2,732 1344.5,959.2 984.2,689.6 					"/>
					<polygon fill="#2F4E71" points="1083.5,617.2 1223.2,732 984.2,689.6 945.5,499.7 					"/>
					<polygon fill="#8BA4C0" points="1402.6,875.2 1344.1,959 1222.9,731.8 					"/>
					<polygon fill="#3E6896" points="1692,1006.2 1750.4,997.7 1795.3,1111.7 1771.3,1147.3 					"/>
					<polygon fill="#2F4E71" points="1876.8,996.4 1795.3,1111.7 1750.4,997.7 					"/>
				</g>
				<g opacity="0.65">
					<polygon fill="#841D53" points="1246.9,-14.8 1094.5,203.1 1414.6,380.5 1342.7,52.3 					"/>
					<polygon fill="#C0528C" points="1739.9,356.1 1415.1,380.9 1343.4,52.8 1739.2,329.4 					"/>
					<polygon fill="#B0276F" points="89.2,59.7 273.9,300.2 -12.8,205.8 					"/>
					<polygon fill="#DFA9C5" points="426,43.4 155.6,-34 89.2,59.7 273.9,300.2 					"/>
					<polygon fill="#B0276F" points="553,141.7 273.9,300.2 426,43.4 					"/>
					<polygon fill="#DFA9C5" points="875.7,379.3 553,141.7 801.5,448.5 					"/>
					<polygon fill="#C0528C" points="1003.7,423.1 875.7,379.3 801.5,448.5 					"/>
					<polygon fill="#B0276F" points="958.9,306.7 875.7,379.3 1003.7,423.1 					"/>
					<polygon fill="#841D53" points="1134.3,393.7 958.9,306.7 1044.2,505.2 					"/>
					<polygon fill="#C0528C" points="1095.5,203.8 1134.3,393.7 1415.1,380.9 					"/>
					<polygon fill="#C0528C" points="856.5,161.4 875.7,379.3 958.9,306.7 					"/>
					<polygon fill="#D07DA9" points="553,141.7 856.5,161.4 875.7,379.3 					"/>
					<polygon fill="#DFA9C5" points="677.2,18.2 553,141.7 856.5,161.4 					"/>
					<polygon fill="#C0528C" points="426,43.4 553,141.7 677.2,18.2 					"/>
					<polygon fill="#D07DA9" points="329.4,-104.5 203,-103.1 154.5,-33.6 426,43.4 					"/>
					<polygon fill="#C0528C" points="386.8,-113.7 329.4,-104.5 426,43.4 					"/>
					<polygon fill="#DFA9C5" points="677.2,18.2 386.8,-113.7 426,43.4 					"/>
					<polygon fill="#B0276F" points="735.7,-65.7 388.3,-112.6 677.1,18.2 					"/>
					<polygon fill="#C0528C" points="308.5,-252.7 387.9,-112.9 735.4,-65.9 690.2,-404.1 					"/>
					<polygon fill="#841D53" points="504.3,-534.2 308.5,-253.9 690.2,-404.1 					"/>
					<polygon fill="#DFA9C5" points="735.4,-65.9 690.2,-404.1 913,-248.2 					"/>
					<polygon fill="#D07DA9" points="1136.9,-91.7 911.9,-249.1 735.4,-65.9 					"/>
					<polygon fill="#B0276F" points="1094.5,203.1 734.9,-66.3 1136.9,-91.7 1246.9,-14.8 					"/>
					<polygon fill="#C0528C" points="856.5,161.4 735.4,-65.9 1095.5,203.8 					"/>
					<polygon fill="#B0276F" points="958.9,306.7 856.5,161.4 1095.5,203.8 1134.3,393.7 					"/>
					<polygon fill="#D07DA9" points="677.1,18.2 735.7,-65.7 856.9,161.7 					"/>
					<polygon fill="#841D53" points="387.9,-112.9 329.4,-104.5 284.4,-218.4 308.5,-253.9 					"/>
					<polygon fill="#B0276F" points="203,-103.1 284.4,-218.4 329.4,-104.5 					"/>
				</g>
				<g opacity="0.79">
					<polygon fill="#90A4B0" points="1396.3,94.5 1245.2,313.4 967.3,75.3 1300,28.2 					"/>
					<polygon fill="#BDCCD4" points="876.7,-238.2 966.8,74.9 1299.3,27.7 902,-246.7 					"/>
					<polygon fill="#BDCCD4" points="1730.3,1205.5 1440.5,1116.3 1629,1352.2 					"/>
					<polygon fill="#D7E0E5" points="1628.1,884.3 1795,1110.6 1730.3,1205.5 1440.5,1116.3 					"/>
					<polygon fill="#BDCCD4" points="1491.7,799.5 1440.5,1116.3 1628.1,884.3 					"/>
					<polygon fill="#D7E0E5" points="1156.5,579.9 1491.7,799.5 1117.5,673.6 					"/>
					<polygon fill="#EAEFF1" points="1070.8,475.2 1156.5,579.9 1117.5,673.6 					"/>
					<polygon fill="#BDCCD4" points="1195.5,476.6 1156.5,579.9 1070.8,475.2 					"/>
					<polygon fill="#90A4B0" points="1052.7,342.6 1195.5,476.6 1070.8,475.2 					"/>
					<polygon fill="#D7E0E5" points="1244.3,312.7 1052.7,342.6 966.8,74.9 					"/>
					<polygon fill="#EAEFF1" points="1367.4,521.9 1156.5,579.9 1195.5,476.6 					"/>
					<polygon fill="#D7E0E5" points="1491.7,799.5 1367.4,521.9 1156.5,579.9 					"/>
					<polygon fill="#D7E0E5" points="1564.1,640 1491.7,799.5 1367.4,521.9 					"/>
					<polygon fill="#EAEFF1" points="1628.1,884.3 1491.7,799.5 1564.1,640 					"/>
					<polygon fill="#D7E0E5" points="1800.4,923.2 1843.1,1042 1794.9,1111.8 1628.1,884.3 					"/>
					<polygon fill="#BDCCD4" points="1789,866.2 1800.4,923.2 1628.1,884.3 					"/>
					<polygon fill="#D7E0E5" points="1564.1,640 1789,866.2 1628.1,884.3 					"/>
					<polygon fill="#BDCCD4" points="1622.2,555.8 1787.4,865.1 1564.2,640.1 					"/>
					<polygon fill="#EAEFF1" points="1946.6,891.1 1787.8,865.4 1622.6,556.1 1955.3,480.6 					"/>
					<polygon fill="#90A4B0" points="2142,609.3 1947.7,890.7 1955.3,480.6 					"/>
					<polygon fill="#D7E0E5" points="1622.6,556.1 1955.3,480.6 1731.6,326.1 					"/>
					<polygon fill="#D7E0E5" points="1506.7,170.8 1732.7,326.7 1622.6,556.1 					"/>
					<polygon fill="#BDCCD4" points="1245.2,313.4 1623.1,556.5 1506.7,170.8 1396.3,94.5 					"/>
					<polygon fill="#EAEFF1" points="1367.4,521.9 1622.6,556.1 1244.3,312.7 					"/>
					<polygon fill="#BDCCD4" points="1195.5,476.6 1367.4,521.9 1244.3,312.7 1052.7,342.6 					"/>
					<polygon fill="#D7E0E5" points="1564.2,640.1 1622.2,555.8 1367,521.7 					"/>
					<polygon fill="#90A4B0" points="1787.8,865.4 1800.4,923.2 1922.8,925.6 1947.7,890.7 					"/>
					<polygon fill="#BDCCD4" points="1843.1,1042 1922.8,925.6 1800.4,923.2 					"/>
				</g>
			</g>
		</g>
	</g>
</g>
<path fill="#42A1DA" d="M1129.8,324.7c2.6,22.7,11.4,46,24,58.5c12.5,12.6,30.7,20.2,53.5,22.6c33.3-67.3,43.8-119.9,43.8-119.9
	s-57.8,11.4-125.1,44.6 M1093.2,351.5c-36.3,21-71.7,45.5-107.3,81c-22.7,22.7-41,44.8-55.7,65.5l-90,16.6L734.5,620.5l94.3,3
	l66.4-66.4c-23.4,48.6-25.4,80.7-25.4,80.7l29.7,29.7c0,0,33.3-3.2,82.1-26.8l-67.8,67.8l3,94.2l105.7-105.8l16.7-90.4
	c20.9-14.6,43-32.8,65.4-55.3c35.5-35.5,63-73.9,84-110.2c-23.2-4.7-44.5-14.4-61.3-31.1c-16.7-16.8-30.7-40.5-35.4-63.8"/>
<path display="none" fill="none" stroke="#42A1DA" stroke-width="18" stroke-miterlimit="10" d="M1129.8,324.7
	c2.6,22.7,11.4,46,24,58.5c12.5,12.6,30.7,20.2,53.5,22.6c33.3-67.3,43.8-119.9,43.8-119.9s-57.8,11.4-125.1,44.6 M1093.2,351.5
	c-36.3,21-71.7,45.5-107.3,81c-22.7,22.7-41,44.8-55.7,65.5l-90,16.6L734.5,620.5l94.3,3l66.4-66.4c-23.4,48.6-25.4,80.7-25.4,80.7
	l29.7,29.7c0,0,33.3-3.2,82.1-26.8l-67.8,67.8l3,94.2l105.7-105.8l16.7-90.4c20.9-14.6,43-32.8,65.4-55.3
	c35.5-35.5,63-73.9,84-110.2c-23.2-4.7-44.5-14.4-61.3-31.1c-16.7-16.8-30.7-40.5-35.4-63.8"/>
</svg>
