<?xml version="1.0" encoding="utf-8"?>
<!-- Generator: Adobe Illustrator 18.1.1, SVG Export Plug-In . SVG Version: 6.00 Build 0)  -->
<svg version="1.1" xmlns="http://www.w3.org/2000/svg" xmlns:xlink="http://www.w3.org/1999/xlink" x="0px" y="0px"
	 viewBox="0 0 2000 1000" enable-background="new 0 0 2000 1000" xml:space="preserve">
<g id="Layer_2">
	<path fill="#FFFFFF" stroke="#DA9BBC" stroke-width="46" stroke-miterlimit="10" d="M938.6,931.9l-303-177.4
		c-29.8-17.3-47.9-49.8-47.9-84.4l3.4-350.6c0.5-34.6,19.2-66.2,48.9-83.4L946.3,62.4c30.2-16.8,66.6-16.8,96.4,0.5l303,177.4
		c29.8,17.3,47.9,49.8,47.9,84.4l-2.9,351c-0.5,34.6-19.2,66.2-48.9,83.4l-306.4,174.1C1004.9,949.6,968.4,949.6,938.6,931.9z"/>
	<g display="none" opacity="0.23">
		<defs>
			<path id="SVGID_1_" opacity="0.23" d="M938.6,931.9l-303-177.4c-29.8-17.3-47.9-49.8-47.9-84.4l3.4-350.6
				c0.5-34.6,19.2-66.2,48.9-83.4L946.3,62.4c30.2-16.8,66.6-16.8,96.4,0.5l303,177.4c29.8,17.3,47.9,49.8,47.9,84.4l-2.9,351
				c-0.5,34.6-19.2,66.2-48.9,83.4l-306.4,174.1C1004.9,949.6,968.4,949.6,938.6,931.9z"/>
		</defs>
		<clipPath id="SVGID_2_" display="inline">
			<use xlink:href="#SVGID_1_"  overflow="visible"/>
		</clipPath>
		<g display="inline" clip-path="url(#SVGID_2_)">
			<g opacity="0.21">
				<polygon fill="#3E6896" points="1320.4,398.1 1714.7,183.1 1576,472.5 				"/>
				<polygon fill="#2F4E71" points="2003.7,275.1 1714.7,183.1 2004.2,96.8 				"/>
			</g>
			<g opacity="0.65">
				<polygon fill="#0E5E8D" points="911.9,998.6 911.2,732.7 1275.3,769.6 1028.9,998.1 				"/>
				<polygon fill="#68B4E1" points="1528.5,975.3 1275.9,769.6 1029.8,998.1 1512.7,996.8 				"/>
				<polygon fill="#42A1DA" points="3.7,276.7 292.6,184.7 3.2,98.5 				"/>
				<polygon fill="#C2E1F3" points="270.9,482.3 4.7,391.6 3.7,276.7 292.6,184.7 				"/>
				<polygon fill="#42A1DA" points="431.4,474.1 292.6,184.7 270.9,482.3 				"/>
				<polygon fill="#C2E1F3" points="832,463.1 431.4,474.1 810.5,363.9 				"/>
				<polygon fill="#68B4E1" points="962.1,500.2 832,463.1 810.5,363.9 				"/>
				<polygon fill="#42A1DA" points="858.8,570.2 832,463.1 962.1,500.2 				"/>
				<polygon fill="#0E5E8D" points="1052.6,598.8 858.8,570.2 990.7,447.8 				"/>
				<polygon fill="#C2E1F3" points="912.3,732.7 1052.6,598.8 1275.9,769.6 				"/>
				<polygon fill="#68B4E1" points="691.9,631.1 832,463.1 858.8,570.2 				"/>
				<polygon fill="#8EC7E9" points="431.4,474.1 691.9,631.1 832,463.1 				"/>
				<polygon fill="#C2E1F3" points="463,646.4 431.4,474.1 691.9,631.1 				"/>
				<polygon fill="#68B4E1" points="270.9,482.3 431.4,474.1 463,646.4 				"/>
				<polygon fill="#8EC7E9" points="107.3,548.6 4.3,475.4 4,390.6 270.9,482.3 				"/>
				<polygon fill="#68B4E1" points="149.2,588.9 107.3,548.6 270.9,482.3 				"/>
				<polygon fill="#C2E1F3" points="463,646.4 149.2,588.9 270.9,482.3 				"/>
				<polygon fill="#42A1DA" points="463.1,748.6 151,588.9 462.8,646.4 				"/>
				<polygon fill="#68B4E1" points="5.5,658.5 150.5,588.9 462.7,748.6 232.6,1000.6 				"/>
				<polygon fill="#0E5E8D" points="5.8,1001.3 4.8,659.4 232.6,1000.6 				"/>
				<polygon fill="#C2E1F3" points="462.7,748.6 232.6,1000.6 504.5,999.7 				"/>
				<polygon fill="#8EC7E9" points="777.8,999 503.2,999.8 462.7,748.6 				"/>
				<polygon fill="#42A1DA" points="911.2,732.7 462.1,748.6 777.8,999 911.9,998.6 				"/>
				<polygon fill="#68B4E1" points="691.9,631.1 462.7,748.6 912.3,732.7 				"/>
				<polygon fill="#42A1DA" points="858.8,570.2 691.9,631.1 912.3,732.7 1052.6,598.8 				"/>
				<polygon fill="#8EC7E9" points="462.8,646.4 463.1,748.6 692.3,631.1 				"/>
				<polygon fill="#0E5E8D" points="150.5,588.9 107.3,548.6 5.4,616.6 4.8,659.4 				"/>
				<polygon fill="#42A1DA" points="4.3,475.4 5.4,616.6 107.3,548.6 				"/>
			</g>
			<g opacity="0.65">
				<polygon fill="#3E6896" points="1095.5,996.9 1096.2,731.1 732.1,767.9 978.5,996.5 				"/>
				<polygon fill="#B2C3D5" points="451.4,993.4 731.5,767.9 977.6,996.5 494.7,995.1 				"/>
				<polygon fill="#B2C3D5" points="1736.5,480.7 2002.7,390 2003.7,275.1 1714.7,183.1 				"/>
				<polygon fill="#2F4E71" points="1576,472.5 1714.7,183.1 1736.5,480.7 				"/>
				<polygon fill="#B2C3D5" points="1135.2,615 1320.4,398.1 1222.5,316.6 				"/>
				<polygon fill="#6586AB" points="1135.2,615 1576,472.5 1320.4,398.1 				"/>
				<polygon fill="#6586AB" points="1045.3,498.5 1135.2,615 1222.5,316.6 				"/>
				<polygon fill="#3E6896" points="954.8,597.2 1135.2,615 1045.3,498.5 				"/>
				<polygon fill="#6586AB" points="1095.1,731.1 954.8,597.2 731.5,767.9 				"/>
				<polygon fill="#8BA4C0" points="1576,472.5 1315.5,629.5 1135.2,615 				"/>
				<polygon fill="#B2C3D5" points="1544.4,644.7 1576,472.5 1315.5,629.5 				"/>
				<polygon fill="#6586AB" points="1736.5,480.7 1576,472.5 1544.4,644.7 				"/>
				<polygon fill="#8BA4C0" points="1900.1,547 2003.1,473.7 2003.4,389 1736.5,480.7 				"/>
				<polygon fill="#6586AB" points="1858.2,587.3 1900.1,547 1736.5,480.7 				"/>
				<polygon fill="#B2C3D5" points="1544.4,644.7 1858.2,587.3 1736.5,480.7 				"/>
				<polygon fill="#2F4E71" points="1544.3,747 1856.4,587.2 1544.6,644.7 				"/>
				<polygon fill="#6586AB" points="2001.9,656.8 1856.9,587.2 1544.7,747 1774.8,999 				"/>
				<polygon fill="#3E6896" points="2001.6,999.6 2002.6,657.8 1774.8,999 				"/>
				<polygon fill="#B2C3D5" points="1544.7,747 1774.8,999 1502.9,998.1 				"/>
				<polygon fill="#8BA4C0" points="1229.6,997.3 1504.2,998.2 1544.7,747 				"/>
				<polygon fill="#2F4E71" points="1096.2,731.1 1545.3,747 1229.6,997.3 1095.5,996.9 				"/>
				<polygon fill="#6586AB" points="1315.5,629.5 1544.7,747 1095.1,731.1 				"/>
				<polygon fill="#2F4E71" points="1135.2,615 1315.5,629.5 1095.1,731.1 954.8,597.2 				"/>
				<polygon fill="#8BA4C0" points="1544.6,644.7 1544.3,747 1315.1,629.5 				"/>
				<polygon fill="#3E6896" points="1856.9,587.2 1900.1,547 2002,615 2002.6,657.8 				"/>
				<polygon fill="#2F4E71" points="2003.1,473.7 2002,615 1900.1,547 				"/>
			</g>
			<g opacity="0.65">
				<polygon fill="#841D53" points="908.7,2.7 908,268.6 1272.1,231.7 1025.7,3.1 				"/>
				<polygon fill="#C0528C" points="1525.3,26 1272.7,231.7 1026.6,3.1 1509.5,4.5 				"/>
				<polygon fill="#B0276F" points="0.5,724.5 289.5,816.5 0,902.8 				"/>
				<polygon fill="#DFA9C5" points="267.7,518.9 1.5,609.6 0.5,724.5 289.5,816.5 				"/>
				<polygon fill="#B0276F" points="428.2,527.2 289.5,816.5 267.7,518.9 				"/>
				<polygon fill="#DFA9C5" points="828.8,538.1 428.2,527.2 807.3,637.4 				"/>
				<polygon fill="#C0528C" points="958.9,501.1 828.8,538.1 807.3,637.4 				"/>
				<polygon fill="#B0276F" points="855.6,431.1 828.8,538.1 958.9,501.1 				"/>
				<polygon fill="#841D53" points="1049.4,402.4 855.6,431.1 1039,545.5 				"/>
				<polygon fill="#C0528C" points="909.2,268.6 1049.4,402.4 1272.7,231.7 				"/>
				<polygon fill="#C0528C" points="688.7,370.2 828.8,538.1 855.6,431.1 				"/>
				<polygon fill="#D07DA9" points="428.2,527.2 688.7,370.2 828.8,538.1 				"/>
				<polygon fill="#DFA9C5" points="459.8,354.9 428.2,527.2 688.7,370.2 				"/>
				<polygon fill="#C0528C" points="267.7,518.9 428.2,527.2 459.8,354.9 				"/>
				<polygon fill="#D07DA9" points="104.1,452.7 1.1,525.9 0.9,610.6 267.7,518.9 				"/>
				<polygon fill="#C0528C" points="146,412.4 104.1,452.7 267.7,518.9 				"/>
				<polygon fill="#DFA9C5" points="459.8,354.9 146,412.4 267.7,518.9 				"/>
				<polygon fill="#B0276F" points="459.9,252.6 147.8,412.4 459.7,354.9 				"/>
				<polygon fill="#C0528C" points="2.3,342.8 147.3,412.4 459.5,252.6 229.4,0.6 				"/>
				<polygon fill="#841D53" points="2.6,0 1.6,341.8 229.4,0.7 				"/>
				<polygon fill="#DFA9C5" points="459.5,252.6 229.4,0.6 501.3,1.5 				"/>
				<polygon fill="#D07DA9" points="774.6,2.3 500,1.5 459.5,252.6 				"/>
				<polygon fill="#B0276F" points="908,268.6 458.9,252.6 774.6,2.3 908.7,2.7 				"/>
				<polygon fill="#C0528C" points="688.7,370.2 459.5,252.6 909.2,268.6 				"/>
				<polygon fill="#B0276F" points="855.6,431.1 688.7,370.2 909.2,268.6 1049.4,402.4 				"/>
				<polygon fill="#D07DA9" points="459.7,354.9 459.9,252.6 689.1,370.2 				"/>
				<polygon fill="#841D53" points="147.3,412.4 104.1,452.7 2.2,384.7 1.6,341.8 				"/>
				<polygon fill="#B0276F" points="1.1,525.9 2.2,384.7 104.1,452.7 				"/>
			</g>
			<g opacity="0.79">
				<polygon fill="#90A4B0" points="1093.9,7.2 1094.7,273.1 730.5,236.2 976.9,7.7 				"/>
				<polygon fill="#BDCCD4" points="477.3,30.5 729.9,236.2 976,7.7 493.2,9 				"/>
				<polygon fill="#BDCCD4" points="2002.1,729.1 1713.2,821.1 2002.6,907.4 				"/>
				<polygon fill="#D7E0E5" points="1734.9,523.5 2001.1,614.2 2002.1,729.1 1713.2,821.1 				"/>
				<polygon fill="#BDCCD4" points="1574.4,531.7 1713.2,821.1 1734.9,523.5 				"/>
				<polygon fill="#D7E0E5" points="1173.8,542.7 1574.4,531.7 1195.3,641.9 				"/>
				<polygon fill="#EAEFF1" points="1043.7,505.6 1173.8,542.7 1195.3,641.9 				"/>
				<polygon fill="#BDCCD4" points="1147,435.6 1173.8,542.7 1043.7,505.6 				"/>
				<polygon fill="#90A4B0" points="953.3,407 1147,435.6 1043.7,505.6 				"/>
				<polygon fill="#D7E0E5" points="1093.5,273.1 953.3,407 729.9,236.2 				"/>
				<polygon fill="#EAEFF1" points="1314,374.7 1173.8,542.7 1147,435.6 				"/>
				<polygon fill="#D7E0E5" points="1574.4,531.7 1314,374.7 1173.8,542.7 				"/>
				<polygon fill="#D7E0E5" points="1542.9,359.4 1574.4,531.7 1314,374.7 				"/>
				<polygon fill="#EAEFF1" points="1734.9,523.5 1574.4,531.7 1542.9,359.4 				"/>
				<polygon fill="#D7E0E5" points="1898.6,457.2 2001.6,530.4 2001.8,615.2 1734.9,523.5 				"/>
				<polygon fill="#BDCCD4" points="1856.6,416.9 1898.6,457.2 1734.9,523.5 				"/>
				<polygon fill="#D7E0E5" points="1542.9,359.4 1856.6,416.9 1734.9,523.5 				"/>
				<polygon fill="#BDCCD4" points="1542.7,257.2 1854.9,416.9 1543,359.4 				"/>
				<polygon fill="#EAEFF1" points="2000.4,347.4 1855.3,416.9 1543.1,257.2 1773.2,5.2 				"/>
				<polygon fill="#90A4B0" points="2000.1,4.5 2001,346.4 1773.2,5.2 				"/>
				<polygon fill="#D7E0E5" points="1543.1,257.2 1773.2,5.2 1501.3,6.1 				"/>
				<polygon fill="#D7E0E5" points="1228.1,6.8 1502.6,6 1543.1,257.2 				"/>
				<polygon fill="#BDCCD4" points="1094.7,273.1 1543.7,257.2 1228.1,6.8 1093.9,7.3 				"/>
				<polygon fill="#EAEFF1" points="1314,374.7 1543.1,257.2 1093.5,273.1 				"/>
				<polygon fill="#BDCCD4" points="1147,435.6 1314,374.7 1093.5,273.1 953.3,407 				"/>
				<polygon fill="#D7E0E5" points="1543,359.4 1542.7,257.2 1313.5,374.7 				"/>
				<polygon fill="#90A4B0" points="1855.3,416.9 1898.6,457.2 2000.5,389.2 2001,346.4 				"/>
				<polygon fill="#BDCCD4" points="2001.6,530.4 2000.5,389.2 1898.6,457.2 				"/>
			</g>
		</g>
	</g>
</g>
<g id="Layer_1">
	<path fill="#993366" d="M1235.6,683.7l-95.9-98.2c22.8-32.6,34.8-69.8,34.8-113.3c0-26.3-5.4-52.4-17.5-75.3
		c-8.7-25.1-22.8-45.8-40.3-63.2c-17.4-17.5-40.4-31.5-63.2-43.6c-22.8-8.7-49-14.2-78.4-14.2c-26.3,0-52.4,5.4-75.3,14.2
		c-25.1,12-45.8,26.1-63.2,43.6c-17.5,17.4-31.5,37.1-43.6,63.2c-8.7,23-14.2,49.2-14.2,75.3c0,29.5,5.4,55.6,14.2,79.7
		c12,23,26.1,45.8,43.6,63.2c17.4,17.4,37.1,31.5,63.2,40.3c23,12,49.2,17.5,75.3,17.5c43.6,0,81.8-12,113.3-34.8l98.1,95.8
		c5.4,6.6,14.2,12,22.9,12c12,0,20.7-6.6,26.1-12c8.7-5.3,12-14.1,12-26.1C1247.6,699,1244.3,690.3,1235.6,683.7z M976.2,608.4
		c-73.5,0-133.2-59.6-133.2-133.2s59.6-133.2,133.2-133.2s133.2,59.6,133.2,133.2S1049.7,608.4,976.2,608.4z"/>
</g>
</svg>
