<?xml version="1.0" encoding="utf-8"?>
<!-- Generator: Adobe Illustrator 18.1.1, SVG Export Plug-In . SVG Version: 6.00 Build 0)  -->
<svg version="1.1" id="Layer_1" xmlns="http://www.w3.org/2000/svg" xmlns:xlink="http://www.w3.org/1999/xlink" x="0px" y="0px"
	 viewBox="0 0 2000 1000" enable-background="new 0 0 2000 1000" xml:space="preserve">
<g>
	<path fill="#FFFFFF" stroke="#42A1DA" stroke-width="46" stroke-miterlimit="10" stroke-opacity="0.8" d="M955.8,933.6l-303-177.4
		c-29.8-17.3-47.9-49.8-47.9-84.4l3.4-350.6c0.5-34.6,19.2-66.2,48.9-83.4L963.4,64.2c30.2-16.8,66.6-16.8,96.4,0.5l303,177.4
		c29.8,17.3,47.9,49.8,47.9,84.4l-2.9,351c-0.5,34.6-19.2,66.2-48.9,83.4L1052.6,935C1021.9,951.3,985.4,951.3,955.8,933.6z"/>
	<g display="none" opacity="0.29" enable-background="new    ">
		<g display="inline">
			<defs>
				<path id="SVGID_1_" d="M953.5,932.6L650.4,755.2c-29.7-17.3-47.9-49.8-47.9-84.4l3.3-350.5c0.5-34.5,19.2-66.2,48.9-83.4
					L961.1,63.2c30.2-16.8,66.7-16.8,96.4,0.5l303.1,177.5c29.7,17.3,47.9,49.8,47.9,84.4l-2.8,351c-0.5,34.5-19.2,66.2-48.9,83.4
					l-306.4,174.1C1019.8,950.4,983.3,950.4,953.5,932.6z"/>
			</defs>
			<clipPath id="SVGID_2_">
				<use xlink:href="#SVGID_1_"  overflow="visible"/>
			</clipPath>
			<g clip-path="url(#SVGID_2_)">
				<g opacity="0.21">
					<polygon fill="#3E6896" points="1362.9,527.7 1809.3,576.1 1530.3,734.5 					"/>
					<polygon fill="#2F4E71" points="1994.1,816.6 1809.3,576.1 2096.3,670.4 					"/>
				</g>
				<g opacity="0.65">
					<polygon fill="#0E5E8D" points="684.8,787.6 835.9,568.9 1113.9,807 781.2,854.1 					"/>
					<polygon fill="#68B4E1" points="1204.4,1120.4 1114.4,807.3 781.9,854.6 1179.2,1129 					"/>
					<polygon fill="#42A1DA" points="350.9,-323.2 640.7,-234 452.3,-470 					"/>
					<polygon fill="#C2E1F3" points="453,-2 286.2,-228.4 350.9,-323.2 640.7,-234 					"/>
					<polygon fill="#42A1DA" points="589.5,82.8 640.7,-234 453,-2 					"/>
					<polygon fill="#C2E1F3" points="924.7,302.4 589.5,82.8 963.7,208.7 					"/>
					<polygon fill="#68B4E1" points="1010.4,407.1 924.7,302.4 963.7,208.7 					"/>
					<polygon fill="#42A1DA" points="885.7,405.6 924.7,302.4 1010.4,407.1 					"/>
					<polygon fill="#0E5E8D" points="1028.4,539.7 885.7,405.6 1063.8,380.4 					"/>
					<polygon fill="#C2E1F3" points="836.9,569.6 1028.4,539.7 1114.4,807.3 					"/>
					<polygon fill="#68B4E1" points="713.8,360.3 924.7,302.4 885.7,405.6 					"/>
					<polygon fill="#8EC7E9" points="589.5,82.8 713.8,360.3 924.7,302.4 					"/>
					<polygon fill="#C2E1F3" points="517.1,242.3 589.5,82.8 713.8,360.3 					"/>
					<polygon fill="#68B4E1" points="453,-2 589.5,82.8 517.1,242.3 					"/>
					<polygon fill="#8EC7E9" points="280.8,-40.9 238,-159.9 286.2,-229.6 453,-2 					"/>
					<polygon fill="#68B4E1" points="292.3,16 280.8,-40.9 453,-2 					"/>
					<polygon fill="#C2E1F3" points="517.1,242.3 292.3,16 453,-2 					"/>
					<polygon fill="#42A1DA" points="458.9,326.4 293.7,17 517,242.2 					"/>
					<polygon fill="#68B4E1" points="134.6,-8.8 293.4,16.8 458.6,326.2 125.9,401.7 					"/>
					<polygon fill="#0E5E8D" points="-60.8,272.8 133.5,-8.4 125.9,401.7 					"/>
					<polygon fill="#C2E1F3" points="458.6,326.2 125.9,401.7 349.6,556.2 					"/>
					<polygon fill="#8EC7E9" points="574.4,711.5 348.5,555.4 458.6,326.2 					"/>
					<polygon fill="#42A1DA" points="835.9,568.9 458.1,325.8 574.4,711.5 684.8,787.6 					"/>
					<polygon fill="#68B4E1" points="713.8,360.3 458.6,326.2 836.9,569.6 					"/>
					<polygon fill="#42A1DA" points="885.7,405.6 713.8,360.3 836.9,569.6 1028.4,539.7 					"/>
					<polygon fill="#8EC7E9" points="517,242.2 458.9,326.4 714.2,360.6 					"/>
					<polygon fill="#0E5E8D" points="293.4,16.8 280.8,-40.9 158.4,-43.3 133.5,-8.4 					"/>
					<polygon fill="#42A1DA" points="238,-159.9 158.4,-43.3 280.8,-40.9 					"/>
				</g>
				<g opacity="0.65">
					<polygon fill="#3E6896" points="836.5,891 988.8,673.2 668.7,495.6 740.6,823.9 					"/>
					<polygon fill="#B2C3D5" points="309.6,520.7 668.3,495.3 739.9,823.4 344.2,546.9 					"/>
					<polygon fill="#B2C3D5" points="1657.4,832.9 1927.7,910.3 1994.1,816.6 1809.3,576.1 					"/>
					<polygon fill="#2F4E71" points="1530.3,734.5 1809.3,576.1 1657.4,832.9 					"/>
					<polygon fill="#B2C3D5" points="1087,600 1362.9,527.7 1329,404.8 					"/>
					<polygon fill="#6586AB" points="1087,600 1530.3,734.5 1362.9,527.7 					"/>
					<polygon fill="#6586AB" points="1079.7,453.2 1087,600 1329,404.8 					"/>
					<polygon fill="#3E6896" points="949.1,482.6 1087,600 1079.7,453.2 					"/>
					<polygon fill="#6586AB" points="987.8,672.5 949.1,482.6 668.3,495.3 					"/>
					<polygon fill="#8BA4C0" points="1530.3,734.5 1226.8,714.9 1087,600 					"/>
					<polygon fill="#B2C3D5" points="1406.1,858.1 1530.3,734.5 1226.8,714.9 					"/>
					<polygon fill="#6586AB" points="1657.4,832.9 1530.3,734.5 1406.1,858.1 					"/>
					<polygon fill="#8BA4C0" points="1754,980.6 1880.3,979.3 1928.9,909.9 1657.4,832.9 					"/>
					<polygon fill="#6586AB" points="1696.6,989.8 1754,980.6 1657.4,832.9 					"/>
					<polygon fill="#B2C3D5" points="1406.1,858.1 1696.6,989.8 1657.4,832.9 					"/>
					<polygon fill="#2F4E71" points="1347.6,941.8 1695.1,988.8 1406.1,858.1 					"/>
					<polygon fill="#6586AB" points="1774.8,1129 1695.5,989.1 1348,942.1 1393.2,1280.4 					"/>
					<polygon fill="#3E6896" points="1579.1,1410.3 1774.9,1130.2 1393.2,1280.4 					"/>
					<polygon fill="#B2C3D5" points="1348,942.1 1393.2,1280.4 1170.3,1124.5 					"/>
					<polygon fill="#8BA4C0" points="946.4,968 1171.4,1125.3 1348,942.1 					"/>
					<polygon fill="#2F4E71" points="988.8,673.2 1348.4,942.4 946.4,968 836.5,891 					"/>
					<polygon fill="#6586AB" points="1226.8,714.9 1348,942.1 987.8,672.5 					"/>
					<polygon fill="#2F4E71" points="1087,600 1226.8,714.9 987.8,672.5 949.1,482.6 					"/>
					<polygon fill="#8BA4C0" points="1406.1,858.1 1347.6,941.8 1226.5,714.7 					"/>
					<polygon fill="#3E6896" points="1695.5,989.1 1754,980.6 1798.8,1094.6 1774.9,1130.2 					"/>
					<polygon fill="#2F4E71" points="1880.3,979.3 1798.8,1094.6 1754,980.6 					"/>
				</g>
				<g opacity="0.65">
					<polygon fill="#841D53" points="1250.5,-31.9 1098,186 1418.2,363.4 1346.3,35.2 					"/>
					<polygon fill="#C0528C" points="1743.4,339 1418.7,363.8 1347,35.7 1742.7,312.3 					"/>
					<polygon fill="#B0276F" points="92.8,42.6 277.5,283.1 -9.3,188.7 					"/>
					<polygon fill="#DFA9C5" points="429.5,26.3 159.2,-51.1 92.8,42.6 277.5,283.1 					"/>
					<polygon fill="#B0276F" points="556.6,124.6 277.5,283.1 429.5,26.3 					"/>
					<polygon fill="#DFA9C5" points="879.3,362.2 556.6,124.6 805,431.4 					"/>
					<polygon fill="#C0528C" points="1007.3,406 879.3,362.2 805,431.4 					"/>
					<polygon fill="#B0276F" points="962.4,289.6 879.3,362.2 1007.3,406 					"/>
					<polygon fill="#841D53" points="1137.8,376.6 962.4,289.6 1047.8,488.1 					"/>
					<polygon fill="#C0528C" points="1099,186.7 1137.8,376.6 1418.7,363.8 					"/>
					<polygon fill="#C0528C" points="860,144.3 879.3,362.2 962.4,289.6 					"/>
					<polygon fill="#D07DA9" points="556.6,124.6 860,144.3 879.3,362.2 					"/>
					<polygon fill="#DFA9C5" points="680.8,1.1 556.6,124.6 860,144.3 					"/>
					<polygon fill="#C0528C" points="429.5,26.3 556.6,124.6 680.8,1.1 					"/>
					<polygon fill="#D07DA9" points="333,-121.6 206.6,-120.3 158.1,-50.7 429.5,26.3 					"/>
					<polygon fill="#C0528C" points="390.4,-130.8 333,-121.6 429.5,26.3 					"/>
					<polygon fill="#DFA9C5" points="680.8,1.1 390.4,-130.8 429.5,26.3 					"/>
					<polygon fill="#B0276F" points="739.3,-82.8 391.9,-129.7 680.7,1.1 					"/>
					<polygon fill="#C0528C" points="312,-269.8 391.5,-130 739,-83 693.8,-421.2 					"/>
					<polygon fill="#841D53" points="507.9,-551.3 312.1,-271 693.8,-421.2 					"/>
					<polygon fill="#DFA9C5" points="739,-83 693.8,-421.2 916.5,-265.3 					"/>
					<polygon fill="#D07DA9" points="1140.5,-108.8 915.5,-266.2 739,-83 					"/>
					<polygon fill="#B0276F" points="1098,186 738.5,-83.4 1140.5,-108.8 1250.5,-31.9 					"/>
					<polygon fill="#C0528C" points="860,144.3 739,-83 1099,186.7 					"/>
					<polygon fill="#B0276F" points="962.4,289.6 860,144.3 1099,186.7 1137.8,376.6 					"/>
					<polygon fill="#D07DA9" points="680.7,1.1 739.3,-82.8 860.4,144.5 					"/>
					<polygon fill="#841D53" points="391.5,-130 333,-121.6 288,-235.5 312.1,-271 					"/>
					<polygon fill="#B0276F" points="206.6,-120.3 288,-235.5 333,-121.6 					"/>
				</g>
				<g opacity="0.79">
					<polygon fill="#90A4B0" points="1399.9,77.4 1248.8,296.3 970.9,58.2 1303.6,11.1 					"/>
					<polygon fill="#BDCCD4" points="880.3,-255.3 970.4,57.8 1302.9,10.6 905.6,-263.8 					"/>
					<polygon fill="#BDCCD4" points="1733.8,1188.4 1444.1,1099.2 1632.5,1335.1 					"/>
					<polygon fill="#D7E0E5" points="1631.7,867.2 1798.6,1093.5 1733.8,1188.4 1444.1,1099.2 					"/>
					<polygon fill="#BDCCD4" points="1495.2,782.4 1444.1,1099.2 1631.7,867.2 					"/>
					<polygon fill="#D7E0E5" points="1160,562.8 1495.2,782.4 1121,656.5 					"/>
					<polygon fill="#EAEFF1" points="1074.3,458.1 1160,562.8 1121,656.5 					"/>
					<polygon fill="#BDCCD4" points="1199.1,459.5 1160,562.8 1074.3,458.1 					"/>
					<polygon fill="#90A4B0" points="1056.3,325.5 1199.1,459.5 1074.3,458.1 					"/>
					<polygon fill="#D7E0E5" points="1247.8,295.6 1056.3,325.5 970.4,57.8 					"/>
					<polygon fill="#EAEFF1" points="1371,504.8 1160,562.8 1199.1,459.5 					"/>
					<polygon fill="#D7E0E5" points="1495.2,782.4 1371,504.8 1160,562.8 					"/>
					<polygon fill="#D7E0E5" points="1567.6,622.9 1495.2,782.4 1371,504.8 					"/>
					<polygon fill="#EAEFF1" points="1631.7,867.2 1495.2,782.4 1567.6,622.9 					"/>
					<polygon fill="#D7E0E5" points="1803.9,906.1 1846.7,1024.9 1798.5,1094.7 1631.7,867.2 					"/>
					<polygon fill="#BDCCD4" points="1792.5,849.1 1803.9,906.1 1631.7,867.2 					"/>
					<polygon fill="#D7E0E5" points="1567.6,622.9 1792.5,849.1 1631.7,867.2 					"/>
					<polygon fill="#BDCCD4" points="1625.8,538.7 1791,848 1567.7,623 					"/>
					<polygon fill="#EAEFF1" points="1950.2,874 1791.4,848.3 1626.2,539 1958.9,463.4 					"/>
					<polygon fill="#90A4B0" points="2145.5,592.2 1951.3,873.5 1958.9,463.4 					"/>
					<polygon fill="#D7E0E5" points="1626.2,539 1958.9,463.4 1735.1,309 					"/>
					<polygon fill="#D7E0E5" points="1510.2,153.6 1736.2,309.6 1626.2,539 					"/>
					<polygon fill="#BDCCD4" points="1248.8,296.3 1626.7,539.4 1510.2,153.6 1399.9,77.4 					"/>
					<polygon fill="#EAEFF1" points="1371,504.8 1626.2,539 1247.8,295.6 					"/>
					<polygon fill="#BDCCD4" points="1199.1,459.5 1371,504.8 1247.8,295.6 1056.3,325.5 					"/>
					<polygon fill="#D7E0E5" points="1567.7,623 1625.8,538.7 1370.6,504.6 					"/>
					<polygon fill="#90A4B0" points="1791.4,848.3 1803.9,906.1 1926.4,908.5 1951.3,873.5 					"/>
					<polygon fill="#BDCCD4" points="1846.7,1024.9 1926.4,908.5 1803.9,906.1 					"/>
				</g>
			</g>
		</g>
	</g>
</g>
<path fill="#42A1DA" d="M1198.2,228.8h-65.3h-5v41.4c0,8.1-6.6,14.6-14.6,14.6H904.7c-8.1,0-14.6-6.6-14.6-14.6v-41.4h-2.9h-66.2
	c-10.3,0-17.7,7.4-17.7,16.5v507c0,9.1,7.4,16.5,16.5,16.5h378.2c9.1,0,16.5-7.4,16.5-16.5v-507
	C1214.6,236.2,1207.3,228.8,1198.2,228.8z M934.7,613.2c0,7.3-5.8,13.1-13.1,13.1H871c-7.2,0-13.1-5.8-13.1-13.1v-26.4
	c0-7.2,5.8-13.1,13.1-13.1h50.6c7.2,0,13.1,5.8,13.1,13.1V613.2z M934.7,517.2c0,7.3-5.8,13.1-13.1,13.1H871
	c-7.2,0-13.1-5.8-13.1-13.1v-26.4c0-7.2,5.8-13.1,13.1-13.1h50.6c7.2,0,13.1,5.8,13.1,13.1V517.2z M934.7,416.4
	c0,7.3-5.8,13.1-13.1,13.1H871c-7.2,0-13.1-5.8-13.1-13.1V390c0-7.2,5.8-13.1,13.1-13.1h50.6c7.2,0,13.1,5.8,13.1,13.1V416.4z
	 M1160.2,610H978.6v-21h181.7V610z M1160.2,514H978.6v-21h181.7V514z M1160.2,408H978.6v-21h181.7V408z"/>
<path fill="#42A1DA" d="M1098.2,192.7h-37.7c-4.1-21.9-22.4-38.5-44.3-38.5h-18.5c-21.9,0-40.2,16.5-44.3,38.5h-33.7
	c-6.8,0-12.5,5.9-12.5,13.2v52.7c0,7.3,5.5,13.2,12.5,13.2h178.5c6.8,0,12.5-5.9,12.5-13.2v-52.7
	C1110.7,198.6,1105.1,192.7,1098.2,192.7z M1025.8,208.6c0,5.3-4.3,9.6-9.6,9.6h-14.4c-5.3,0-9.6-4.3-9.6-9.6v-14.4
	c0-5.3,4.3-9.6,9.6-9.6h14.4c5.3,0,9.6,4.3,9.6,9.6V208.6z"/>
</svg>
