<?xml version="1.0" encoding="utf-8"?>
<!-- Generator: Adobe Illustrator 18.1.0, SVG Export Plug-In . SVG Version: 6.00 Build 0)  -->
<svg version="1.1" xmlns="http://www.w3.org/2000/svg" xmlns:xlink="http://www.w3.org/1999/xlink" x="0px" y="0px"
	 viewBox="0 0 995 126" enable-background="new 0 0 995 126" xml:space="preserve">
<g id="Layer_3" display="none">
	<polygon display="inline" fill="#BDCCD4" points="358.6,207.5 261.2,206.8 197,153.8 197.1,207 176.1,207 139.9,156.9 103.2,207 
		55.2,207 19,104.7 19,101.9 103.7,101.9 139.9,153.5 176,101.9 285.6,101.9 320.5,155 355.6,101.9 358.6,101.9 	"/>
	<g>
		<polygon display="inline" fill="#BDCCD4" points="197,154.3 197,107.3 197,107 197,102 176,102 139.9,153.5 103.7,101.9 19,101.9 
			19,104.7 55.2,207 58.2,207 101,105 101,207 103.2,207 139.9,156.9 176.1,207 197.1,207 197,154.3 		"/>
		<polygon display="inline" fill="#BDCCD4" points="323.2,206 285.6,102 243,102 197.3,153.9 261.4,206.7 359,207.5 359,101.9 		"/>
	</g>
</g>
<g id="Layer_2" display="none">
	<rect x="19" y="101.9" fill="#E98924" width="340" height="104.1"/>
	<g>
		<polygon display="inline" fill="#F3CB14" points="841.9,-8.5 579.3,33.5 359,-8.5 		"/>
		<polygon display="inline" fill="#DDA917" points="579.3,33.5 359,-8.5 359,137 		"/>
		<polygon display="inline" fill="#42A1DA" points="359,137 841.9,-8.5 689.4,106.2 		"/>
		<polygon display="inline" fill="#3C5369" points="359,137 570.8,30.7 841.9,-8.5 		"/>
		<polygon display="inline" fill="#3C5369" points="969,137 841.9,69.8 841.9,-8.5 		"/>
		<polygon display="inline" fill="#2F8BC1" points="969,137 841.9,-8.5 968.8,-8.5 		"/>
		<polygon display="inline" fill="#DDA917" points="969,137 689.4,106.2 841.9,69.8 		"/>
		<polygon display="inline" fill="#F3CB14" points="841.9,69.8 689.4,106.2 841.9,-8.5 		"/>
		<polygon display="inline" fill="#3C5369" points="689.4,106.2 359,137 969,137 		"/>
	</g>
	<g display="inline">
		<polygon fill="#2A4351" points="841.9,-8.5 579.3,33.5 359,-8.5 		"/>
		<polygon fill="#3C5369" points="579.3,33.5 359,-8.5 359,137 		"/>
		<polygon fill="#213D4F" points="359,137 841.9,-8.5 689.4,106.2 		"/>
		<polygon fill="#192E3A" points="359,137 570.8,30.7 841.9,-8.5 		"/>
		<polygon fill="#3C5369" points="969,137 841.9,69.8 841.9,-8.5 		"/>
		<polygon fill="#213D4F" points="969,137 841.9,-8.5 968.8,-8.5 		"/>
		<polygon fill="#213D4F" points="969,137 689.4,106.2 841.9,69.8 		"/>
		<polygon fill="#33475A" points="842.9,69.8 689.4,106.2 842.9,-8.5 		"/>
		<polygon fill="#284859" points="689.4,106.2 359,137 969,137 		"/>
	</g>
	<g>
		<polygon display="inline" fill="#3C5369" points="241,105 218,130 239,153 		"/>
		<polygon display="inline" fill="#DDA917" points="226,139 197,155 239.3,153.2 		"/>
		<polygon display="inline" fill="#42A1DA" points="241,105 197,127 197,155 		"/>
		<polygon display="inline" fill="#F3CB14" points="241,105 197,105 197,127 		"/>
		<polygon display="inline" fill="#2F8BC1" points="241,105 239,153 253,108 		"/>
		<polygon display="inline" fill="#F3CB14" points="265,129 253,108 244,137 		"/>
		<polygon display="inline" fill="#F3CB14" points="226,139 219,130 197,155 		"/>
		<polygon display="inline" fill="#C74130" points="257,147 265,129 244,137 		"/>
		<polygon display="inline" fill="#EA5644" points="257,147 244,137 239,153 		"/>
	</g>
	<g>
		<polygon display="inline" fill="#3C5369" points="286,102 323,164 323,127 		"/>
		<polygon display="inline" fill="#42A1DA" points="286,102 323,127 323,102 		"/>
		<polygon display="inline" fill="#EA5644" points="348,116 323,165 323,102 		"/>
		<polygon display="inline" fill="#C74130" points="323,165 348,116 322,205 		"/>
		<polygon display="inline" fill="#F3CB14" points="286.2,176.3 307,137 285.6,102 		"/>
		<polygon display="inline" fill="#DDA917" points="286,176 319.4,157.7 307,137 		"/>
		<polygon display="inline" fill="#F3CB14" points="322,203 323,164 319,157 		"/>
		<polygon display="inline" fill="#D66127" points="286,176 295,196 319.4,157.7 		"/>
		<polygon display="inline" fill="#E98924" points="295,196 322,205 319,158 		"/>
		<polygon display="inline" fill="#F3CB14" points="355,132 331,175 348,116 		"/>
		<polygon display="inline" fill="#42A1DA" points="356,102 348,116 323,102 		"/>
		<polygon display="inline" fill="#3C5369" points="356,102 355,132 348,116 		"/>
		<polygon display="inline" fill="#DDA917" points="355,175 331,174 355,132 		"/>
		<polygon display="inline" fill="#F3CB14" points="350,192 322,205 331,174 		"/>
		<polygon display="inline" fill="#CE9A19" points="355,175 350,192 331,174 		"/>
	</g>
	<g>
		<polygon display="inline" fill="#3C5369" points="58,144 58,105 95,105 		"/>
		<polygon display="inline" fill="#C74130" points="58,144 65,114 95,105 		"/>
		<polygon display="inline" fill="#F3CB14" points="72,143 58,144 95,105 		"/>
		<polygon display="inline" fill="#DDA917" points="72,143 58,163 58,144 		"/>
		<polygon display="inline" fill="#3C5369" points="72,143 58,168 58,163 		"/>
		<polygon display="inline" fill="#EA5644" points="65,114 58,105 95,105 		"/>
	</g>
	<path display="inline" fill="#3C5369" d="M94.5,105.8"/>
	<path display="inline" fill="none" stroke="#000000" stroke-miterlimit="10" d="M57.5,169.8"/>
</g>
<g id="Layer_4" display="none">
</g>
<g id="Layer_1">
	<g>
		<polygon display="none" fill="#2F8BC1" points="649,10.7 657.7,6.1 659.2,113.5 650.6,118.1 		"/>
		<polygon display="none" fill="#2F8BC1" points="626.7,10.7 635.3,6.1 657.7,6.1 649,10.7 		"/>
		<path display="none" fill="#2F8BC1" d="M702.5,30.6l8.6-4.6c-0.3,0.1-0.6,0.3-0.8,0.5c-3.5,2.1-6.3,4.8-8.4,8.3
			c-2.1,3.5-3.7,7.4-4.6,11.8c-0.9,4.4-1.4,9-1.3,13.7c0.1,4.5,0.6,8.9,1.7,13.2c1.1,4.3,2.7,8.1,4.9,11.5c2.2,3.4,5.1,6.1,8.7,8.2
			c3.5,2.1,7.8,3.1,12.9,3.1c5,0,9.2-0.9,12.7-2.7l-8.6,4.6c-3.4,1.8-7.7,2.7-12.7,2.7c-5,0-9.3-1-12.9-3.1
			c-3.5-2.1-6.4-4.8-8.7-8.2c-2.2-3.4-3.9-7.2-4.9-11.5c-1.1-4.3-1.6-8.6-1.7-13.2c-0.1-4.7,0.4-9.3,1.3-13.7
			c0.9-4.4,2.5-8.3,4.6-11.8c2.1-3.5,4.9-6.2,8.4-8.3C701.9,30.9,702.2,30.7,702.5,30.6z"/>
		<path display="none" fill="#2F8BC1" d="M740.5,112l-8.6,4.6c4.2-2.2,8.1-5.8,11.6-10.7l8.6-4.6C748.6,106.2,744.7,109.7,740.5,112
			z"/>
		<polygon display="none" fill="#2F8BC1" points="759.3,60 767.9,55.5 768.8,113.5 760.1,118.1 		"/>
		<polygon display="none" fill="#2F8BC1" points="759,60.4 717,60.4 726.7,55.2 768,55.2 		"/>
		<path display="none" fill="#2F8BC1" d="M761.2,25.2c-2.6-4.7-5.9-8.7-9.9-11.9c-4-3.2-8.4-5.6-13.3-7.3c-4.9-1.7-10-2.5-15.2-2.5
			C715,3.6,708,5,701.9,7.9c-0.6,0.3-1.3,0.6-1.9,0.9l-8.6,4.6c0.6-0.3,1.2-0.6,1.9-0.9c6.2-2.9,13.2-4.4,20.9-4.4
			c5.2,0,10.3,0.8,15.2,2.5c4.9,1.6,9.4,4.1,13.3,7.3c4,3.2,7.3,7.2,9.9,11.9s4.3,10.1,4.9,16.2l8.6-4.6
			C765.5,35.4,763.9,29.9,761.2,25.2z"/>
		<polygon display="none" fill="#2F8BC1" points="798.4,46.2 807,41.6 807.8,113.5 799.1,118.1 		"/>
		<polygon display="none" fill="#2F8BC1" points="776.6,10.7 785.3,6.1 807.5,6.1 798.8,10.7 		"/>
		<polygon display="none" fill="#2F8BC1" points="798.8,10.7 807.5,6.1 850.9,78.2 842.3,82.7 		"/>
		<polygon display="none" fill="#2F8BC1" points="862.4,10.7 871.1,6.1 872.7,113.5 864,118.1 		"/>
		<polygon display="none" fill="#2F8BC1" points="841.5,10.7 850.2,6.1 871.1,6.1 862.4,10.7 		"/>
		<polygon display="none" fill="#2F8BC1" points="876.7,82.4 885.4,77.9 907,77.9 898.4,82.4 		"/>
		<path display="none" fill="#2F8BC1" d="M942.8,95l-8.6,4.6c-0.1,0-0.1,0.1-0.2,0.1c-2,1-4.1,1.7-6.4,2c-2.3,0.3-4.4,0.5-6.4,0.5
			c-2.9,0-5.8-0.4-8.6-1.1c-2.8-0.8-5.2-1.9-7.2-3.5c-2.1-1.6-3.7-3.6-5-6.1c-1.3-2.5-1.9-5.6-2-9.2l8.6-4.6c0.1,3.6,0.7,6.7,2,9.2
			c1.3,2.5,2.9,4.5,5,6.1c2.1,1.6,4.5,2.7,7.2,3.5c2.8,0.7,5.6,1.1,8.6,1.1c2,0,4.1-0.2,6.4-0.5c2.3-0.4,4.4-1,6.4-2
			C942.6,95.1,942.7,95.1,942.8,95z"/>
		<path display="none" fill="#2F8BC1" d="M967.1,66.8c-2.5-3.9-5.4-6.9-8.7-9.3c-3.3-2.3-6.7-4-10.1-5c-3.4-1.1-6-1.8-7.9-2.2
			c-6.4-1.7-11.5-3.1-15.5-4.2c-4-1.1-7.1-2.2-9.3-3.3c-2.2-1.1-3.8-2.3-4.5-3.6c-0.8-1.3-1.2-3-1.2-5.1c0-2.3,0.4-4.2,1.3-5.7
			c0.9-1.5,2.1-2.8,3.6-3.8c0.4-0.3,0.9-0.6,1.3-0.8l-8.6,4.6c-0.5,0.2-0.9,0.5-1.3,0.8c-1.5,1-2.7,2.3-3.6,3.8
			c-0.9,1.5-1.4,3.4-1.3,5.7c0,2.1,0.4,3.8,1.2,5.1c0.8,1.3,2.3,2.5,4.5,3.6c2.2,1.1,5.3,2.2,9.3,3.3c4,1.1,9.1,2.5,15.5,4.2
			c1.9,0.4,4.5,1.1,7.9,2.2c3.4,1,6.7,2.7,10.1,5c3.4,2.3,6.3,5.4,8.7,9.3c2.5,3.9,3.8,8.8,3.8,14.8c0.1,4.9-0.8,9.5-2.5,13.7
			c-1.7,4.2-4.4,7.8-7.9,10.9c-1.9,1.6-4,3.1-6.4,4.3l8.6-4.6c2.4-1.2,4.5-2.7,6.4-4.3c3.5-3.1,6.1-6.7,7.9-10.9
			c1.7-4.2,2.6-8.8,2.5-13.7C970.9,75.6,969.6,70.7,967.1,66.8z"/>
		<path display="none" fill="#2F8BC1" d="M963.3,22.3c-2.3-4.4-5.4-8-9.2-10.8c-3.8-2.8-8.2-4.8-13.1-6.1c-4.9-1.2-10-1.9-15.3-1.9
			c-4.6,0-9.1,0.6-13.6,1.9c-2.6,0.7-5,1.7-7.2,2.9l-8.6,4.6c2.3-1.2,4.7-2.2,7.2-2.9c4.5-1.3,9.1-1.9,13.6-1.9
			c5.3,0,10.4,0.6,15.3,1.9c4.9,1.3,9.3,3.3,13.1,6.1c3.8,2.8,6.9,6.4,9.2,10.8c2.3,4.4,3.5,9.6,3.6,15.9l8.6-4.6
			C966.8,31.9,965.6,26.7,963.3,22.3z"/>
		<polygon display="none" fill="#2F8BC1" points="529,83.2 537.6,78.7 559.2,78.7 550.6,83.2 		"/>
		<path display="none" fill="#2F8BC1" d="M595.1,95.4l-8.6,4.6c-0.1,0.1-0.2,0.1-0.3,0.2c-2,1-4.1,1.6-6.4,2
			c-2.3,0.3-4.4,0.5-6.4,0.5c-2.9,0-5.8-0.4-8.6-1.1c-2.8-0.7-5.2-1.9-7.2-3.4c-2.1-1.5-3.7-3.5-5-6c-1.3-2.5-1.9-5.4-2-9l8.6-4.6
			c0.1,3.5,0.7,6.5,2,9c1.3,2.5,2.9,4.4,5,6c2.1,1.5,4.5,2.6,7.2,3.4c2.8,0.7,5.6,1.1,8.6,1.1c2,0,4.1-0.2,6.4-0.5
			c2.3-0.3,4.4-1,6.4-2C594.9,95.6,595,95.5,595.1,95.4z"/>
		<path display="none" fill="#2F8BC1" d="M619.4,67.9c-2.5-3.8-5.4-6.8-8.7-9c-3.3-2.3-6.7-3.9-10.1-4.9c-3.4-1-6-1.7-7.9-2.1
			c-6.4-1.7-11.5-3-15.5-4.1c-4-1.1-7.1-2.2-9.3-3.2c-2.2-1.1-3.8-2.2-4.5-3.5c-0.8-1.3-1.2-2.9-1.2-5c0-2.3,0.4-4.1,1.3-5.6
			c0.9-1.5,2.1-2.7,3.6-3.7c0.4-0.3,0.8-0.5,1.3-0.7l-8.6,4.6c-0.4,0.2-0.9,0.5-1.3,0.7c-1.5,1-2.7,2.2-3.6,3.7
			c-0.9,1.5-1.4,3.3-1.3,5.6c0,2.1,0.4,3.7,1.2,5c0.8,1.3,2.3,2.5,4.5,3.5c2.2,1.1,5.3,2.2,9.3,3.2c4,1.1,9.1,2.5,15.5,4.1
			c1.9,0.4,4.5,1.1,7.9,2.1c3.4,1,6.8,2.7,10.1,4.9c3.4,2.3,6.3,5.3,8.7,9c2.5,3.8,3.8,8.6,3.8,14.5c0.1,4.8-0.8,9.3-2.5,13.4
			c-1.7,4.1-4.4,7.7-7.9,10.7c-1.8,1.5-3.8,2.9-6.1,4.1l8.6-4.6c2.2-1.2,4.3-2.5,6.1-4.1c3.5-3,6.1-6.5,7.9-10.7
			c1.7-4.1,2.6-8.6,2.5-13.4C623.1,76.5,621.8,71.7,619.4,67.9z"/>
		<path display="none" fill="#2F8BC1" d="M615.6,24.3c-2.3-4.3-5.4-7.8-9.2-10.5c-3.8-2.7-8.2-4.7-13.1-6C588.4,6.7,583.3,6,578,6
			c-4.6,0-9.1,0.6-13.6,1.9c-2.7,0.8-5.2,1.7-7.5,3l-8.6,4.6c2.3-1.2,4.8-2.2,7.5-3c4.5-1.3,9.1-1.9,13.6-1.9
			c5.3,0,10.4,0.6,15.3,1.8c4.9,1.2,9.3,3.2,13.1,6c3.8,2.7,6.9,6.3,9.2,10.5c2.3,4.3,3.5,9.4,3.6,15.5l8.6-4.6
			C619.1,33.8,617.9,28.6,615.6,24.3z"/>
		<polygon display="none" fill="#2F8BC1" points="465.8,74.2 474.5,69.6 474.9,95.6 466.2,100.2 		"/>
		<polygon display="none" fill="#2F8BC1" points="466.2,100.2 474.9,95.6 529,95.6 520.4,100.2 		"/>
		<polygon display="none" fill="#2F8BC1" points="520.4,100.2 529,95.6 529.3,115.4 520.7,120 		"/>
		<polygon display="none" fill="#2F8BC1" points="486.3,51 473.8,51 451.6,51 442.9,55 465.1,55 477.6,55 514.8,55 523.5,51 		"/>
		<polygon display="none" fill="#2F8BC1" points="514.8,55.4 523.5,50.9 523.7,69.6 515.1,74.2 		"/>
		<polygon display="none" fill="#2F8BC1" points="518.1,10.7 526.7,6.1 527,25.9 518.4,30.5 		"/>
		<polygon display="none" fill="#2F8BC1" points="442.3,10.7 450.9,6.1 526.7,6.1 518.1,10.7 		"/>
		<path display="none" fill="#2F8BC1" d="M398.2,92.2c-3,1.1-6.1,1.8-9.4,1.8h-19.4l-8.6,4h19.4c3.2,0,6.3-0.4,9.4-1.6
			c0.8-0.3,1.7-0.6,2.5-1.1l8.6-4.4C399.9,91.4,399.1,91.9,398.2,92.2z"/>
		<path display="none" fill="#2F8BC1" d="M432.2,35.9c-2.4-6.6-5.7-12.1-9.9-16.5c-4.2-4.4-9.1-7.3-14.8-9.5
			C401.8,7.7,395.7,7,389.2,7h-21l-8.6,4h21c6.5,0,12.6,0.9,18.3,3.1c5.7,2.2,10.6,5.2,14.8,9.6c4.2,4.4,7.5,10,9.9,16.6
			c2.4,6.6,3.7,14.4,3.8,23.4c0.1,7.8-0.7,15.1-2.5,21.7c-1.8,6.6-4.6,12.3-8.4,17.2c-3.5,4.4-7.8,8-12.9,10.7l8.6-4.5
			c5.1-2.7,9.4-6.2,12.9-10.7c3.8-4.8,6.6-10.5,8.4-17.1c1.8-6.6,2.7-13.8,2.5-21.7C435.9,50.3,434.6,42.5,432.2,35.9z"/>
		<polygon fill="#2F8BC1" points="649,10.7 650.6,118.1 628.2,118.1 626.7,10.7 		"/>
		<path fill="#2F8BC1" d="M714.1,8.1c5.2,0,10.3,0.8,15.2,2.5c4.9,1.6,9.4,4.1,13.3,7.3c4,3.2,7.3,7.2,9.9,11.9s4.3,10.1,4.9,16.2
			h-21.3c-1.4-6-4-10.5-7.9-13.5c-3.8-3-8.5-4.5-13.9-4.5c-5,0-9.3,1-12.8,3.1c-3.5,2.1-6.3,4.8-8.4,8.3c-2.1,3.5-3.7,7.4-4.6,11.8
			c-0.9,4.4-1.4,9-1.3,13.7c0.1,4.5,0.6,8.9,1.7,13.2c1.1,4.3,2.7,8.1,4.9,11.5c2.2,3.4,5.1,6.1,8.7,8.2c3.5,2.1,7.8,3.1,12.9,3.1
			c7.4,0,13.1-2,17.1-5.9c4-4,6.2-9.7,6.8-17.2h-22.5L716.6,60h42.7l0.8,58h-14.2l-2.5-12.2c-3.9,5.4-8.3,9.2-13.1,11.4
			c-4.8,2.2-9.7,3.2-14.6,3.2c-7.8,0-14.8-1.4-21.1-4.3c-6.3-2.9-11.6-6.8-15.9-11.8c-4.3-5-7.7-10.9-10.1-17.7
			c-2.4-6.8-3.6-14.1-3.7-21.9c-0.1-8,0.9-15.5,3.1-22.3c2.2-6.9,5.4-12.9,9.6-18c4.2-5.1,9.4-9.1,15.5-12
			C699.4,9.6,706.4,8.1,714.1,8.1z"/>
		<polygon fill="#2F8BC1" points="862.4,10.7 864,118.1 841.7,118.1 798.4,46.2 799.1,118.1 778.2,118.1 776.6,10.7 798.8,10.7 
			842.3,82.7 841.5,10.7 		"/>
		<path fill="#2F8BC1" d="M917.1,8.1c5.3,0,10.4,0.6,15.3,1.9c4.9,1.3,9.3,3.3,13.1,6.1c3.8,2.8,6.9,6.4,9.2,10.8
			c2.3,4.4,3.5,9.6,3.6,15.9h-21.6c-0.2-3.2-0.9-5.9-2-8c-1.1-2.1-2.6-3.8-4.4-5c-1.8-1.2-3.9-2.1-6.2-2.6c-2.3-0.5-4.9-0.8-7.6-0.8
			c-1.8,0-3.6,0.2-5.4,0.6c-1.8,0.4-3.4,1.1-4.9,2.1c-1.5,1-2.7,2.3-3.6,3.8c-0.9,1.5-1.4,3.4-1.3,5.7c0,2.1,0.4,3.8,1.2,5.1
			c0.8,1.3,2.3,2.5,4.5,3.6c2.2,1.1,5.3,2.2,9.3,3.3c4,1.1,9.1,2.5,15.5,4.2c1.9,0.4,4.5,1.1,7.9,2.2c3.4,1,6.7,2.7,10.1,5
			c3.4,2.3,6.3,5.4,8.7,9.3c2.5,3.9,3.8,8.8,3.8,14.8c0.1,4.9-0.8,9.5-2.5,13.7c-1.7,4.2-4.4,7.8-7.9,10.9
			c-3.5,3.1-7.9,5.4-13.1,7.1c-5.2,1.7-11.3,2.6-18.2,2.6c-5.6,0-11-0.7-16.3-2.2c-5.3-1.5-10-3.7-14.1-6.8
			c-4.1-3.1-7.3-7.1-9.8-11.9c-2.4-4.8-3.7-10.5-3.7-17.1h21.6c0.1,3.6,0.7,6.7,2,9.2c1.3,2.5,2.9,4.5,5,6.1
			c2.1,1.6,4.5,2.7,7.2,3.5c2.8,0.7,5.6,1.1,8.6,1.1c2,0,4.1-0.2,6.4-0.5c2.3-0.4,4.4-1,6.4-2c2-1,3.6-2.4,4.9-4.1
			c1.3-1.8,1.9-4,1.9-6.7c0-2.9-1-5.3-2.7-7.1c-1.8-1.8-4.1-3.3-7-4.5c-2.9-1.2-6.1-2.3-9.7-3.2c-3.6-0.9-7.3-1.9-11-3
			c-3.8-1-7.5-2.2-11.2-3.7c-3.6-1.5-6.9-3.3-9.8-5.6c-2.9-2.3-5.2-5.2-7-8.6c-1.8-3.5-2.7-7.6-2.8-12.6c-0.1-5.5,1-10.3,3.1-14.4
			c2.2-4.1,5-7.4,8.6-10.1s7.6-4.7,12.2-6C908,8.8,912.5,8.1,917.1,8.1z"/>
		<path fill="#2F8BC1" d="M569.3,10.6c5.3,0,10.4,0.6,15.3,1.8c4.9,1.2,9.3,3.2,13.1,6c3.8,2.7,6.9,6.3,9.2,10.5
			c2.3,4.3,3.5,9.4,3.6,15.5h-21.6c-0.2-3.1-0.9-5.7-2-7.8c-1.1-2.1-2.6-3.7-4.4-4.9c-1.8-1.2-3.9-2-6.2-2.5
			c-2.3-0.5-4.9-0.7-7.6-0.7c-1.8,0-3.6,0.2-5.4,0.6c-1.8,0.4-3.4,1.1-4.9,2.1c-1.5,1-2.7,2.2-3.6,3.7c-0.9,1.5-1.4,3.3-1.3,5.6
			c0,2.1,0.4,3.7,1.2,5c0.8,1.3,2.3,2.5,4.5,3.5c2.2,1.1,5.3,2.2,9.3,3.2c4,1.1,9.1,2.5,15.5,4.1c1.9,0.4,4.5,1.1,7.9,2.1
			c3.4,1,6.8,2.7,10.1,4.9c3.4,2.3,6.3,5.3,8.7,9c2.5,3.8,3.8,8.6,3.8,14.5c0.1,4.8-0.8,9.3-2.5,13.4c-1.7,4.1-4.4,7.7-7.9,10.7
			s-7.9,5.3-13.1,7c-5.2,1.7-11.3,2.5-18.2,2.5c-5.6,0-11-0.7-16.3-2.1c-5.3-1.4-10-3.7-14-6.7c-4.1-3-7.3-6.9-9.8-11.6
			c-2.4-4.7-3.7-10.3-3.7-16.8h21.6c0.1,3.5,0.7,6.5,2,9c1.3,2.5,2.9,4.4,5,6c2.1,1.5,4.5,2.6,7.2,3.4c2.8,0.7,5.6,1.1,8.6,1.1
			c2,0,4.1-0.2,6.4-0.5c2.3-0.3,4.4-1,6.4-2c2-1,3.6-2.3,4.9-4c1.3-1.7,1.9-3.9,1.9-6.5c0-2.8-1-5.1-2.7-6.9c-1.8-1.8-4.1-3.2-7-4.4
			c-2.9-1.2-6.1-2.2-9.7-3.1c-3.6-0.9-7.3-1.9-11-2.9c-3.8-1-7.5-2.2-11.1-3.6c-3.6-1.4-6.9-3.3-9.8-5.5c-2.9-2.3-5.2-5.1-7-8.5
			c-1.8-3.4-2.7-7.5-2.8-12.3c-0.1-5.4,1-10.1,3.1-14c2.2-4,5-7.3,8.6-9.9c3.6-2.6,7.6-4.6,12.2-5.9
			C560.2,11.2,564.8,10.6,569.3,10.6z"/>
		<polygon fill="#2F8BC1" points="518.1,10.7 518.4,30.5 477.3,30.5 442.5,30.5 442.3,10.7 		"/>
		<polygon fill="#2F8BC1" points="514.8,55.4 515.1,74.2 465.8,74.2 466.2,100.2 520.4,100.2 520.7,120 443.8,120 442.9,55.4 
			465.1,55.4 477.6,55.4 		"/>
		<path fill="#2F8BC1" d="M380.5,11.7c6.5,0,12.6,0.6,18.3,2.8c5.7,2.2,10.6,5,14.8,9.4c4.2,4.4,7.5,9.9,9.9,16.5
			c2.4,6.6,3.7,14.4,3.8,23.3c0.1,7.8-0.7,15-2.5,21.7c-1.8,6.6-4.6,12.3-8.4,17.1c-3.8,4.8-8.6,8.6-14.3,11.4
			c-5.7,2.8-12.6,4.1-20.3,4.1l-20.7-0.2l-0.3-19.8h19.4c3.2,0,6.3-0.5,9.4-1.6c3-1.1,5.7-2.9,8-5.4c2.3-2.5,4.2-5.9,5.5-10
			c1.4-4.1,2-9.1,1.9-15c-0.1-5.4-0.6-10.2-1.7-14.6c-1.1-4.4-2.7-8-5.1-11.1c-2.3-3.1-5.4-5.2-9.1-6.9c-3.8-1.6-8.4-2-13.9-2h-15.4
			l-0.3-19.8L380.5,11.7z"/>
		<g>
			<polygon fill="#2F8BC1" stroke="#F2F2F2" stroke-width="0.5" stroke-miterlimit="10" points="649,10.7 650.6,118.1 628.2,118.1 
				626.7,10.7 			"/>
			<path fill="#2F8BC1" stroke="#F2F2F2" stroke-width="0.5" stroke-miterlimit="10" d="M714.1,8.1c5.2,0,10.3,0.8,15.2,2.5
				c4.9,1.6,9.4,4.1,13.3,7.3c4,3.2,7.3,7.2,9.9,11.9s4.3,10.1,4.9,16.2h-21.3c-1.4-6-4-10.5-7.9-13.5c-3.8-3-8.5-4.5-13.9-4.5
				c-5,0-9.3,1-12.8,3.1c-3.5,2.1-6.3,4.8-8.4,8.3c-2.1,3.5-3.7,7.4-4.6,11.8c-0.9,4.4-1.4,9-1.3,13.7c0.1,4.5,0.6,8.9,1.7,13.2
				c1.1,4.3,2.7,8.1,4.9,11.5c2.2,3.4,5.1,6.1,8.7,8.2c3.5,2.1,7.8,3.1,12.9,3.1c7.4,0,13.1-2,17.1-5.9c4-4,6.2-9.7,6.8-17.2h-22.5
				L716.6,60h42.7l0.8,58h-14.2l-2.5-12.2c-3.9,5.4-8.3,9.2-13.1,11.4c-4.8,2.2-9.7,3.2-14.6,3.2c-7.8,0-14.8-1.4-21.1-4.3
				c-6.3-2.9-11.6-6.8-15.9-11.8c-4.3-5-7.7-10.9-10.1-17.7c-2.4-6.8-3.6-14.1-3.7-21.9c-0.1-8,0.9-15.5,3.1-22.3
				c2.2-6.9,5.4-12.9,9.6-18c4.2-5.1,9.4-9.1,15.5-12C699.4,9.6,706.4,8.1,714.1,8.1z"/>
			<polygon fill="#2F8BC1" stroke="#F2F2F2" stroke-width="0.5" stroke-miterlimit="10" points="862.4,10.7 864,118.1 841.7,118.1 
				798.4,46.2 799.1,118.1 778.2,118.1 776.6,10.7 798.8,10.7 842.3,82.7 841.5,10.7 			"/>
			<path fill="#2F8BC1" stroke="#F2F2F2" stroke-width="0.5" stroke-miterlimit="10" d="M917.1,8.1c5.3,0,10.4,0.6,15.3,1.9
				c4.9,1.3,9.3,3.3,13.1,6.1c3.8,2.8,6.9,6.4,9.2,10.8c2.3,4.4,3.5,9.6,3.6,15.9h-21.6c-0.2-3.2-0.9-5.9-2-8
				c-1.1-2.1-2.6-3.8-4.4-5c-1.8-1.2-3.9-2.1-6.2-2.6c-2.3-0.5-4.9-0.8-7.6-0.8c-1.8,0-3.6,0.2-5.4,0.6c-1.8,0.4-3.4,1.1-4.9,2.1
				c-1.5,1-2.7,2.3-3.6,3.8c-0.9,1.5-1.4,3.4-1.3,5.7c0,2.1,0.4,3.8,1.2,5.1c0.8,1.3,2.3,2.5,4.5,3.6c2.2,1.1,5.3,2.2,9.3,3.3
				c4,1.1,9.1,2.5,15.5,4.2c1.9,0.4,4.5,1.1,7.9,2.2c3.4,1,6.7,2.7,10.1,5c3.4,2.3,6.3,5.4,8.7,9.3c2.5,3.9,3.8,8.8,3.8,14.8
				c0.1,4.9-0.8,9.5-2.5,13.7c-1.7,4.2-4.4,7.8-7.9,10.9c-3.5,3.1-7.9,5.4-13.1,7.1c-5.2,1.7-11.3,2.6-18.2,2.6
				c-5.6,0-11-0.7-16.3-2.2c-5.3-1.5-10-3.7-14.1-6.8c-4.1-3.1-7.3-7.1-9.8-11.9c-2.4-4.8-3.7-10.5-3.7-17.1h21.6
				c0.1,3.6,0.7,6.7,2,9.2c1.3,2.5,2.9,4.5,5,6.1c2.1,1.6,4.5,2.7,7.2,3.5c2.8,0.7,5.6,1.1,8.6,1.1c2,0,4.1-0.2,6.4-0.5
				c2.3-0.4,4.4-1,6.4-2c2-1,3.6-2.4,4.9-4.1c1.3-1.8,1.9-4,1.9-6.7c0-2.9-1-5.3-2.7-7.1c-1.8-1.8-4.1-3.3-7-4.5
				c-2.9-1.2-6.1-2.3-9.7-3.2c-3.6-0.9-7.3-1.9-11-3c-3.8-1-7.5-2.2-11.2-3.7c-3.6-1.5-6.9-3.3-9.8-5.6c-2.9-2.3-5.2-5.2-7-8.6
				c-1.8-3.5-2.7-7.6-2.8-12.6c-0.1-5.5,1-10.3,3.1-14.4c2.2-4.1,5-7.4,8.6-10.1s7.6-4.7,12.2-6C908,8.8,912.5,8.1,917.1,8.1z"/>
			<path fill="#2F8BC1" stroke="#F2F2F2" stroke-width="0.5" stroke-miterlimit="10" d="M569.3,10.6c5.3,0,10.4,0.6,15.3,1.8
				c4.9,1.2,9.3,3.2,13.1,6c3.8,2.7,6.9,6.3,9.2,10.5c2.3,4.3,3.5,9.4,3.6,15.5h-21.6c-0.2-3.1-0.9-5.7-2-7.8
				c-1.1-2.1-2.6-3.7-4.4-4.9c-1.8-1.2-3.9-2-6.2-2.5c-2.3-0.5-4.9-0.7-7.6-0.7c-1.8,0-3.6,0.2-5.4,0.6c-1.8,0.4-3.4,1.1-4.9,2.1
				c-1.5,1-2.7,2.2-3.6,3.7c-0.9,1.5-1.4,3.3-1.3,5.6c0,2.1,0.4,3.7,1.2,5c0.8,1.3,2.3,2.5,4.5,3.5c2.2,1.1,5.3,2.2,9.3,3.2
				c4,1.1,9.1,2.5,15.5,4.1c1.9,0.4,4.5,1.1,7.9,2.1c3.4,1,6.8,2.7,10.1,4.9c3.4,2.3,6.3,5.3,8.7,9c2.5,3.8,3.8,8.6,3.8,14.5
				c0.1,4.8-0.8,9.3-2.5,13.4c-1.7,4.1-4.4,7.7-7.9,10.7s-7.9,5.3-13.1,7c-5.2,1.7-11.3,2.5-18.2,2.5c-5.6,0-11-0.7-16.3-2.1
				c-5.3-1.4-10-3.7-14-6.7c-4.1-3-7.3-6.9-9.8-11.6c-2.4-4.7-3.7-10.3-3.7-16.8h21.6c0.1,3.5,0.7,6.5,2,9c1.3,2.5,2.9,4.4,5,6
				c2.1,1.5,4.5,2.6,7.2,3.4c2.8,0.7,5.6,1.1,8.6,1.1c2,0,4.1-0.2,6.4-0.5c2.3-0.3,4.4-1,6.4-2c2-1,3.6-2.3,4.9-4
				c1.3-1.7,1.9-3.9,1.9-6.5c0-2.8-1-5.1-2.7-6.9c-1.8-1.8-4.1-3.2-7-4.4c-2.9-1.2-6.1-2.2-9.7-3.1c-3.6-0.9-7.3-1.9-11-2.9
				c-3.8-1-7.5-2.2-11.1-3.6c-3.6-1.4-6.9-3.3-9.8-5.5c-2.9-2.3-5.2-5.1-7-8.5c-1.8-3.4-2.7-7.5-2.8-12.3c-0.1-5.4,1-10.1,3.1-14
				c2.2-4,5-7.3,8.6-9.9c3.6-2.6,7.6-4.6,12.2-5.9C560.2,11.2,564.8,10.6,569.3,10.6z"/>
			<polygon fill="#2F8BC1" stroke="#F2F2F2" stroke-width="0.5" stroke-miterlimit="10" points="514.8,55.4 515.1,74.2 465.8,74.2 
				466.2,100.2 520.4,100.2 520.7,120 443.8,120 442.9,55.4 465.1,55.4 477.6,55.4 			"/>
			<path fill="#2F8BC1" stroke="#F2F2F2" stroke-width="0.5" stroke-miterlimit="10" d="M380.5,11.7c6.5,0,12.6,0.6,18.3,2.8
				c5.7,2.2,10.6,5,14.8,9.4c4.2,4.4,7.5,9.9,9.9,16.5c2.4,6.6,3.7,14.4,3.8,23.3c0.1,7.8-0.7,15-2.5,21.7
				c-1.8,6.6-4.6,12.3-8.4,17.1c-3.8,4.8-8.6,8.6-14.3,11.4c-5.7,2.8-12.6,4.1-20.3,4.1l-20.7-0.2l-0.3-19.8h19.4
				c3.2,0,6.3-0.5,9.4-1.6c3-1.1,5.7-2.9,8-5.4c2.3-2.5,4.2-5.9,5.5-10c1.4-4.1,2-9.1,1.9-15c-0.1-5.4-0.6-10.2-1.7-14.6
				c-1.1-4.4-2.7-8-5.1-11.1c-2.3-3.1-5.4-5.2-9.1-6.9c-3.8-1.6-8.4-2-13.9-2h-15.4l-0.3-19.8L380.5,11.7z"/>
		</g>
	</g>
	<g display="none">
		<g display="inline">
			<path fill="#C5C9CD" d="M554.8,91.3c1.3,2.4,2.9,4.3,5,5.7c2.1,1.5,4.5,2.5,7.3,3.3c2.8,0.7,5.7,1.1,8.7,1.1c2,0,4.2-0.2,6.5-0.5
				c2.3-0.3,4.5-1,6.5-1.9c2-0.9,3.7-2.2,5.1-3.9c1.3-1.6,2-3.7,2-6.3c0-2.7-0.9-4.9-2.7-6.6c-1.8-1.7-4.1-3.1-7-4.2
				c-2.9-1.1-6.2-2.1-9.8-3c-3.7-0.8-7.4-1.8-11.1-2.8c-3.9-0.9-7.6-2.1-11.3-3.5c-3.7-1.4-6.9-3.1-9.8-5.3c-2.9-2.2-5.2-4.9-7-8.1
				c-1.8-3.3-2.7-7.2-2.7-11.8c0-5.2,1.1-9.7,3.4-13.5c2.3-3.8,5.2-7,8.9-9.5c3.7-2.5,7.8-4.4,12.4-5.7c4.6-1.2,9.2-1.8,13.9-1.8
				c5.4,0,10.6,0.6,15.5,1.8c5,1.2,9.4,3.1,13.2,5.7c3.9,2.6,6.9,6,9.2,10.1c2.3,4.1,3.4,9.1,3.4,14.9h-22c-0.2-3-0.8-5.5-2-7.5
				c-1.1-2-2.6-3.5-4.4-4.7c-1.8-1.1-3.9-1.9-6.3-2.4c-2.4-0.5-4.9-0.7-7.7-0.7c-1.8,0-3.7,0.2-5.5,0.6c-1.8,0.4-3.5,1-5,2
				c-1.5,0.9-2.7,2.1-3.7,3.5c-1,1.4-1.4,3.2-1.4,5.4c0,2,0.4,3.6,1.2,4.8c0.8,1.2,2.3,2.4,4.6,3.4c2.3,1,5.4,2.1,9.4,3.1
				c4,1,9.2,2.4,15.7,4c1.9,0.4,4.6,1.1,8,2c3.4,1,6.8,2.6,10.2,4.7c3.4,2.2,6.3,5.1,8.7,8.7c2.5,3.6,3.7,8.3,3.7,13.9
				c0,4.6-0.9,8.9-2.7,12.9c-1.8,4-4.6,7.4-8.2,10.2c-3.6,2.9-8.1,5.1-13.4,6.7c-5.3,1.6-11.5,2.4-18.6,2.4c-5.7,0-11.2-0.7-16.5-2
				c-5.3-1.4-10.1-3.5-14.2-6.4c-4.1-2.9-7.3-6.6-9.8-11.2c-2.4-4.5-3.6-9.9-3.5-16.1h22C552.9,86.1,553.6,89,554.8,91.3z"/>
			<path fill="#C5C9CD" d="M653.9,13v103.2h-22.7V13H653.9z"/>
			<path fill="#C5C9CD" d="M735,115.4c-4.9,2.1-9.9,3.1-14.9,3.1c-7.9,0-15-1.4-21.3-4.1c-6.3-2.7-11.6-6.5-16-11.3
				c-4.3-4.8-7.7-10.5-10-17c-2.3-6.5-3.5-13.5-3.5-21c0-7.7,1.2-14.9,3.5-21.5c2.3-6.6,5.6-12.4,10-17.3c4.3-4.9,9.7-8.8,16-11.6
				c6.3-2.8,13.4-4.2,21.3-4.2c5.3,0,10.4,0.8,15.4,2.4c5,1.6,9.4,3.9,13.4,7c4,3.1,7.3,6.9,9.9,11.4c2.6,4.5,4.2,9.7,4.8,15.6
				h-21.7c-1.4-5.8-4-10.1-7.8-13c-3.9-2.9-8.5-4.3-14-4.3c-5.1,0-9.4,1-13,3c-3.6,2-6.5,4.6-8.7,7.9c-2.2,3.3-3.8,7.1-4.8,11.3
				c-1,4.2-1.5,8.6-1.5,13.1c0,4.3,0.5,8.5,1.5,12.6c1,4.1,2.6,7.8,4.8,11.1c2.2,3.3,5.1,5.9,8.7,7.9c3.6,2,7.9,3,13,3
				c7.5,0,13.3-1.9,17.4-5.7c4.1-3.8,6.5-9.3,7.2-16.5h-22.8V60.4h43.3v55.8h-14.4l-2.3-11.7C744.4,109.7,739.9,113.3,735,115.4z"/>
			<path fill="#C5C9CD" d="M806.1,13l43.1,69.2h0.3V13h21.2v103.2H848l-42.9-69.1h-0.3v69.1h-21.2V13H806.1z"/>
			<path fill="#C5C9CD" d="M907.9,90.7c1.3,2.4,2.9,4.4,5,5.9c2.1,1.5,4.5,2.6,7.3,3.3s5.7,1.1,8.7,1.1c2,0,4.2-0.2,6.5-0.5
				c2.3-0.3,4.5-1,6.5-2c2-1,3.7-2.3,5.1-4c1.3-1.7,2-3.8,2-6.4c0-2.8-0.9-5.1-2.7-6.8c-1.8-1.7-4.1-3.2-7-4.3
				c-2.9-1.2-6.2-2.2-9.8-3c-3.7-0.9-7.4-1.8-11.1-2.9c-3.9-1-7.6-2.1-11.3-3.5c-3.7-1.4-6.9-3.2-9.8-5.4c-2.9-2.2-5.2-5-7-8.3
				c-1.8-3.3-2.7-7.3-2.7-12.1c0-5.3,1.1-9.9,3.4-13.8c2.3-3.9,5.2-7.2,8.9-9.8c3.7-2.6,7.8-4.5,12.4-5.8c4.6-1.3,9.2-1.9,13.9-1.9
				c5.4,0,10.6,0.6,15.5,1.8c5,1.2,9.4,3.2,13.2,5.9c3.9,2.7,6.9,6.1,9.2,10.3c2.3,4.2,3.4,9.3,3.4,15.2h-22c-0.2-3.1-0.8-5.6-2-7.7
				c-1.1-2-2.6-3.6-4.4-4.8c-1.8-1.2-3.9-2-6.3-2.5c-2.4-0.5-4.9-0.7-7.7-0.7c-1.8,0-3.7,0.2-5.5,0.6c-1.8,0.4-3.5,1.1-5,2
				c-1.5,1-2.7,2.2-3.7,3.6c-1,1.4-1.4,3.3-1.4,5.5c0,2,0.4,3.7,1.2,4.9c0.8,1.3,2.3,2.4,4.6,3.5c2.3,1.1,5.4,2.1,9.4,3.2
				c4,1.1,9.2,2.4,15.7,4c1.9,0.4,4.6,1.1,8,2.1c3.4,1,6.8,2.6,10.2,4.8c3.4,2.2,6.3,5.2,8.7,8.9c2.5,3.7,3.7,8.5,3.7,14.2
				c0,4.7-0.9,9.1-2.7,13.1c-1.8,4-4.6,7.5-8.2,10.5c-3.6,2.9-8.1,5.2-13.4,6.9c-5.3,1.6-11.5,2.5-18.6,2.5
				c-5.7,0-11.2-0.7-16.5-2.1c-5.3-1.4-10.1-3.6-14.2-6.6c-4.1-3-7.3-6.8-9.8-11.4c-2.4-4.6-3.6-10.1-3.5-16.5h22
				C906.1,85.4,906.7,88.3,907.9,90.7z"/>
		</g>
		<path display="inline" fill="#C5C9CD" d="M424.6,41.6c-2.4-6.4-5.6-11.7-9.8-15.9c-4.2-4.2-9.2-6.9-14.9-9
			c-5.7-2.1-11.9-2.7-18.6-2.7H360v19h15.6c5.6,0,10.3,0.3,14.1,1.9c3.8,1.6,6.9,3.6,9.2,6.6c2.3,3,4,6.5,5,10.6
			c1,4.2,1.5,8.8,1.5,14c0,5.7-0.7,10.5-2.2,14.4c-1.4,4-3.4,7.1-5.8,9.6c-2.4,2.5-5.2,4.2-8.2,5.2c-3.1,1.1-6.3,1.5-9.5,1.5H360v19
			l21,0.2c7.9,0,14.9-1.3,20.7-4c5.8-2.6,10.8-6.3,14.7-10.9c3.9-4.6,6.8-10.1,8.8-16.5c1.9-6.4,2.9-13.3,2.9-20.8
			C428.1,55.4,426.9,48,424.6,41.6z"/>
		<g display="inline">
			<polygon fill="#C5C9CD" points="479.2,32 479.2,32 521,32 521,13 444,13 444,32 			"/>
			<polygon fill="#C5C9CD" points="467,99 467,74 517,74 517,56 479.2,56 466.5,56 444,56 444,118 522,118 522,99 			"/>
		</g>
	</g>
	<g>
		<path fill="#2F8BC1" stroke="#F2F2F2" stroke-width="0.5" stroke-miterlimit="10" d="M14,13h76.5l0,3l-37.1-0.2L53.2,118h-2.7
			L50.5,15.8L14,15.7V13z"/>
		<path fill="#2F8BC1" stroke="#F2F2F2" stroke-width="0.5" stroke-miterlimit="10" d="M98.7,118H96L95.8,13.1h2.9v52H171v-52h2.9
			v103.2H171V67.9H98.7L98.7,118z"/>
		<path fill="#2F8BC1" stroke="#F2F2F2" stroke-width="0.5" stroke-miterlimit="10" d="M353.5,12.9v64.7c0,13.9-3.2,24.1-9.7,30.8
			c-6.5,6.6-15.8,10-28.2,10c-12.3,0-21.7-3.3-28.2-10c-6.5-6.6-9.7-16.9-9.7-30.8V12.9h2.9v64.7c0,12.4,2.8,21.9,8.5,28.3
			c5.7,6.5,14.5,9.7,26.4,9.7c11.9,0,20.8-3.2,26.4-9.7c5.7-6.5,8.5-15.9,8.5-28.3V12.9H353.5z"/>
		<path fill="#2F8BC1" stroke="#F2F2F2" stroke-miterlimit="10" d="M262.7,112.7c-0.3-1.7-0.5-3.8-0.7-5.9c-0.2-2.1-0.3-4.3-0.4-6.5
			c-0.1-2.2-0.1-4-0.1-5.4c0-4.1-0.2-7.9-0.7-11.1c-0.5-3.3-1.4-6.1-2.9-8.5c-1.4-2.4-3.8-4.4-6.5-5.9c-2.7-1.5-6.8-2.5-10.8-3.1V66
			c7-1.6,13-4.7,16.9-9.3c3.9-4.6,5.8-10.3,5.6-17.3c-0.2-9.1-2.7-15.4-7.7-19.7c-5-4.3-12.8-6.1-23.6-6.1h-43.2v103h3V81.4V67.7
			v-2.9V53.1V16.5h40.9c9.8,0,16.9,1.7,21.2,5.8c4.3,4.1,6.6,9.6,6.6,17c0,4.5-0.8,8.3-2.5,11.5c-1.6,3.2-3.8,5.9-6.5,8
			c-2.7,2.1-5.8,4-9.3,5c-3.5,1-7.2,1.8-11.1,1.8h-11.4v3h11.7c6,0,10.7,0.2,14.3,1.4c3.6,1.2,6.3,2.7,8.2,5c1.9,2.3,3.2,5,3.8,8.3
			c0.6,3.3,0.9,7.1,0.9,11.3c0,1.6,0,3.5,0.1,5.5c0,2.1,0.1,4.1,0.3,6.1c0.1,2,0.4,4.1,0.6,5.9c0.3,1.8,0.7,3.5,1.2,4.5h3.2
			C263.4,115.5,263,114.4,262.7,112.7z"/>
	</g>
</g>
</svg>
