<?xml version="1.0" encoding="utf-8"?>
<!-- Generator: Adobe Illustrator 18.1.1, SVG Export Plug-In . SVG Version: 6.00 Build 0)  -->
<svg version="1.1" id="Layer_1" xmlns="http://www.w3.org/2000/svg" xmlns:xlink="http://www.w3.org/1999/xlink" x="0px" y="0px"
	 viewBox="0 308.6 2000 361.5" enable-background="new 0 308.6 2000 361.5" xml:space="preserve">
<rect x="28.1" y="394.7" display="none" fill="#904083" stroke="#F2F2F2" stroke-width="0.5" stroke-miterlimit="10" width="694.5" height="215.5"/>
<g>
	<polygon fill="#2F8BC1" stroke="#F2F2F2" stroke-width="0.5" stroke-miterlimit="10" points="1304.5,394.9 1307.7,610.8 
		1262.7,610.8 1259.7,394.9 	"/>
	<path fill="#2F8BC1" stroke="#F2F2F2" stroke-width="0.5" stroke-miterlimit="10" d="M1435.4,389.6c10.5,0,20.7,1.6,30.6,5
		c9.8,3.2,18.9,8.2,26.7,14.7c8,6.4,14.7,14.5,19.9,23.9s8.6,20.3,9.8,32.6h-42.8c-2.8-12.1-8-21.1-15.9-27.1c-7.6-6-17.1-9-27.9-9
		c-10.1,0-18.7,2-25.7,6.2s-12.7,9.6-16.9,16.7c-4.2,7-7.4,14.9-9.2,23.7c-1.8,8.8-2.8,18.1-2.6,27.5c0.2,9,1.2,17.9,3.4,26.5
		c2.2,8.6,5.4,16.3,9.8,23.1s10.3,12.3,17.5,16.5c7,4.2,15.7,6.2,25.9,6.2c14.9,0,26.3-4,34.4-11.9c8-8,12.5-19.5,13.7-34.6h-45.2
		l-0.4-35.8h85.8l1.6,116.6h-28.5l-5-24.5c-7.8,10.9-16.7,18.5-26.3,22.9s-19.5,6.4-29.3,6.4c-15.7,0-29.7-2.8-42.4-8.6
		c-12.7-5.8-23.3-13.7-32-23.7c-8.6-10.1-15.5-21.9-20.3-35.6c-4.8-13.7-7.2-28.3-7.4-44c-0.2-16.1,1.8-31.2,6.2-44.8
		c4.4-13.9,10.9-25.9,19.3-36.2c8.4-10.3,18.9-18.3,31.2-24.1C1405.8,392.7,1419.9,389.6,1435.4,389.6z"/>
	<polygon fill="#2F8BC1" stroke="#F2F2F2" stroke-width="0.5" stroke-miterlimit="10" points="1733.5,394.9 1736.7,610.8 
		1691.9,610.8 1604.8,466.2 1606.2,610.8 1564.2,610.8 1561,394.9 1605.6,394.9 1693.1,539.6 1691.5,394.9 	"/>
	<path fill="#2F8BC1" stroke="#F2F2F2" stroke-width="0.5" stroke-miterlimit="10" d="M1843.4,389.6c10.7,0,20.9,1.2,30.8,3.8
		c9.8,2.6,18.7,6.6,26.3,12.3s13.9,12.9,18.5,21.7c4.6,8.8,7,19.3,7.2,32h-43.4c-0.4-6.4-1.8-11.9-4-16.1c-2.2-4.2-5.2-7.6-8.8-10.1
		c-3.6-2.4-7.8-4.2-12.5-5.2c-4.6-1-9.8-1.6-15.3-1.6c-3.6,0-7.2,0.4-10.9,1.2c-3.6,0.8-6.8,2.2-9.8,4.2c-3,2-5.4,4.6-7.2,7.6
		c-1.8,3-2.8,6.8-2.6,11.5c0,4.2,0.8,7.6,2.4,10.3s4.6,5,9,7.2c4.4,2.2,10.7,4.4,18.7,6.6s18.3,5,31.2,8.4c3.8,0.8,9,2.2,15.9,4.4
		c6.8,2,13.5,5.4,20.3,10.1c6.8,4.6,12.7,10.9,17.5,18.7c5,7.8,7.6,17.7,7.6,29.7c0.2,9.8-1.6,19.1-5,27.5s-8.8,15.7-15.9,21.9
		s-15.9,10.9-26.3,14.3c-10.5,3.4-22.7,5.2-36.6,5.2c-11.3,0-22.1-1.4-32.8-4.4c-10.7-3-20.1-7.4-28.3-13.7s-14.7-14.3-19.7-23.9
		c-4.8-9.6-7.4-21.1-7.4-34.4h43.4c0.2,7.2,1.4,13.5,4,18.5c2.6,5,5.8,9,10.1,12.3s9,5.4,14.5,7c5.6,1.4,11.3,2.2,17.3,2.2
		c4,0,8.2-0.4,12.9-1c4.6-0.8,8.8-2,12.9-4c4-2,7.2-4.8,9.8-8.2c2.6-3.6,3.8-8,3.8-13.5c0-5.8-2-10.7-5.4-14.3
		c-3.6-3.6-8.2-6.6-14.1-9s-12.3-4.6-19.5-6.4c-7.2-1.8-14.7-3.8-22.1-6c-7.6-2-15.1-4.4-22.5-7.4c-7.2-3-13.9-6.6-19.7-11.3
		c-5.8-4.6-10.5-10.5-14.1-17.3c-3.6-7-5.4-15.3-5.6-25.3c-0.2-11.1,2-20.7,6.2-28.9c4.4-8.2,10.1-14.9,17.3-20.3
		c7.2-5.4,15.3-9.4,24.5-12.1C1825.1,391.1,1834.2,389.6,1843.4,389.6z"/>
	<path fill="#2F8BC1" stroke="#F2F2F2" stroke-width="0.5" stroke-miterlimit="10" d="M1144.3,394.7c10.7,0,20.9,1.2,30.8,3.6
		c9.8,2.4,18.7,6.4,26.3,12.1c7.6,5.4,13.9,12.7,18.5,21.1c4.6,8.6,7,18.9,7.2,31.2h-43.4c-0.4-6.2-1.8-11.5-4-15.7
		c-2.2-4.2-5.2-7.4-8.8-9.8c-3.6-2.4-7.8-4-12.5-5s-9.8-1.4-15.3-1.4c-3.6,0-7.2,0.4-10.9,1.2s-6.8,2.2-9.8,4.2
		c-3,2-5.4,4.4-7.2,7.4c-1.8,3-2.8,6.6-2.6,11.3c0,4.2,0.8,7.4,2.4,10.1c1.6,2.6,4.6,5,9,7c4.4,2.2,10.7,4.4,18.7,6.4
		c8,2.2,18.3,5,31.2,8.2c3.8,0.8,9,2.2,15.9,4.2c6.8,2,13.7,5.4,20.3,9.8c6.8,4.6,12.7,10.7,17.5,18.1c5,7.6,7.6,17.3,7.6,29.1
		c0.2,9.6-1.6,18.7-5,26.9s-8.8,15.5-15.9,21.5s-15.9,10.7-26.3,14.1c-10.5,3.4-22.7,5-36.6,5c-11.3,0-22.1-1.4-32.8-4.2
		c-10.7-2.8-20.1-7.4-28.1-13.5c-8.2-6-14.7-13.9-19.7-23.3c-4.8-9.4-7.4-20.7-7.4-33.8h43.4c0.2,7,1.4,13.1,4,18.1
		s5.8,8.8,10.1,12.1c4.2,3,9,5.2,14.5,6.8c5.6,1.4,11.3,2.2,17.3,2.2c4,0,8.2-0.4,12.9-1c4.6-0.6,8.8-2,12.9-4c4-2,7.2-4.6,9.8-8
		c2.6-3.4,3.8-7.8,3.8-13.1c0-5.6-2-10.3-5.4-13.9c-3.6-3.6-8.2-6.4-14.1-8.8c-5.8-2.4-12.3-4.4-19.5-6.2s-14.7-3.8-22.1-5.8
		c-7.6-2-15.1-4.4-22.3-7.2c-7.2-2.8-13.9-6.6-19.7-11.1c-5.8-4.6-10.5-10.3-14.1-17.1s-5.4-15.1-5.6-24.7
		c-0.2-10.9,2-20.3,6.2-28.1c4.4-8,10.1-14.7,17.3-19.9c7.2-5.2,15.3-9.2,24.5-11.9C1126,395.9,1135.3,394.7,1144.3,394.7z"/>
	<polygon fill="#2F8BC1" stroke="#F2F2F2" stroke-width="0.5" stroke-miterlimit="10" points="1034.8,484.7 1035.4,522.5 
		936.3,522.5 937.1,574.8 1046,574.8 1046.6,614.6 892.1,614.6 890.3,484.7 934.9,484.7 960,484.7 	"/>
	<path fill="#2F8BC1" stroke="#F2F2F2" stroke-width="0.5" stroke-miterlimit="10" d="M764.8,396.9c13.1,0,25.3,1.2,36.8,5.6
		c11.5,4.4,21.3,10.1,29.7,18.9c8.4,8.8,15.1,19.9,19.9,33.2c4.8,13.3,7.4,28.9,7.6,46.8c0.2,15.7-1.4,30.2-5,43.6
		c-3.6,13.3-9.2,24.7-16.9,34.4c-7.6,9.6-17.3,17.3-28.7,22.9c-11.5,5.6-25.3,8.2-40.8,8.2l-41.6-0.4l-0.6-39.8h39
		c6.4,0,12.7-1,18.9-3.2c6-2.2,11.5-5.8,16.1-10.9c4.6-5,8.4-11.9,11.1-20.1c2.8-8.2,4-18.3,3.8-30.2c-0.2-10.9-1.2-20.5-3.4-29.3
		s-5.4-16.1-10.3-22.3c-4.6-6.2-10.9-10.5-18.3-13.9c-7.6-3.2-16.9-4-27.9-4h-31l-0.6-39.8L764.8,396.9z"/>
	<polygon fill="#2F8BC1" points="1041.4,394.9 1042,434.7 959.4,434.7 889.4,434.7 889,394.9 	"/>
</g>
<g>
	<path fill="#2F8BC1" d="M28.1,399.5h153.8v6l-74.6-0.4l-0.4,205.4h-5.4V405.1l-73.4-0.2V399.5z"/>
	<path fill="#2F8BC1" d="M198.4,610.6H193l-0.4-210.9h5.8v104.5h145.3V399.7h5.8v207.4h-5.8v-97.3H198.4V610.6z"/>
	<path fill="#2F8BC1" d="M710.6,399.3v130.1c0,27.9-6.4,48.4-19.5,61.9c-13.1,13.3-31.8,20.1-56.7,20.1c-24.7,0-43.6-6.6-56.7-20.1
		c-13.1-13.3-19.5-34-19.5-61.9V399.3h5.8v130.1c0,24.9,5.6,44,17.1,56.9c11.5,13.1,29.1,19.5,53.1,19.5c23.9,0,41.8-6.4,53.1-19.5
		c11.5-13.1,17.1-32,17.1-56.9V399.3H710.6z"/>
	<path fill="#2F8BC1" d="M528,599.9c-0.6-3.4-1-7.6-1.4-11.9c-0.4-4.2-0.6-8.6-0.8-13.1c-0.2-4.4-0.2-8-0.2-10.9
		c0-8.2-0.4-15.9-1.4-22.3c-1-6.6-2.8-12.3-5.8-17.1c-2.8-4.8-7.6-8.8-13.1-11.9s-13.7-5-21.7-6.2V506c14.1-3.2,26.1-9.4,34-18.7
		c7.8-9.2,11.7-20.7,11.3-34.8c-0.4-18.3-5.4-31-15.5-39.6c-10.1-8.6-25.7-12.3-47.4-12.3h-86.8v207h6V537v-27.5v-5.8v-23.5v-73.6
		h82.2c19.7,0,34,3.4,42.6,11.7c8.6,8.2,13.3,19.3,13.3,34.2c0,9-1.6,16.7-5,23.1c-3.2,6.4-7.6,11.9-13.1,16.1
		c-5.4,4.2-11.7,8-18.7,10.1c-7,2-14.5,3.6-22.3,3.6h-22.9v6h23.5c12.1,0,21.5,0.4,28.7,2.8c7.2,2.4,12.7,5.4,16.5,10.1
		c3.8,4.6,6.4,10.1,7.6,16.7c1.2,6.6,1.8,14.3,1.8,22.7c0,3.2,0,7,0.2,11.1c0,4.2,0.2,8.2,0.6,12.3c0.2,4,0.8,8.2,1.2,11.9
		c0.6,3.6,1.4,7,2.4,9h6.4C529.4,605.5,528.6,603.3,528,599.9z"/>
</g>
</svg>
