<?xml version="1.0" encoding="utf-8"?>
<!-- Generator: Adobe Illustrator 18.1.1, SVG Export Plug-In . SVG Version: 6.00 Build 0)  -->
<svg version="1.1" id="Layer_1" xmlns="http://www.w3.org/2000/svg" xmlns:xlink="http://www.w3.org/1999/xlink" x="0px" y="0px"
	 viewBox="560 20 874 952" enable-background="new 560 20 874 952" xml:space="preserve">
<g>
	<path fill="#2FB56B" d="M948.1,932.6L645,755.1c-29.8-17.3-47.9-49.8-47.9-84.4l2.9-351c0.5-34.6,19.2-66.2,48.9-83.4L955.8,62.6
		c29.8-17.3,66.6-16.8,96.4,0.5l303,177.4c29.8,17.3,47.9,49.8,47.9,84.4l-2.9,351c-0.5,34.6-19.2,66.2-48.9,83.4L1045,933.5
		C1014.2,949.8,977.8,949.8,948.1,932.6z"/>
</g>
<g>
	<g>
		<path fill="none" stroke="#F7F9FA" stroke-width="18" stroke-miterlimit="10" d="M1100.6,816.5H900.5c-27.1-14.2,5.9-39,13-82.6
			h172.4C1091.1,776.4,1126.6,800,1100.6,816.5z"/>
		<path fill="none" stroke="#F7F9FA" stroke-width="18" stroke-miterlimit="10" d="M1276.5,732.2H721.6c-24.8,0-44.9-20.1-44.9-44.9
			V303c0-24.8,20.1-44.9,44.9-44.9H1277c24.8,0,44.9,20.1,44.9,44.9v384.3C1321.4,712.1,1301.3,732.2,1276.5,732.2z M717.4,307.7
			l0.6,333.5c0,4.7,3.5,8.2,8.2,8.2l545.4,0.6c4.7,0,8.2-3.5,8.2-8.2V307.7c0-4.7-3.5-8.2-8.2-8.2h-546
			C721,299.4,717.4,303,717.4,307.7z"/>
	</g>
	<g>
		<path fill="none" stroke="#F7F9FA" stroke-width="18" stroke-miterlimit="10" d="M1129.3,592.8c-0.5-9.2-7.7-33.7-16.8-35.2
			c-27-4.1-85.7-15.8-85.7-34.2c0-23,42.9-32.6,42.9-79c0-37.8-16.3-75.5-70.4-75.5c-54.1,0-69.9,37.2-69.9,75.5
			c0,47,42.9,56.1,42.9,79c0,18.4-58.6,30.1-85.7,34.2c-9.2,1.5-16.3,25.5-16.8,35.2v0.5c-0.5,11.8,8.6,21.4,19.9,21.4H1109
			c11.8,0,20.9-9.7,19.9-21.4C1129.3,592.8,1129.3,592.8,1129.3,592.8z"/>
		<path fill="none" stroke="#F7F9FA" stroke-width="18" stroke-miterlimit="10" d="M966.2,533.3c11.7-9.9,1.5-21.4-7-22.9
			c-25.1-3.8-79.6-14.7-79.6-31.8c0-21.3,39.8-30.3,39.8-73.4c0-35-15.1-70.1-65.4-70.1c-50.2,0-64.9,34.6-64.9,70.1
			c0,43.6,39.8,52.1,39.8,73.4c0,17-54.5,27.9-79.6,31.8c-8.6,1.4-15.1,23.7-15.6,32.7v0.5c-0.5,10.9,8.1,19.9,18.5,19.9h127
			c43.1-14,57.8-16.9,57.8-16.9C961.8,538.2,966.2,533.3,966.2,533.3z"/>
		<path fill="none" stroke="#F7F9FA" stroke-width="18" stroke-miterlimit="10" d="M1264.9,541.4c-0.5-8.6-7.1-31.3-15.6-32.7
			c-25.1-3.8-79.6-14.7-79.6-31.8c0-21.3,39.8-30.3,39.8-73.4c0-35-15.1-70.1-65.4-70.1s-64.9,34.6-64.9,70.1
			c0,43.6,39.8,52.1,39.8,73.4c0,17-54.5,27.9-79.6,31.8c-8.6,1.4-12.2,5.6-12.6,14.6c0,0,0,17.5,31.1,21.9l54.6,12.2l12.7,4.2
			h120.8c10.9,0,19.4-9,18.5-19.9C1264.9,541.4,1264.9,541.4,1264.9,541.4z"/>
	</g>
</g>
</svg>
