<?xml version="1.0" encoding="utf-8"?>
<!-- Generator: Adobe Illustrator 18.1.1, SVG Export Plug-In . SVG Version: 6.00 Build 0)  -->
<svg version="1.1" id="Layer_1" xmlns="http://www.w3.org/2000/svg" xmlns:xlink="http://www.w3.org/1999/xlink" x="0px" y="0px"
	 viewBox="369 98 543 598" enable-background="new 369 98 543 598" xml:space="preserve">
<path fill="#42A1DA" d="M607,678.1L413.1,564.5c-19-11.1-30.7-31.9-30.7-54l2.2-224.4c0.3-22.1,12.3-42.3,31.3-53.4l196.1-111.1
	c19.4-10.8,42.6-10.8,61.7,0.3l193.9,113.6c19,11.1,30.7,31.9,30.7,54l-1.8,224.7c-0.3,22.1-12.3,42.3-31.3,53.4L669,679
	C649.4,689.4,626.1,689.4,607,678.1z"/>
<g display="none">
	<defs>
		<path id="SVGID_1_" d="M607,678.1L413.1,564.5c-19-11.1-30.7-31.9-30.7-54l2.2-224.4c0.3-22.1,12.3-42.3,31.3-53.4l196.1-111.1
			c19.4-10.8,42.6-10.8,61.7,0.3l193.9,113.6c19,11.1,30.7,31.9,30.7,54l-1.8,224.7c-0.3,22.1-12.3,42.3-31.3,53.4L669,679
			C649.4,689.4,626.1,689.4,607,678.1z"/>
	</defs>
	<clipPath id="SVGID_2_" display="inline">
		<use xlink:href="#SVGID_1_"  overflow="visible"/>
	</clipPath>
	<g display="inline" clip-path="url(#SVGID_2_)">
		<polygon fill="#0E5E8D" points="330.7,692.2 331.1,528 98.4,550.7 255.9,691.9 		"/>
		<polygon fill="#68B4E1" points="587.7,237.9 637.7,111.4 911.4,136.3 		"/>
		<polygon fill="#42A1DA" points="911.1,246.4 726.4,189.6 911.4,136.3 		"/>
		<polygon fill="#C2E1F3" points="740.3,373.4 910.4,317.3 911.1,246.4 726.4,189.6 		"/>
		<polygon fill="#42A1DA" points="637.7,368.3 726.4,189.6 740.3,373.4 		"/>
		<polygon fill="#C2E1F3" points="381.7,361.5 637.7,368.3 395.5,304.8 		"/>
		<polygon fill="#C2E1F3" points="637.7,368.3 726.4,189.6 474.4,325.5 		"/>
		<polygon fill="#8EC7E9" points="474.4,325.5 726.4,189.6 395.5,304.8 		"/>
		<polygon fill="#42A1DA" points="395.5,304.8 587.7,237.9 637.7,111.4 		"/>
		<polygon fill="#68B4E1" points="298.6,384.4 381.7,361.5 395.5,300.2 		"/>
		<polygon fill="#42A1DA" points="364.6,427.6 381.7,361.5 298.6,384.4 		"/>
		<polygon fill="#0E5E8D" points="240.7,445.3 364.6,427.6 298.6,384.4 		"/>
		<polygon fill="#C2E1F3" points="330.4,528 240.7,445.3 98,550.7 		"/>
		<polygon fill="#68B4E1" points="471.3,465.2 381.7,361.5 364.6,427.6 		"/>
		<polygon fill="#8EC7E9" points="637.7,368.3 471.3,465.2 381.7,361.5 		"/>
		<polygon fill="#8EC7E9" points="637.7,111.4 505.7,214.3 437.2,189.6 		"/>
		<polygon fill="#C2E1F3" points="617.6,474.7 637.7,368.3 471.3,465.2 		"/>
		<polygon fill="#68B4E1" points="740.3,373.4 637.7,368.3 617.6,474.7 		"/>
		<polygon fill="#8EC7E9" points="844.9,414.3 910.7,369.1 910.9,316.7 740.3,373.4 		"/>
		<polygon fill="#68B4E1" points="818.1,439.2 844.9,414.3 740.3,373.4 		"/>
		<polygon fill="#C2E1F3" points="617.6,474.7 818.1,439.2 740.3,373.4 		"/>
		<polygon fill="#C2E1F3" points="298.6,384.4 505.7,214.3 437.2,189.6 		"/>
		<polygon fill="#42A1DA" points="617.5,537.8 817,439.2 617.6,474.7 		"/>
		<polygon fill="#68B4E1" points="910,482.1 817.3,439.2 617.7,537.8 764.8,693.4 		"/>
		<polygon fill="#42A1DA" points="909.8,693.8 910.4,482.7 764.8,693.4 		"/>
		<polygon fill="#C2E1F3" points="617.7,537.8 764.8,693.4 591,692.9 		"/>
		<polygon fill="#8EC7E9" points="416.4,692.4 591.9,692.9 617.7,537.8 		"/>
		<polygon fill="#42A1DA" points="331.1,528 618.1,537.8 416.4,692.4 330.7,692.2 		"/>
		<polygon fill="#68B4E1" points="471.3,465.2 617.7,537.8 330.4,528 		"/>
		<polygon fill="#42A1DA" points="364.6,427.6 471.3,465.2 330.4,528 240.7,445.3 		"/>
		<polygon fill="#8EC7E9" points="617.6,474.7 617.5,537.8 471,465.2 		"/>
		<polygon fill="#42A1DA" points="817.3,439.2 844.9,414.3 910,456.3 910.4,482.7 		"/>
		<polygon fill="#42A1DA" points="910.7,369.1 910,456.3 844.9,414.3 		"/>
	</g>
</g>
<g>
	<path fill="none" stroke="#FFFFFF" stroke-width="9" stroke-miterlimit="10" d="M705.1,601.6H577c-17.4-9.1,3.8-24.9,8.3-52.9
		h110.3C699.1,575.9,721.7,591.1,705.1,601.6z"/>
	<path fill="none" stroke="#FFFFFF" stroke-width="9" stroke-miterlimit="10" d="M817.7,549.5H462.6c-15.9,0-28.7-12.9-28.7-28.7
		V274.9c0-15.9,12.9-28.7,28.7-28.7h355.5c15.9,0,28.7,12.9,28.7,28.7v246C846.4,536.7,833.5,549.5,817.7,549.5z M459.9,277.9
		l0.4,213.5c0,3,2.3,5.3,5.3,5.3l349.1,0.4c3,0,5.3-2.3,5.3-5.3V277.9c0-3-2.3-5.3-5.3-5.3H465.2
		C462.2,272.6,459.9,274.9,459.9,277.9z"/>
</g>
<path fill="none" stroke="#FFFFFF" stroke-width="9" stroke-miterlimit="10" d="M747.4,400.3L692.6,455c-1.1,1.1-2.3,1.1-3.8,1.1
	c0,0-1.1,0-2.3-1.1l-6-6c0-1.1-1.1-1.1-1.1-2.3s1.1-2.3,1.1-2.3l46.1-47.6l-46.1-46.5c0,0-1.1-1.1-1.1-2.3c0-1.1,1.1-2.3,1.1-2.3
	l6-6c1.1-1.1,2.3-1.1,2.3-1.1c1.1,0,2.3,0,3.8,1.1l54.8,54.8c1.1,1.1,1.1,2.3,1.1,2.3C748.5,398,748.5,399.1,747.4,400.3
	 M669.6,322.4l-29.1,153.4c0,1.1-1.1,1.1-2.3,2.3c0,0-1.1,0-2.3,0l-7.2-2.3c-1.1,0-2.3,0-2.3-1.1s0-2.3,0-2.3l29.1-153.4
	c0-1.1,1.1-1.1,2.3-2.3c0,0,1.1,0,2.3,0l7.2,2.3c1.1,0,1.1,0,2.3,1.1C669.6,321.3,669.6,322.4,669.6,322.4z M600.1,449l-6,6
	c-1.1,1.1-2.3,1.1-2.3,1.1c-1.1,0-2.3,0-3.8-1.1l-54.8-54.8c-1.1-1.1-1.1-2.3-1.1-3.8c0,0,0-1.1,1.1-2.3l54.8-54.8
	c1.1-1.1,2.3-1.1,3.8-1.1c0,0,1.1,0,2.3,1.1l6,6c0,0,1.1,1.1,1.1,2.3c0,1.1-1.1,2.3-1.1,2.3l-47.2,46.8l47.6,47.6
	c0,0,1.1,1.1,1.1,2.3C601.2,447.9,600.1,447.9,600.1,449z"/>
</svg>
