<?xml version="1.0" encoding="utf-8"?>
<!-- Generator: Adobe Illustrator 18.1.1, SVG Export Plug-In . SVG Version: 6.00 Build 0)  -->
<svg version="1.1" id="Layer_1" xmlns="http://www.w3.org/2000/svg" xmlns:xlink="http://www.w3.org/1999/xlink" x="0px" y="0px"
	 viewBox="551.8 0 894.1 1000" enable-background="new 551.8 0 894.1 1000" xml:space="preserve">
<g display="none">
	<g display="inline">
		<defs>
			<path id="SVGID_1_" d="M1313.1,1067.1L989.2,877.5c-31.7-18.5-51.3-53.3-51.3-90.2l3.7-374.6c0.5-36.9,20.5-70.6,52.3-89.1
				l327.4-185.5c32.4-18,71.1-18,103,0.5L1748,328.2c31.7,18.5,51.3,53.3,51.3,90.2l-3,375.1c-0.5,36.9-20.5,70.6-52.3,89.1
				l-327.4,186C1383.7,1086,1344.8,1086,1313.1,1067.1z"/>
		</defs>
		<clipPath id="SVGID_2_">
			<use xlink:href="#SVGID_1_"  overflow="visible"/>
		</clipPath>
		<g clip-path="url(#SVGID_2_)">
			<polygon fill="#3E6896" points="1087.9,454.4 1368.3,93.2 1373,534.4 			"/>
			<polygon fill="#8BA4C0" points="1368.3,93.2 1520.1,137.4 1373,534.4 			"/>
			<polygon fill="#3E6896" points="1552.1,543.4 1849,445.6 1520.1,137.4 1527.8,222.5 			"/>
			<polygon fill="#2F4E71" points="1373,534.4 1520.1,137.4 1552.1,543.4 			"/>
			<polygon fill="#B2C3D5" points="881.2,688.2 1087.9,454.4 978.7,366.4 			"/>
			<polygon fill="#6586AB" points="881.2,688.2 1373,534.4 1087.9,454.4 			"/>
			<polygon fill="#6586AB" points="902.1,619 978.7,366.4 905.7,305 			"/>
			<polygon fill="#6586AB" points="905.7,305.7 1089,460.6 1204.2,305.7 			"/>
			<polygon fill="#6586AB" points="905.7,305.7 1204.2,305.7 1368.3,93.8 			"/>
			<polygon fill="#6586AB" points="1874.5,221.2 1520.1,137.4 1647.6,261.3 			"/>
			<polygon fill="#8BA4C0" points="1874.5,221.2 1647.6,261.3 1849,445.6 			"/>
			<polygon fill="#3E6896" points="1373,534.4 1082.5,703.7 881.2,688.2 			"/>
			<polygon fill="#B2C3D5" points="1337.8,720.2 1373,534.4 1082.5,703.7 			"/>
			<polygon fill="#6586AB" points="1552.1,543.4 1373,534.4 1337.8,720.2 			"/>
			<polygon fill="#8BA4C0" points="1734.6,614.9 1849.6,535.9 1849.8,444.6 1552.1,543.4 			"/>
			<polygon fill="#6586AB" points="1687.9,658.3 1734.6,614.9 1552.1,543.4 			"/>
			<polygon fill="#3E6896" points="1337.8,720.2 1687.9,658.3 1552.1,543.4 			"/>
			<polygon fill="#2F4E71" points="1337.6,830.4 1685.9,658.3 1338,720.2 			"/>
			<polygon fill="#6586AB" points="1848.1,733.2 1686.4,658.3 1338.1,830.4 1594.9,1102 			"/>
			<polygon fill="#3E6896" points="1848,1102.8 1849,734.2 1594.9,1102 			"/>
			<polygon fill="#3E6896" points="1338.1,830.4 1594.9,1102 1291.5,1101.2 			"/>
			<polygon fill="#8BA4C0" points="986.5,1100.3 1292.9,1101.2 1338.1,830.4 			"/>
			<polygon fill="#2F4E71" points="837.8,813.2 1338.8,830.4 986.5,1100.3 837,1099.8 			"/>
			<polygon fill="#6586AB" points="1082.5,703.7 1338.1,830.4 836.5,813.2 			"/>
			<polygon fill="#2F4E71" points="881.2,688.2 1082.5,703.7 836.5,813.2 863.8,744.4 			"/>
			<polygon fill="#8BA4C0" points="1338,720.2 1337.6,830.4 1082,703.7 			"/>
			<polygon fill="#3E6896" points="1686.4,658.3 1734.6,614.9 1848.3,688.2 1849,734.2 			"/>
			<polygon fill="#2F4E71" points="1849.6,535.9 1848.3,688.2 1734.6,614.9 			"/>
		</g>
	</g>
</g>
<path fill="#2F4E71" d="M944.5,964.1L620.6,774.4c-31.7-18.5-51.3-53.3-51.3-90.2l3.7-374.6c0.5-36.9,20.5-70.6,52.3-89.1L952.7,35
	c32.4-18,71.1-18,103,0.5l323.7,189.6c31.7,18.5,51.3,53.3,51.3,90.2l-3,375.1c-0.5,36.9-20.5,70.6-52.3,89.1l-327.4,186
	C1015.1,982.9,976.2,982.9,944.5,964.1z"/>
<g>
	<path fill="none" stroke="#FFFFFF" stroke-width="10" stroke-miterlimit="10" d="M1108.3,838.4H894.4c-29-15.2,6.3-41.6,13.9-88.3
		h184.1C1098.1,795.5,1136,820.7,1108.3,838.4z"/>
	<path fill="none" stroke="#FFFFFF" stroke-width="10" stroke-miterlimit="10" d="M1296.1,747.4H703.3c-26.5,0-47.9-21.5-47.9-47.9
		V289c0-26.5,21.5-47.9,47.9-47.9h593.5c26.5,0,47.9,21.5,47.9,47.9v410.7C1344,726,1322.6,747.4,1296.1,747.4z M698.9,294
		l0.7,356.4c0,5,3.8,8.8,8.8,8.8l582.8,0.7c5,0,8.8-3.8,8.8-8.8V294c0-5-3.8-8.8-8.8-8.8H707.8C702.6,285.1,698.9,289,698.9,294z"/>
</g>
<g>
	<rect x="737" y="440.4" fill="none" stroke="#FFFFFF" stroke-width="10" stroke-miterlimit="10" width="135.6" height="184.3"/>
	<rect x="953.5" y="442.4" fill="none" stroke="#FFFFFF" stroke-width="10" stroke-miterlimit="10" width="309.5" height="181.3"/>
	<rect x="737" y="323.2" fill="none" stroke="#FFFFFF" stroke-width="10" stroke-miterlimit="10" width="526" height="73"/>
</g>
</svg>
