<?xml version="1.0" encoding="utf-8"?>
<!-- Generator: Adobe Illustrator 18.1.1, SVG Export Plug-In . SVG Version: 6.00 Build 0)  -->
<svg version="1.1" id="Layer_1" xmlns="http://www.w3.org/2000/svg" xmlns:xlink="http://www.w3.org/1999/xlink" x="0px" y="0px"
	 viewBox="360.2 94 559.8 606" enable-background="new 360.2 94 559.8 606" xml:space="preserve">
<g display="none" opacity="0.73" enable-background="new    ">
	<g display="inline">
		<defs>
			<path id="SVGID_1_" d="M608.4,677.4L414.7,564c-19-11.1-30.7-31.8-30.7-53.9l2.1-224.1c0.3-22.1,12.3-42.3,31.2-53.4l195.8-110.9
				c19.3-10.8,42.6-10.8,61.6,0.3l193.7,113.4c19,11.1,30.7,31.8,30.7,53.9l-1.7,224.4c-0.3,22.1-12.3,42.3-31.2,53.4L670.4,678.2
				C650.8,688.6,627.4,688.6,608.4,677.4z"/>
		</defs>
		<clipPath id="SVGID_2_">
			<use xlink:href="#SVGID_1_"  overflow="visible"/>
		</clipPath>
		<g clip-path="url(#SVGID_2_)">
			<polygon fill="#B0276F" points="218.6,177.5 418.7,268.7 439.6,110.7 218.9,110 			"/>
			<polygon fill="#841D53" points="218.2,246.6 418.9,268.7 218.3,177.5 			"/>
			<polygon fill="#DFA9C5" points="439.6,110.7 631,166.2 418.7,268.7 			"/>
			<polygon fill="#C0528C" points="439.6,110.7 670.1,111.3 631,166.2 			"/>
			<polygon fill="#B0276F" points="670.1,111.3 707.9,111.4 734.8,321.7 631,166.2 			"/>
			<polygon fill="#B0276F" points="218.4,246.6 218,320.3 418.7,268.7 			"/>
			<polygon fill="#C0528C" points="217.6,422.2 308.1,465.5 418.7,268.7 217.9,320.3 			"/>
			<polygon fill="#841D53" points="391.5,475.9 418.7,268.7 308.1,465.5 			"/>
			<polygon fill="#DFA9C5" points="431,690.2 308.1,465.5 279.1,689.7 			"/>
			<polygon fill="#841D53" points="690.7,690.9 691.1,536.2 533.7,557.9 640.1,690.7 			"/>
			<polygon fill="#C0528C" points="424.2,677.7 533.6,557.9 639.7,690.7 431,690.2 			"/>
			<polygon fill="#C0528C" points="391.5,475.9 424.2,677.7 308.1,465.5 			"/>
			<polygon fill="#B0276F" points="533.6,557.9 391.5,475.9 424.2,677.7 			"/>
			<polygon fill="#D07DA9" points="630.1,458.5 391.5,475.9 533.6,557.9 			"/>
			<polygon fill="#B0276F" points="418.7,268.7 391.5,475.9 630.1,458.5 			"/>
			<polygon fill="#B0276F" points="669.3,401.1 631,166.2 418.7,268.7 			"/>
			<polygon fill="#D07DA9" points="630.1,458.5 669.3,401.1 418.7,268.7 			"/>
			<polygon fill="#841D53" points="631,166.2 734.8,321.7 669.3,401.1 			"/>
			<polygon fill="#D07DA9" points="958.8,217.3 734.8,321.7 707.9,111.4 778,111.7 			"/>
			<polygon fill="#C0528C" points="952.2,112.1 958.8,217.2 778,111.7 			"/>
			<polygon fill="#B0276F" points="898.7,385.7 958.8,217.3 968,390.4 			"/>
			<polygon fill="#C0528C" points="734.8,321.7 958.8,217.3 898.7,385.7 			"/>
			<polygon fill="#DFA9C5" points="725.6,379.5 898.7,385.7 734.8,321.7 			"/>
			<polygon fill="#C0528C" points="669.3,401.1 725.6,379.5 734.8,321.7 			"/>
			<polygon fill="#B0276F" points="714,441.7 725.6,379.5 669.3,401.1 			"/>
			<polygon fill="#841D53" points="630.1,458.5 714,441.7 669.3,401.1 			"/>
			<polygon fill="#C0528C" points="690.7,536.2 630.1,458.5 533.6,557.9 			"/>
			<polygon fill="#C0528C" points="786.1,477.1 725.6,379.5 714,441.7 			"/>
			<polygon fill="#D07DA9" points="898.7,385.7 786.1,477.1 725.6,379.5 			"/>
			<polygon fill="#DFA9C5" points="885,485.8 898.7,385.7 786.1,477.1 			"/>
			<polygon fill="#C0528C" points="968,390.4 898.7,385.7 885,485.8 			"/>
			<polygon fill="#DFA9C5" points="885,485.8 1020.6,452.2 968,390.4 			"/>
			<polygon fill="#B0276F" points="884.8,545.3 1019.9,452.2 885,485.8 			"/>
			<polygon fill="#C0528C" points="1082.7,492.7 1020,452.2 885,545.3 984.4,691.7 			"/>
			<polygon fill="#DFA9C5" points="885,545.3 984.4,691.7 866.8,691.4 			"/>
			<polygon fill="#D07DA9" points="748.7,691.1 867.5,691.4 885,545.3 			"/>
			<polygon fill="#B0276F" points="691.1,536.2 885.3,545.3 748.7,691.1 690.7,690.9 			"/>
			<polygon fill="#C0528C" points="786.1,477.1 885,545.3 690.7,536.2 			"/>
			<polygon fill="#B0276F" points="714,441.7 786.1,477.1 690.7,536.2 630.1,458.5 			"/>
			<polygon fill="#D07DA9" points="885,485.8 884.8,545.3 785.8,477.1 			"/>
		</g>
	</g>
</g>
<g>
	<path fill="#B0276F" d="M607.6,678.1L413.7,564.5c-19-11.1-30.7-31.9-30.7-54l2.2-224.4c0.3-22.1,12.3-42.3,31.3-53.4l196.1-111.1
		c19.4-10.8,42.6-10.8,61.7,0.3l193.9,113.6c19,11.1,30.7,31.9,30.7,54L897,514.2c-0.3,22.1-12.3,42.3-31.3,53.4L669.6,679
		C650,689.4,626.7,689.4,607.6,678.1z"/>
</g>
<g>
	<path fill="none" stroke="#FCFCFC" stroke-width="9" stroke-miterlimit="10" d="M705.3,601.6H577.3c-17.4-9.1,3.8-24.9,8.3-52.9
		h110.3C699.3,575.9,722,591.1,705.3,601.6z"/>
	<path fill="none" stroke="#FCFCFC" stroke-width="9" stroke-miterlimit="10" d="M818.3,549.5H463.2c-15.9,0-28.7-12.9-28.7-28.7
		V274.9c0-15.9,12.9-28.7,28.7-28.7h355.5c15.9,0,28.7,12.9,28.7,28.7v246C847.1,536.7,834.2,549.5,818.3,549.5z M460.5,277.9
		l0.4,213.5c0,3,2.3,5.3,5.3,5.3l349.1,0.4c3,0,5.3-2.3,5.3-5.3V277.9c0-3-2.3-5.3-5.3-5.3H465.9
		C462.8,272.6,460.5,274.9,460.5,277.9z"/>
</g>
<g>
	<path fill="none" stroke="#FCFCFC" stroke-width="9" stroke-miterlimit="10" d="M731.9,462.9c0,4.7-1.3,8-4.7,10.1
		c-2.1,2.1-5.5,4.7-10.1,4.7c-3.4,0-6.8-2.1-8.9-4.7l-38-37.2c-12.2,8.9-27,13.5-43.9,13.5c-10.1,0-20.3-2.1-29.2-6.8
		c-10.1-3.4-17.8-8.9-24.5-15.6c-6.8-6.8-12.2-15.6-16.9-24.5c-3.4-9.3-5.5-19.5-5.5-30.9c0-10.1,2.1-20.3,5.5-29.2
		c4.7-10.1,10.1-17.8,16.9-24.5c6.8-6.8,14.8-12.2,24.5-16.9c8.9-3.4,19-5.5,29.2-5.5c11.4,0,21.6,2.1,30.4,5.5
		c8.9,4.7,17.8,10.1,24.5,16.9c6.8,6.8,12.2,14.8,15.6,24.5c4.7,8.9,6.8,19,6.8,29.2c0,16.9-4.7,31.3-13.5,43.9l37.2,38
		C730.6,456.1,731.9,459.5,731.9,462.9"/>
	<circle fill="none" stroke="#FCFCFC" stroke-width="9" stroke-miterlimit="10" cx="626.6" cy="372.8" r="51.6"/>
</g>
</svg>
