<?xml version="1.0" encoding="utf-8"?>
<!-- Generator: Adobe Illustrator 18.1.1, SVG Export Plug-In . SVG Version: 6.00 Build 0)  -->
<svg version="1.1" id="Layer_1" xmlns="http://www.w3.org/2000/svg" xmlns:xlink="http://www.w3.org/1999/xlink" x="0px" y="0px"
	 viewBox="0 0 2000 1000" enable-background="new 0 0 2000 1000" xml:space="preserve">
<g>
	<path fill="#FFFFFF" stroke="#3E6896" stroke-width="46" stroke-miterlimit="10" stroke-opacity="0.8" d="M935.8,930.6l-303-177.4
		c-29.8-17.3-47.9-49.8-47.9-84.4l3.4-350.6c0.5-34.6,19.2-66.2,48.9-83.4L943.4,61.2c30.2-16.8,66.6-16.8,96.4,0.5l303,177.4
		c29.8,17.3,47.9,49.8,47.9,84.4l-2.9,351c-0.5,34.6-19.2,66.2-48.9,83.4L1032.6,932C1001.9,948.3,965.4,948.3,935.8,930.6z"/>
	<g display="none">
		<g display="inline" opacity="0.29" enable-background="new    ">
			<g>
				<defs>
					<path id="SVGID_1_" d="M933.5,929.6L630.4,752.2c-29.7-17.3-47.9-49.8-47.9-84.4l3.3-350.5c0.5-34.5,19.2-66.2,48.9-83.4
						L941.1,60.2c30.2-16.8,66.7-16.8,96.4,0.5l303.1,177.5c29.7,17.3,47.9,49.8,47.9,84.4l-2.8,351c-0.5,34.5-19.2,66.2-48.9,83.4
						l-306.4,174.1C999.8,947.4,963.3,947.4,933.5,929.6z"/>
				</defs>
				<clipPath id="SVGID_2_">
					<use xlink:href="#SVGID_1_"  overflow="visible"/>
				</clipPath>
				<g clip-path="url(#SVGID_2_)">
					<g opacity="0.21">
						<polygon fill="#3E6896" stroke="#3E6896" stroke-miterlimit="10" points="1221.6,250.7 1455.7,-132.6 1480,187.4 						"/>
						<polygon fill="#2F4E71" stroke="#3E6896" stroke-miterlimit="10" points="1752,-197.2 1455.7,-132.6 1663.3,-351.9 						"/>
					</g>
					<g opacity="0.65">
						<polygon fill="#0E5E8D" stroke="#3E6896" stroke-miterlimit="10" points="1167.5,974.8 1034.1,744.9 1368.1,595 1268.8,916 
													"/>
						<polygon fill="#68B4E1" stroke="#3E6896" stroke-miterlimit="10" points="1690.1,646.7 1368.5,594.6 1269.5,915.6 
							1687.1,673.2 						"/>
						<polygon fill="#42A1DA" stroke="#3E6896" stroke-miterlimit="10" points="20.4,803.3 224.6,579.2 -69.1,649 						"/>
						<polygon fill="#C2E1F3" stroke="#3E6896" stroke-miterlimit="10" points="354.5,847.9 78.6,902.3 20.4,803.3 224.6,579.2 
													"/>
						<polygon fill="#42A1DA" stroke="#3E6896" stroke-miterlimit="10" points="489.4,760.5 224.6,579.2 354.5,847.9 						"/>
						<polygon fill="#C2E1F3" stroke="#3E6896" stroke-miterlimit="10" points="830.9,551 489.4,760.5 762.8,475.7 						"/>
						<polygon fill="#68B4E1" stroke="#3E6896" stroke-miterlimit="10" points="962.2,518.1 830.9,551 762.8,475.7 						"/>
						<polygon fill="#42A1DA" stroke="#3E6896" stroke-miterlimit="10" points="907.7,630.3 830.9,551 962.2,518.1 						"/>
						<polygon fill="#0E5E8D" stroke="#3E6896" stroke-miterlimit="10" points="1089.8,558.3 907.7,630.3 960.8,458.4 						"/>
						<polygon fill="#C2E1F3" stroke="#3E6896" stroke-miterlimit="10" points="1035.2,744.3 1089.8,558.3 1368.5,594.6 						"/>
						<polygon fill="#68B4E1" stroke="#3E6896" stroke-miterlimit="10" points="793.4,766.5 830.9,551 907.7,630.3 						"/>
						<polygon fill="#8EC7E9" stroke="#3E6896" stroke-miterlimit="10" points="489.4,760.5 793.4,766.5 830.9,551 						"/>
						<polygon fill="#C2E1F3" stroke="#3E6896" stroke-miterlimit="10" points="602.8,894 489.4,760.5 793.4,766.5 						"/>
						<polygon fill="#68B4E1" stroke="#3E6896" stroke-miterlimit="10" points="354.5,847.9 489.4,760.5 602.8,894 						"/>
						<polygon fill="#8EC7E9" stroke="#3E6896" stroke-miterlimit="10" points="245.9,987.1 120,975 77.5,901.8 354.5,847.9 						
							"/>
						<polygon fill="#68B4E1" stroke="#3E6896" stroke-miterlimit="10" points="302.3,1000.9 245.9,987.1 354.5,847.9 						"/>
						<polygon fill="#C2E1F3" stroke="#3E6896" stroke-miterlimit="10" points="602.8,894 302.3,1000.9 354.5,847.9 						"/>
						<polygon fill="#42A1DA" stroke="#3E6896" stroke-miterlimit="10" points="654,982.6 303.8,1000.1 602.7,894.1 						"/>
						<polygon fill="#68B4E1" stroke="#3E6896" stroke-miterlimit="10" points="212.6,1133 303.4,1000.3 653.7,982.8 580.2,1315.9 
													"/>
						<polygon fill="#0E5E8D" stroke="#3E6896" stroke-miterlimit="10" points="384,1429.8 212.5,1134.2 580.2,1315.9 						"/>
						<polygon fill="#C2E1F3" stroke="#3E6896" stroke-miterlimit="10" points="653.7,982.8 580.2,1315.9 815.3,1179.4 						"/>
						<polygon fill="#8EC7E9" stroke="#3E6896" stroke-miterlimit="10" points="1051.6,1042.2 814.1,1180.1 653.7,982.8 						"/>
						<polygon fill="#42A1DA" stroke="#3E6896" stroke-miterlimit="10" points="1034.1,744.9 653.2,983.1 1051.6,1042.2 
							1167.5,974.8 						"/>
						<polygon fill="#68B4E1" stroke="#3E6896" stroke-miterlimit="10" points="793.4,766.5 653.7,982.8 1035.2,744.3 						"/>
						<polygon fill="#42A1DA" stroke="#3E6896" stroke-miterlimit="10" points="907.7,630.3 793.4,766.5 1035.2,744.3 1089.8,558.3 
													"/>
						<polygon fill="#8EC7E9" stroke="#3E6896" stroke-miterlimit="10" points="602.7,894.1 654,982.6 793.9,766.2 						"/>
						<polygon fill="#0E5E8D" stroke="#3E6896" stroke-miterlimit="10" points="303.4,1000.3 245.9,987.1 191.5,1096.8 
							212.5,1134.2 						"/>
						<polygon fill="#42A1DA" stroke="#3E6896" stroke-miterlimit="10" points="120,975 191.5,1096.8 245.9,987.1 						"/>
					</g>
					<g opacity="0.65">
						<polygon fill="#3E6896" stroke="#3E6896" stroke-miterlimit="10" points="955.8,881.7 823.7,651.1 526.6,864.9 854.2,939.9 
													"/>
						<polygon fill="#B2C3D5" stroke="#3E6896" stroke-miterlimit="10" points="396.2,1200.5 526.2,865.2 853.5,940.3 434.6,1180.3 
													"/>
						<polygon fill="#B2C3D5" stroke="#3E6896" stroke-miterlimit="10" points="1253.2,114.4 1438.4,-97.1 1382,-197.2 
							1085.7,-132.6 						"/>
						<polygon fill="#2F4E71" stroke="#3E6896" stroke-miterlimit="10" points="1110,187.4 1085.7,-132.6 1253.2,114.4 						"/>
						<polygon fill="#B2C3D5" stroke="#3E6896" stroke-miterlimit="10" points="799.4,531 851.6,250.7 725.9,229 						"/>
						<polygon fill="#6586AB" stroke="#3E6896" stroke-miterlimit="10" points="799.4,531 1110,187.4 851.6,250.7 						"/>
						<polygon fill="#6586AB" stroke="#3E6896" stroke-miterlimit="10" points="663.5,475.1 799.4,531 725.9,229 						"/>
						<polygon fill="#3E6896" stroke="#3E6896" stroke-miterlimit="10" points="634.3,605.7 799.4,531 663.5,475.1 						"/>
						<polygon fill="#6586AB" stroke="#3E6896" stroke-miterlimit="10" points="822.6,651.7 634.3,605.7 526.2,865.2 						"/>
						<polygon fill="#8BA4C0" stroke="#3E6896" stroke-miterlimit="10" points="1110,187.4 962.9,453.6 799.4,531 						"/>
						<polygon fill="#B2C3D5" stroke="#3E6896" stroke-miterlimit="10" points="1168.9,352.4 1110,187.4 962.9,453.6 						"/>
						<polygon fill="#6586AB" stroke="#3E6896" stroke-miterlimit="10" points="1253.2,114.4 1110,187.4 1168.9,352.4 						"/>
						<polygon fill="#8BA4C0" stroke="#3E6896" stroke-miterlimit="10" points="1428,90 1480.7,-24.9 1438.6,-98.3 1253.2,114.4 
													"/>
						<polygon fill="#6586AB" stroke="#3E6896" stroke-miterlimit="10" points="1411.8,145.9 1428,90 1253.2,114.4 						"/>
						<polygon fill="#B2C3D5" stroke="#3E6896" stroke-miterlimit="10" points="1168.9,352.4 1411.8,145.9 1253.2,114.4 						"/>
						<polygon fill="#2F4E71" stroke="#3E6896" stroke-miterlimit="10" points="1219.7,441 1410.3,146.7 1168.9,352.4 						"/>
						<polygon fill="#6586AB" stroke="#3E6896" stroke-miterlimit="10" points="1571.1,134.4 1410.7,146.5 1220.1,440.8 
							1545.3,544.2 						"/>
						<polygon fill="#3E6896" stroke="#3E6896" stroke-miterlimit="10" points="1742.1,431.4 1572.2,134.9 1545.3,544.2 						"/>
						<polygon fill="#B2C3D5" stroke="#3E6896" stroke-miterlimit="10" points="1220.1,440.8 1545.3,544.2 1309.3,679.3 						"/>
						<polygon fill="#8BA4C0" stroke="#3E6896" stroke-miterlimit="10" points="1072.2,815.1 1310.5,678.6 1220.1,440.8 						"/>
						<polygon fill="#2F4E71" stroke="#3E6896" stroke-miterlimit="10" points="823.7,651.1 1220.5,440.5 1072.2,815.1 955.8,881.7 
													"/>
						<polygon fill="#6586AB" stroke="#3E6896" stroke-miterlimit="10" points="962.9,453.6 1220.1,440.8 822.6,651.7 						"/>
						<polygon fill="#2F4E71" stroke="#3E6896" stroke-miterlimit="10" points="799.4,531 962.9,453.6 822.6,651.7 634.3,605.7 
													"/>
						<polygon fill="#8BA4C0" stroke="#3E6896" stroke-miterlimit="10" points="1168.9,352.4 1219.7,441 962.5,453.7 						"/>
						<polygon fill="#3E6896" stroke="#3E6896" stroke-miterlimit="10" points="1410.7,146.5 1428,90 1550.3,98 1572.2,134.9 						
							"/>
						<polygon fill="#2F4E71" stroke="#3E6896" stroke-miterlimit="10" points="1480.7,-24.9 1550.3,98 1428,90 						"/>
					</g>
					<g display="none" opacity="0.65">
						<polygon display="inline" fill="#841D53" stroke="#3E6896" stroke-miterlimit="10" points="667.4,113.7 799.5,344.6 
							1096.5,130.6 769,55.7 						"/>
						<polygon display="inline" fill="#C0528C" stroke="#3E6896" stroke-miterlimit="10" points="1213.1,-174 1097.1,130.3 
							769.7,55.3 1188.7,-184.7 						"/>
						<polygon display="inline" fill="#B0276F" stroke="#3E6896" stroke-miterlimit="10" points="241.3,1192.7 537.5,1128.2 
							329.9,1347.3 						"/>
						<polygon display="inline" fill="#DFA9C5" stroke="#3E6896" stroke-miterlimit="10" points="370.1,881.2 184.8,1092.7 
							241.3,1192.7 537.5,1128.2 						"/>
						<polygon display="inline" fill="#B0276F" stroke="#3E6896" stroke-miterlimit="10" points="513.2,808.2 537.5,1128.2 
							370.1,881.2 						"/>
						<polygon display="inline" fill="#DFA9C5" stroke="#3E6896" stroke-miterlimit="10" points="865.6,617.6 513.2,808.2 
							896.6,714.2 						"/>
						<polygon display="inline" fill="#C0528C" stroke="#3E6896" stroke-miterlimit="10" points="959.8,520.4 865.6,617.6 
							896.6,714.2 						"/>
						<polygon display="inline" fill="#B0276F" stroke="#3E6896" stroke-miterlimit="10" points="835.4,511.4 865.6,617.6 
							959.8,520.4 						"/>
						<polygon display="inline" fill="#841D53" stroke="#3E6896" stroke-miterlimit="10" points="989,389.8 835.4,511.4 
							1051.4,518.8 						"/>
						<polygon display="inline" fill="#C0528C" stroke="#3E6896" stroke-miterlimit="10" points="800.6,343.9 989,389.8 
							1097.1,130.3 						"/>
						<polygon display="inline" fill="#C0528C" stroke="#3E6896" stroke-miterlimit="10" points="660.3,542.1 865.6,617.6 
							835.4,511.4 						"/>
						<polygon display="inline" fill="#D07DA9" stroke="#3E6896" stroke-miterlimit="10" points="513.2,808.2 660.3,542.1 
							865.6,617.6 						"/>
						<polygon display="inline" fill="#DFA9C5" stroke="#3E6896" stroke-miterlimit="10" points="454.4,643.2 513.2,808.2 
							660.3,542.1 						"/>
						<polygon display="inline" fill="#C0528C" stroke="#3E6896" stroke-miterlimit="10" points="370.1,881.2 513.2,808.2 
							454.4,643.2 						"/>
						<polygon display="inline" fill="#D07DA9" stroke="#3E6896" stroke-miterlimit="10" points="195.2,905.5 142.5,1020.4 
							184.7,1093.9 370.1,881.2 						"/>
						<polygon display="inline" fill="#C0528C" stroke="#3E6896" stroke-miterlimit="10" points="211.3,849.7 195.2,905.5 
							370.1,881.2 						"/>
						<polygon display="inline" fill="#DFA9C5" stroke="#3E6896" stroke-miterlimit="10" points="454.4,643.2 211.3,849.7 
							370.1,881.2 						"/>
						<polygon display="inline" fill="#B0276F" stroke="#3E6896" stroke-miterlimit="10" points="403.4,554.5 212.9,848.7 
							454.3,643.2 						"/>
						<polygon display="inline" fill="#C0528C" stroke="#3E6896" stroke-miterlimit="10" points="52.1,861.2 212.5,849 403.1,554.7 
							78,451.4 						"/>
						<polygon display="inline" fill="#841D53" stroke="#3E6896" stroke-miterlimit="10" points="-119,564.1 51.1,860.7 78,451.4 
													"/>
						<polygon display="inline" fill="#DFA9C5" stroke="#3E6896" stroke-miterlimit="10" points="403.1,554.7 78,451.4 313.9,316.3 
													"/>
						<polygon display="inline" fill="#D07DA9" stroke="#3E6896" stroke-miterlimit="10" points="551,180.5 312.7,316.9 
							403.1,554.7 						"/>
						<polygon display="inline" fill="#B0276F" stroke="#3E6896" stroke-miterlimit="10" points="799.5,344.6 402.6,555 551,180.5 
							667.4,113.7 						"/>
						<polygon display="inline" fill="#C0528C" stroke="#3E6896" stroke-miterlimit="10" points="660.3,542.1 403.1,554.7 
							800.6,343.9 						"/>
						<polygon display="inline" fill="#B0276F" stroke="#3E6896" stroke-miterlimit="10" points="835.4,511.4 660.3,542.1 
							800.6,343.9 989,389.8 						"/>
						<polygon display="inline" fill="#D07DA9" stroke="#3E6896" stroke-miterlimit="10" points="454.3,643.2 403.4,554.5 
							660.8,541.8 						"/>
						<polygon display="inline" fill="#841D53" stroke="#3E6896" stroke-miterlimit="10" points="212.5,849 195.2,905.5 72.9,897.6 
							51.1,860.7 						"/>
						<polygon display="inline" fill="#B0276F" stroke="#3E6896" stroke-miterlimit="10" points="142.5,1020.4 72.9,897.6 
							195.2,905.5 						"/>
					</g>
					<g opacity="0.79">
						<polygon fill="#90A4B0" stroke="#3E6896" stroke-miterlimit="10" points="743.2,148.2 876.7,378.2 542.9,528.1 642.2,207.1 
													"/>
						<polygon fill="#BDCCD4" stroke="#3E6896" stroke-miterlimit="10" points="220.7,476.4 542.3,528.4 641.4,207.5 223.8,449.9 
													"/>
						<polygon fill="#BDCCD4" stroke="#3E6896" stroke-miterlimit="10" points="1890.5,319.8 1686.3,543.9 1980,474 						"/>
						<polygon fill="#D7E0E5" stroke="#3E6896" stroke-miterlimit="10" points="1556.4,275.2 1832.3,220.8 1890.5,319.8 
							1686.3,543.9 						"/>
						<polygon fill="#BDCCD4" stroke="#3E6896" stroke-miterlimit="10" points="1421.5,362.5 1686.3,543.9 1556.4,275.2 						"/>
						<polygon fill="#D7E0E5" stroke="#3E6896" stroke-miterlimit="10" points="1080,572.1 1421.5,362.5 1148.2,647.4 						"/>
						<polygon fill="#EAEFF1" stroke="#3E6896" stroke-miterlimit="10" points="948.7,605 1080,572.1 1148.2,647.4 						"/>
						<polygon fill="#BDCCD4" stroke="#3E6896" stroke-miterlimit="10" points="1003.2,492.8 1080,572.1 948.7,605 						"/>
						<polygon fill="#90A4B0" stroke="#3E6896" stroke-miterlimit="10" points="821.1,564.8 1003.2,492.8 948.7,605 						"/>
						<polygon fill="#D7E0E5" stroke="#3E6896" stroke-miterlimit="10" points="875.8,378.8 821.1,564.8 542.3,528.4 						"/>
						<polygon fill="#EAEFF1" stroke="#3E6896" stroke-miterlimit="10" points="1117.5,356.6 1080,572.1 1003.2,492.8 						"/>
						<polygon fill="#D7E0E5" stroke="#3E6896" stroke-miterlimit="10" points="1421.5,362.5 1117.5,356.6 1080,572.1 						"/>
						<polygon fill="#D7E0E5" stroke="#3E6896" stroke-miterlimit="10" points="1308.1,229 1421.5,362.5 1117.5,356.6 						"/>
						<polygon fill="#EAEFF1" stroke="#3E6896" stroke-miterlimit="10" points="1556.4,275.2 1421.5,362.5 1308.1,229 						"/>
						<polygon fill="#D7E0E5" stroke="#3E6896" stroke-miterlimit="10" points="1665,136 1790.8,148 1833.3,221.4 1556.4,275.2 
													"/>
						<polygon fill="#BDCCD4" stroke="#3E6896" stroke-miterlimit="10" points="1608.6,122 1665,136 1556.4,275.2 						"/>
						<polygon fill="#D7E0E5" stroke="#3E6896" stroke-miterlimit="10" points="1308.1,229 1608.6,122 1556.4,275.2 						"/>
						<polygon fill="#BDCCD4" stroke="#3E6896" stroke-miterlimit="10" points="1256.8,140.6 1607,123 1308.2,229 						"/>
						<polygon fill="#EAEFF1" stroke="#3E6896" stroke-miterlimit="10" points="1698.4,-10 1607.4,122.7 1257.2,140.3 
							1330.7,-192.9 						"/>
						<polygon fill="#90A4B0" stroke="#3E6896" stroke-miterlimit="10" points="1526.8,-306.8 1698.4,-11.1 1330.7,-192.9 						"/>
						<polygon fill="#D7E0E5" stroke="#3E6896" stroke-miterlimit="10" points="1257.2,140.3 1330.7,-192.9 1095.6,-56.3 						"/>
						<polygon fill="#D7E0E5" stroke="#3E6896" stroke-miterlimit="10" points="859.2,80.9 1096.6,-57 1257.2,140.3 						"/>
						<polygon fill="#BDCCD4" stroke="#3E6896" stroke-miterlimit="10" points="876.7,378.2 1257.8,140 859.2,80.9 743.2,148.2 
													"/>
						<polygon fill="#EAEFF1" stroke="#3E6896" stroke-miterlimit="10" points="1117.5,356.6 1257.2,140.3 875.8,378.8 						"/>
						<polygon fill="#BDCCD4" stroke="#3E6896" stroke-miterlimit="10" points="1003.2,492.8 1117.5,356.6 875.8,378.8 821.1,564.8 
													"/>
						<polygon fill="#D7E0E5" stroke="#3E6896" stroke-miterlimit="10" points="1308.2,229 1256.8,140.6 1117.1,356.9 						"/>
						<polygon fill="#90A4B0" stroke="#3E6896" stroke-miterlimit="10" points="1607.4,122.7 1665,136 1719.4,26.3 1698.4,-11.1 
													"/>
						<polygon fill="#BDCCD4" stroke="#3E6896" stroke-miterlimit="10" points="1790.8,148 1719.4,26.3 1665,136 						"/>
					</g>
				</g>
				<use xlink:href="#SVGID_1_"  overflow="visible" fill="none" stroke="#3E6896" stroke-miterlimit="10"/>
			</g>
		</g>
	</g>
</g>
<path fill="#FFFFFF" d="M1261.8,347.4c0,0,13.9,13,17.6,23.4c3.8,10.6-5.4,18-14.5,28.2L970.6,693.5c-7.1,7.1-14.2,10.6-24.8,10.6
	c-7.1,0-14.2-3.5-21.3-10.6L750.7,523.3c-9.9-11.5-10.4-12.6-10.4-23.3c0-7.1,2.6-12.2,10.4-22.8l49.7-46.1
	c8.3-7.5,14.2-10.6,21.3-10.6c10.6,0,17.8,3.5,24.8,10.6l99.3,99.3l218.6-218.6c9.7-10.1,14.9-18.7,25-18.7
	c12.8,0,19.8,6.7,24.6,10.2C1223,309.9,1261.8,347.4,1261.8,347.4"/>
<path fill="#2F4E71" d="M1261.8,347.4c0,0,13.9,13,17.6,23.4c3.8,10.6-5.4,18-14.5,28.2L970.6,693.5c-7.1,7.1-14.2,10.6-24.8,10.6
	c-7.1,0-14.2-3.5-21.3-10.6L750.7,523.3c-9.9-11.5-10.4-12.6-10.4-23.3c0-7.1,2.6-12.2,10.4-22.8l49.7-46.1
	c8.3-7.5,14.2-10.6,21.3-10.6c10.6,0,17.8,3.5,24.8,10.6l99.3,99.3l218.6-218.6c9.7-10.1,14.9-18.7,25-18.7
	c12.8,0,19.8,6.7,24.6,10.2C1223,309.9,1261.8,347.4,1261.8,347.4"/>
</svg>
