<?xml version="1.0" encoding="utf-8"?>
<!-- Generator: Adobe Illustrator 18.1.1, SVG Export Plug-In . SVG Version: 6.00 Build 0)  -->
<svg version="1.1" id="Layer_1" xmlns="http://www.w3.org/2000/svg" xmlns:xlink="http://www.w3.org/1999/xlink" x="0px" y="0px"
	 viewBox="0 0 2000 1000" enable-background="new 0 0 2000 1000" xml:space="preserve">
<g>
	<path fill="#FFFFFF" stroke="#3E6896" stroke-width="46" stroke-miterlimit="10" stroke-opacity="0.8" d="M936.8,931.6l-303-177.4
		c-29.8-17.3-47.9-49.8-47.9-84.4l3.4-350.6c0.5-34.6,19.2-66.2,48.9-83.4L944.4,62.2c30.2-16.8,66.6-16.8,96.4,0.5l303,177.4
		c29.8,17.3,47.9,49.8,47.9,84.4l-2.9,351c-0.5,34.6-19.2,66.2-48.9,83.4L1033.6,933C1002.9,949.3,966.4,949.3,936.8,931.6z"/>
	<g display="none">
		<g display="inline" opacity="0.29" enable-background="new    ">
			<g>
				<defs>
					<path id="SVGID_1_" d="M934.5,930.6L631.4,753.2c-29.7-17.3-47.9-49.8-47.9-84.4l3.3-350.5c0.5-34.5,19.2-66.2,48.9-83.4
						L942.1,61.2c30.2-16.8,66.7-16.8,96.4,0.5l303.1,177.5c29.7,17.3,47.9,49.8,47.9,84.4l-2.8,351c-0.5,34.5-19.2,66.2-48.9,83.4
						l-306.4,174.1C1000.8,948.4,964.3,948.4,934.5,930.6z"/>
				</defs>
				<clipPath id="SVGID_2_">
					<use xlink:href="#SVGID_1_"  overflow="visible"/>
				</clipPath>
				<g clip-path="url(#SVGID_2_)">
					<g opacity="0.21">
						<polygon fill="#3E6896" stroke="#3E6896" stroke-miterlimit="10" points="731.3,248.5 376.9,-27.4 697.6,-15.4 						"/>
						<polygon fill="#2F4E71" stroke="#3E6896" stroke-miterlimit="10" points="346.2,-329.1 376.9,-27.4 182.4,-258.5 						"/>
					</g>
					<g opacity="0.65">
						<polygon fill="#0E5E8D" stroke="#3E6896" stroke-miterlimit="10" points="1334.6,154 1091.1,260.6 979.9,-88.1 1287.7,46.8 
													"/>
						<polygon fill="#68B4E1" stroke="#3E6896" stroke-miterlimit="10" points="1067.7,-402.3 979.6,-88.6 1287.3,46 1093.7,-396.3 
													"/>
						<polygon fill="#42A1DA" stroke="#3E6896" stroke-miterlimit="10" points="1034.5,1274.4 835,1046.2 871.2,1346 						"/>
						<polygon fill="#C2E1F3" stroke="#3E6896" stroke-miterlimit="10" points="1116.6,947.5 1139.5,1227.8 1034.5,1274.4 
							835,1046.2 						"/>
						<polygon fill="#42A1DA" stroke="#3E6896" stroke-miterlimit="10" points="1045.1,803.6 835,1046.2 1116.6,947.5 						"/>
						<polygon fill="#C2E1F3" stroke="#3E6896" stroke-miterlimit="10" points="875.4,440.6 1045.1,803.6 793,499.8 						"/>
						<polygon fill="#68B4E1" stroke="#3E6896" stroke-miterlimit="10" points="857.6,306.5 875.4,440.6 793,499.8 						"/>
						<polygon fill="#42A1DA" stroke="#3E6896" stroke-miterlimit="10" points="963,373.3 875.4,440.6 857.6,306.5 						"/>
						<polygon fill="#0E5E8D" stroke="#3E6896" stroke-miterlimit="10" points="912,184.2 963,373.3 798.2,301.1 						"/>
						<polygon fill="#C2E1F3" stroke="#3E6896" stroke-miterlimit="10" points="1090.6,259.5 912,184.2 979.6,-88.6 						"/>
						<polygon fill="#68B4E1" stroke="#3E6896" stroke-miterlimit="10" points="1085.3,502.2 875.4,440.6 963,373.3 						"/>
						<polygon fill="#8EC7E9" stroke="#3E6896" stroke-miterlimit="10" points="1045.1,803.6 1085.3,502.2 875.4,440.6 						"/>
						<polygon fill="#C2E1F3" stroke="#3E6896" stroke-miterlimit="10" points="1190.6,706 1045.1,803.6 1085.3,502.2 						"/>
						<polygon fill="#68B4E1" stroke="#3E6896" stroke-miterlimit="10" points="1116.6,947.5 1045.1,803.6 1190.6,706 						"/>
						<polygon fill="#8EC7E9" stroke="#3E6896" stroke-miterlimit="10" points="1242.6,1071.2 1216.4,1194.9 1138.9,1228.8 
							1116.6,947.5 						"/>
						<polygon fill="#68B4E1" stroke="#3E6896" stroke-miterlimit="10" points="1262.8,1016.7 1242.6,1071.2 1116.6,947.5 						"/>
						<polygon fill="#C2E1F3" stroke="#3E6896" stroke-miterlimit="10" points="1190.6,706 1262.8,1016.7 1116.6,947.5 						"/>
						<polygon fill="#42A1DA" stroke="#3E6896" stroke-miterlimit="10" points="1284.3,665.1 1262.1,1015.1 1190.6,706.1 						"/>
						<polygon fill="#68B4E1" stroke="#3E6896" stroke-miterlimit="10" points="1383.9,1120.8 1262.3,1015.5 1284.5,665.5 
							1607.2,776.1 						"/>
						<polygon fill="#0E5E8D" stroke="#3E6896" stroke-miterlimit="10" points="1698.2,984 1385.1,1120.9 1607.2,776.1 						"/>
						<polygon fill="#C2E1F3" stroke="#3E6896" stroke-miterlimit="10" points="1284.5,665.5 1607.2,776.1 1498.1,527.1 						"/>
						<polygon fill="#8EC7E9" stroke="#3E6896" stroke-miterlimit="10" points="1388.5,276.8 1498.6,528.4 1284.5,665.5 						"/>
						<polygon fill="#42A1DA" stroke="#3E6896" stroke-miterlimit="10" points="1091.1,260.6 1284.7,666 1388.5,276.8 1334.6,154 
													"/>
						<polygon fill="#68B4E1" stroke="#3E6896" stroke-miterlimit="10" points="1085.3,502.2 1284.5,665.5 1090.6,259.5 						"/>
						<polygon fill="#42A1DA" stroke="#3E6896" stroke-miterlimit="10" points="963,373.3 1085.3,502.2 1090.6,259.5 912,184.2 
													"/>
						<polygon fill="#8EC7E9" stroke="#3E6896" stroke-miterlimit="10" points="1190.6,706.1 1284.3,665.1 1085.2,501.7 						"/>
						<polygon fill="#0E5E8D" stroke="#3E6896" stroke-miterlimit="10" points="1262.3,1015.5 1242.6,1071.2 1345.5,1137.6 
							1385.1,1120.9 						"/>
						<polygon fill="#42A1DA" stroke="#3E6896" stroke-miterlimit="10" points="1216.4,1194.9 1345.5,1137.6 1242.6,1071.2 						
							"/>
					</g>
					<g opacity="0.65">
						<polygon fill="#3E6896" stroke="#3E6896" stroke-miterlimit="10" points="1370,216.2 1125.9,321.5 1304.8,640.8 1416.3,323.8 
													"/>
						<polygon fill="#B2C3D5" stroke="#3E6896" stroke-miterlimit="10" points="1623.5,808.3 1305,641.3 1416.7,324.6 1607.8,767.9 
													"/>
						<polygon fill="#B2C3D5" stroke="#3E6896" stroke-miterlimit="10" points="641.2,-166 452,-373.9 346.2,-329.1 376.9,-27.4 
													"/>
						<polygon fill="#2F4E71" stroke="#3E6896" stroke-miterlimit="10" points="697.6,-15.4 376.9,-27.4 641.2,-166 						"/>
						<polygon fill="#B2C3D5" stroke="#3E6896" stroke-miterlimit="10" points="1003.9,332 731.3,248.5 695.5,370.9 						"/>
						<polygon fill="#6586AB" stroke="#3E6896" stroke-miterlimit="10" points="1003.9,332 697.6,-15.4 731.3,248.5 						"/>
						<polygon fill="#6586AB" stroke="#3E6896" stroke-miterlimit="10" points="933,460.8 1003.9,332 695.5,370.9 						"/>
						<polygon fill="#3E6896" stroke="#3E6896" stroke-miterlimit="10" points="1059.5,504.5 1003.9,332 933,460.8 						"/>
						<polygon fill="#6586AB" stroke="#3E6896" stroke-miterlimit="10" points="1126.4,322.6 1059.5,504.5 1305,641.3 						"/>
						<polygon fill="#8BA4C0" stroke="#3E6896" stroke-miterlimit="10" points="697.6,-15.4 945.4,160.9 1003.9,332 						"/>
						<polygon fill="#B2C3D5" stroke="#3E6896" stroke-miterlimit="10" points="868.2,-55.2 697.6,-15.4 945.4,160.9 						"/>
						<polygon fill="#6586AB" stroke="#3E6896" stroke-miterlimit="10" points="641.2,-166 697.6,-15.4 868.2,-55.2 						"/>
						<polygon fill="#8BA4C0" stroke="#3E6896" stroke-miterlimit="10" points="636.7,-342.4 528.5,-407.7 450.8,-374.2 641.2,-166 
													"/>
						<polygon fill="#6586AB" stroke="#3E6896" stroke-miterlimit="10" points="690.4,-320 636.7,-342.4 641.2,-166 						"/>
						<polygon fill="#B2C3D5" stroke="#3E6896" stroke-miterlimit="10" points="868.2,-55.2 690.4,-320 641.2,-166 						"/>
						<polygon fill="#2F4E71" stroke="#3E6896" stroke-miterlimit="10" points="962,-95.7 691.1,-318.4 868.2,-55.2 						"/>
						<polygon fill="#6586AB" stroke="#3E6896" stroke-miterlimit="10" points="697,-479.5 690.9,-318.9 961.8,-96.2 1101.2,-407.6 
													"/>
						<polygon fill="#3E6896" stroke="#3E6896" stroke-miterlimit="10" points="1011.5,-615.9 697.6,-480.6 1101.2,-407.6 						"/>
						<polygon fill="#B2C3D5" stroke="#3E6896" stroke-miterlimit="10" points="961.8,-96.2 1101.2,-407.6 1208.8,-157.8 						"/>
						<polygon fill="#8BA4C0" stroke="#3E6896" stroke-miterlimit="10" points="1317,93.1 1208.3,-159.1 961.8,-96.2 						"/>
						<polygon fill="#2F4E71" stroke="#3E6896" stroke-miterlimit="10" points="1125.9,321.5 961.6,-96.6 1317,93.1 1370,216.2 
													"/>
						<polygon fill="#6586AB" stroke="#3E6896" stroke-miterlimit="10" points="945.4,160.9 961.8,-96.2 1126.4,322.6 						"/>
						<polygon fill="#2F4E71" stroke="#3E6896" stroke-miterlimit="10" points="1003.9,332 945.4,160.9 1126.4,322.6 1059.5,504.5 
													"/>
						<polygon fill="#8BA4C0" stroke="#3E6896" stroke-miterlimit="10" points="868.2,-55.2 962,-95.7 945.5,161.2 						"/>
						<polygon fill="#3E6896" stroke="#3E6896" stroke-miterlimit="10" points="690.9,-318.9 636.7,-342.4 658.5,-462.9 
							697.6,-480.6 						"/>
						<polygon fill="#2F4E71" stroke="#3E6896" stroke-miterlimit="10" points="528.5,-407.7 658.5,-462.9 636.7,-342.4 						"/>
					</g>
					<g display="none" opacity="0.65">
						<polygon display="inline" fill="#841D53" stroke="#3E6896" stroke-miterlimit="10" points="532.6,783.6 776.8,678.5 
							597.8,359.2 486.4,676.2 						"/>
						<polygon display="inline" fill="#C0528C" stroke="#3E6896" stroke-miterlimit="10" points="308.3,209 597.6,358.6 
							486.1,675.4 294.9,232 						"/>
						<polygon display="inline" fill="#B0276F" stroke="#3E6896" stroke-miterlimit="10" points="1556.5,1329 1525.8,1027.3 
							1720.1,1258.4 						"/>
						<polygon display="inline" fill="#DFA9C5" stroke="#3E6896" stroke-miterlimit="10" points="1261.5,1165.8 1450.7,1373.8 
							1556.5,1329 1525.8,1027.3 						"/>
						<polygon display="inline" fill="#B0276F" stroke="#3E6896" stroke-miterlimit="10" points="1205.1,1015.4 1525.8,1027.3 
							1261.5,1165.8 						"/>
						<polygon display="inline" fill="#DFA9C5" stroke="#3E6896" stroke-miterlimit="10" points="1055.6,643.6 1205.1,1015.4 
							1155.1,623.8 						"/>
						<polygon display="inline" fill="#C0528C" stroke="#3E6896" stroke-miterlimit="10" points="969.7,539 1055.6,643.6 
							1155.1,623.8 						"/>
						<polygon display="inline" fill="#B0276F" stroke="#3E6896" stroke-miterlimit="10" points="946.6,661.7 1055.6,643.6 
							969.7,539 						"/>
						<polygon display="inline" fill="#841D53" stroke="#3E6896" stroke-miterlimit="10" points="843.2,495.4 946.6,661.7 
							978.5,447.9 						"/>
						<polygon display="inline" fill="#C0528C" stroke="#3E6896" stroke-miterlimit="10" points="776.3,677.3 843.2,495.4 
							597.6,358.6 						"/>
						<polygon display="inline" fill="#C0528C" stroke="#3E6896" stroke-miterlimit="10" points="957.3,839.1 1055.6,643.6 
							946.6,661.7 						"/>
						<polygon display="inline" fill="#D07DA9" stroke="#3E6896" stroke-miterlimit="10" points="1205.1,1015.4 957.3,839.1 
							1055.6,643.6 						"/>
						<polygon display="inline" fill="#DFA9C5" stroke="#3E6896" stroke-miterlimit="10" points="1034.5,1055.1 1205.1,1015.4 
							957.3,839.1 						"/>
						<polygon display="inline" fill="#C0528C" stroke="#3E6896" stroke-miterlimit="10" points="1261.5,1165.8 1205.1,1015.4 
							1034.5,1055.1 						"/>
						<polygon display="inline" fill="#D07DA9" stroke="#3E6896" stroke-miterlimit="10" points="1265.9,1342.4 1374.1,1407.7 
							1451.9,1374 1261.5,1165.8 						"/>
						<polygon display="inline" fill="#C0528C" stroke="#3E6896" stroke-miterlimit="10" points="1212.2,1320 1265.9,1342.4 
							1261.5,1165.8 						"/>
						<polygon display="inline" fill="#DFA9C5" stroke="#3E6896" stroke-miterlimit="10" points="1034.5,1055.1 1212.2,1320 
							1261.5,1165.8 						"/>
						<polygon display="inline" fill="#B0276F" stroke="#3E6896" stroke-miterlimit="10" points="940.6,1095.7 1211.5,1318.3 
							1034.6,1055.2 						"/>
						<polygon display="inline" fill="#C0528C" stroke="#3E6896" stroke-miterlimit="10" points="1205.7,1479.5 1211.7,1318.7 
							940.8,1096.1 801.4,1407.5 						"/>
						<polygon display="inline" fill="#841D53" stroke="#3E6896" stroke-miterlimit="10" points="891.2,1615.9 1205.1,1480.4 
							801.4,1407.5 						"/>
						<polygon display="inline" fill="#DFA9C5" stroke="#3E6896" stroke-miterlimit="10" points="940.8,1096.1 801.4,1407.5 
							693.9,1157.8 						"/>
						<polygon display="inline" fill="#D07DA9" stroke="#3E6896" stroke-miterlimit="10" points="585.7,906.9 694.3,1159.1 
							940.8,1096.1 						"/>
						<polygon display="inline" fill="#B0276F" stroke="#3E6896" stroke-miterlimit="10" points="776.8,678.5 941,1096.6 
							585.7,906.9 532.6,783.6 						"/>
						<polygon display="inline" fill="#C0528C" stroke="#3E6896" stroke-miterlimit="10" points="957.3,839.1 940.8,1096.1 
							776.3,677.3 						"/>
						<polygon display="inline" fill="#B0276F" stroke="#3E6896" stroke-miterlimit="10" points="946.6,661.7 957.3,839.1 
							776.3,677.3 843.2,495.4 						"/>
						<polygon display="inline" fill="#D07DA9" stroke="#3E6896" stroke-miterlimit="10" points="1034.6,1055.2 940.6,1095.7 
							957.1,838.6 						"/>
						<polygon display="inline" fill="#841D53" stroke="#3E6896" stroke-miterlimit="10" points="1211.7,1318.7 1265.9,1342.4 
							1244.2,1462.9 1205.1,1480.4 						"/>
						<polygon display="inline" fill="#B0276F" stroke="#3E6896" stroke-miterlimit="10" points="1374.1,1407.7 1244.2,1462.9 
							1265.9,1342.4 						"/>
					</g>
					<g opacity="0.79">
						<polygon fill="#90A4B0" stroke="#3E6896" stroke-miterlimit="10" points="463,612 706.6,505.4 817.8,854 510,719.1 						"/>
						<polygon fill="#BDCCD4" stroke="#3E6896" stroke-miterlimit="10" points="730,1168.3 818,854.6 510.4,719.9 704,1162.2 						
							"/>
						<polygon fill="#BDCCD4" stroke="#3E6896" stroke-miterlimit="10" points="763.1,-508.5 962.7,-280.3 926.4,-580 						"/>
						<polygon fill="#D7E0E5" stroke="#3E6896" stroke-miterlimit="10" points="681.1,-181.6 658.2,-461.9 763.1,-508.5 
							962.7,-280.3 						"/>
						<polygon fill="#BDCCD4" stroke="#3E6896" stroke-miterlimit="10" points="752.6,-37.7 962.7,-280.3 681.1,-181.6 						"/>
						<polygon fill="#D7E0E5" stroke="#3E6896" stroke-miterlimit="10" points="922.2,325.3 752.6,-37.7 1004.7,266.1 						"/>
						<polygon fill="#EAEFF1" stroke="#3E6896" stroke-miterlimit="10" points="940.1,459.5 922.2,325.3 1004.7,266.1 						"/>
						<polygon fill="#BDCCD4" stroke="#3E6896" stroke-miterlimit="10" points="834.7,392.6 922.2,325.3 940.1,459.5 						"/>
						<polygon fill="#90A4B0" stroke="#3E6896" stroke-miterlimit="10" points="885.7,581.7 834.7,392.6 940.1,459.5 						"/>
						<polygon fill="#D7E0E5" stroke="#3E6896" stroke-miterlimit="10" points="707.1,506.4 885.7,581.7 818,854.6 						"/>
						<polygon fill="#EAEFF1" stroke="#3E6896" stroke-miterlimit="10" points="712.3,263.7 922.2,325.3 834.7,392.6 						"/>
						<polygon fill="#D7E0E5" stroke="#3E6896" stroke-miterlimit="10" points="752.6,-37.7 712.3,263.7 922.2,325.3 						"/>
						<polygon fill="#D7E0E5" stroke="#3E6896" stroke-miterlimit="10" points="607.1,59.9 752.6,-37.7 712.3,263.7 						"/>
						<polygon fill="#EAEFF1" stroke="#3E6896" stroke-miterlimit="10" points="681.1,-181.6 752.6,-37.7 607.1,59.9 						"/>
						<polygon fill="#D7E0E5" stroke="#3E6896" stroke-miterlimit="10" points="555,-305.2 581.2,-428.8 658.8,-462.8 681.1,-181.6 
													"/>
						<polygon fill="#BDCCD4" stroke="#3E6896" stroke-miterlimit="10" points="534.8,-250.8 555,-305.2 681.1,-181.6 						"/>
						<polygon fill="#D7E0E5" stroke="#3E6896" stroke-miterlimit="10" points="607.1,59.9 534.8,-250.8 681.1,-181.6 						"/>
						<polygon fill="#BDCCD4" stroke="#3E6896" stroke-miterlimit="10" points="513.4,100.9 535.5,-249.1 607.1,59.8 						"/>
						<polygon fill="#EAEFF1" stroke="#3E6896" stroke-miterlimit="10" points="413.8,-354.9 535.3,-249.5 513.2,100.4 190.5,-10.2 
													"/>
						<polygon fill="#90A4B0" stroke="#3E6896" stroke-miterlimit="10" points="99.4,-217.9 412.6,-355 190.5,-10.2 						"/>
						<polygon fill="#D7E0E5" stroke="#3E6896" stroke-miterlimit="10" points="513.2,100.4 190.5,-10.2 299.6,238.8 						"/>
						<polygon fill="#D7E0E5" stroke="#3E6896" stroke-miterlimit="10" points="409.2,489.2 299,237.7 513.2,100.4 						"/>
						<polygon fill="#BDCCD4" stroke="#3E6896" stroke-miterlimit="10" points="706.6,505.4 513,99.9 409.2,489.2 463,612 						"/>
						<polygon fill="#EAEFF1" stroke="#3E6896" stroke-miterlimit="10" points="712.3,263.7 513.2,100.4 707.1,506.4 						"/>
						<polygon fill="#BDCCD4" stroke="#3E6896" stroke-miterlimit="10" points="834.7,392.6 712.3,263.7 707.1,506.4 885.7,581.7 
													"/>
						<polygon fill="#D7E0E5" stroke="#3E6896" stroke-miterlimit="10" points="607.1,59.8 513.4,100.9 712.5,264.2 						"/>
						<polygon fill="#90A4B0" stroke="#3E6896" stroke-miterlimit="10" points="535.3,-249.5 555,-305.2 452.1,-371.7 412.6,-355 
													"/>
						<polygon fill="#BDCCD4" stroke="#3E6896" stroke-miterlimit="10" points="581.2,-428.8 452.1,-371.7 555,-305.2 						"/>
					</g>
				</g>
				<use xlink:href="#SVGID_1_"  overflow="visible" fill="none" stroke="#3E6896" stroke-miterlimit="10"/>
			</g>
		</g>
	</g>
</g>
<path display="none" fill="#FFFFFF" d="M1256.4,298.4c5.2-8.4,2.7-19.4-5.7-24.7l-26.3-16.6l-27.5-17.4c-8.4-5.4-19.6-2.8-24.9,5.7
	L984.6,544.8c-27.4-3.5-56,7.6-71.8,46.9c-35.4,103.4-143.2,100.2-143.2,100.2s154.2,98.3,264.8,0.2c23-20.4,32.2-50.7,26.6-78.9
	L1256.4,298.4z"/>
<path fill="#2F4E71" d="M1076.4,597.9L1242,331.4c5.2-8.4,2.7-19.4-5.7-24.7L1210,290l-27.5-17.4c-8.4-5.4-19.6-2.8-24.9,5.7
	L1000,529.4L1076.4,597.9z"/>
<path fill="#2F4E71" d="M984.6,544.8c-27.4-3.5-56,7.6-71.8,46.9c-35.4,103.4-143.2,100.2-143.2,100.2s154.2,98.3,264.8,0.2
	c23-20.4,32.2-50.7,26.6-78.9L984.6,544.8z"/>
</svg>
